<svg width="524" height="371" viewBox="0 0 524 371" fill="none" xmlns="http://www.w3.org/2000/svg">
<rect width="524" height="370.293" fill="url(#paint0_linear_202_14911)"/>
<rect x="0.5" y="0.5" width="523" height="369.293" stroke="#0A0F29" stroke-opacity="0.08"/>
<g filter="url(#filter0_d_202_14911)">
<path d="M141 153C141 146.373 146.373 141 153 141H371C377.627 141 383 146.373 383 153V217C383 223.627 377.627 229 371 229H153C146.373 229 141 223.627 141 217V153Z" fill="white" shape-rendering="crispEdges"/>
<path d="M153 141.5H371C377.351 141.5 382.5 146.649 382.5 153V217C382.5 223.351 377.351 228.5 371 228.5H153C146.649 228.5 141.5 223.351 141.5 217V153C141.5 146.649 146.649 141.5 153 141.5Z" stroke="#DEE0E3" shape-rendering="crispEdges"/>
<path d="M165 171.178L169.62 169.922L170.243 163.144H162.026L161.822 160.89H170.448L170.675 158.679H159.325L159.961 165.357H167.781L167.52 168.223L165 168.89L162.48 168.223L162.322 166.379H160.052L160.381 169.923L165 171.178ZM156 155H174L172.377 173L165 175L157.623 173L156 155Z" fill="#E6483D"/>
<path d="M194.119 168V157.818H195.655V162.243H200.731V157.818H202.272V168H200.731V163.56H195.655V168H194.119ZM203.937 159.141V157.818H211.817V159.141H208.64V168H207.109V159.141H203.937ZM213.488 157.818H215.353L218.594 165.733H218.714L221.955 157.818H223.819V168H222.358V160.632H222.263L219.26 167.985H218.047L215.044 160.627H214.95V168H213.488V157.818ZM225.983 168V157.818H227.519V166.678H232.133V168H225.983ZM236.948 159.141V157.818H244.828V159.141H241.651V168H240.12V159.141H236.948ZM246.38 168V160.364H247.867V168H246.38ZM247.131 159.185C246.872 159.185 246.65 159.099 246.465 158.927C246.282 158.751 246.191 158.542 246.191 158.3C246.191 158.055 246.282 157.846 246.465 157.674C246.65 157.498 246.872 157.411 247.131 157.411C247.389 157.411 247.61 157.498 247.792 157.674C247.978 157.846 248.07 158.055 248.07 158.3C248.07 158.542 247.978 158.751 247.792 158.927C247.61 159.099 247.389 159.185 247.131 159.185ZM249.796 170.864V160.364H251.248V161.602H251.372C251.459 161.442 251.583 161.259 251.745 161.05C251.908 160.841 252.133 160.659 252.421 160.503C252.71 160.344 253.091 160.264 253.565 160.264C254.181 160.264 254.732 160.42 255.215 160.732C255.699 161.043 256.079 161.492 256.354 162.079C256.632 162.665 256.772 163.371 256.772 164.197C256.772 165.022 256.634 165.73 256.359 166.32C256.084 166.906 255.706 167.359 255.225 167.677C254.745 167.992 254.196 168.149 253.58 168.149C253.116 168.149 252.736 168.071 252.441 167.915C252.15 167.76 251.921 167.577 251.755 167.369C251.589 167.16 251.462 166.974 251.372 166.812H251.283V170.864H249.796ZM251.253 164.182C251.253 164.719 251.331 165.189 251.487 165.594C251.643 165.998 251.868 166.315 252.163 166.543C252.458 166.769 252.819 166.881 253.247 166.881C253.691 166.881 254.062 166.764 254.36 166.528C254.659 166.29 254.884 165.967 255.036 165.559C255.192 165.151 255.27 164.692 255.27 164.182C255.27 163.678 255.194 163.226 255.041 162.825C254.892 162.424 254.667 162.107 254.365 161.875C254.067 161.643 253.694 161.527 253.247 161.527C252.816 161.527 252.451 161.638 252.153 161.86C251.858 162.082 251.634 162.392 251.482 162.79C251.329 163.187 251.253 163.652 251.253 164.182ZM264.089 162.228L262.742 162.467C262.686 162.294 262.596 162.13 262.474 161.974C262.354 161.819 262.192 161.691 261.986 161.592C261.781 161.492 261.524 161.442 261.216 161.442C260.795 161.442 260.443 161.537 260.162 161.726C259.88 161.911 259.739 162.152 259.739 162.447C259.739 162.702 259.834 162.907 260.023 163.063C260.211 163.219 260.516 163.347 260.937 163.446L262.15 163.724C262.853 163.887 263.377 164.137 263.721 164.475C264.066 164.813 264.238 165.252 264.238 165.793C264.238 166.25 264.106 166.658 263.841 167.016C263.579 167.37 263.213 167.649 262.742 167.851C262.275 168.053 261.733 168.154 261.116 168.154C260.261 168.154 259.564 167.972 259.023 167.607C258.483 167.239 258.152 166.717 258.029 166.041L259.466 165.822C259.555 166.197 259.739 166.48 260.018 166.673C260.296 166.862 260.659 166.956 261.106 166.956C261.594 166.956 261.983 166.855 262.275 166.653C262.566 166.447 262.712 166.197 262.712 165.902C262.712 165.663 262.623 165.463 262.444 165.3C262.268 165.138 261.998 165.015 261.633 164.933L260.341 164.649C259.628 164.487 259.101 164.228 258.76 163.874C258.422 163.519 258.253 163.07 258.253 162.526C258.253 162.076 258.379 161.681 258.631 161.343C258.882 161.005 259.23 160.741 259.675 160.553C260.119 160.36 260.627 160.264 261.201 160.264C262.026 160.264 262.676 160.443 263.15 160.801C263.624 161.156 263.937 161.631 264.089 162.228ZM273.072 160.364V161.557H268.757V160.364H273.072ZM269.94 168V159.479C269.94 159.001 270.044 158.605 270.253 158.29C270.462 157.972 270.739 157.735 271.084 157.58C271.428 157.42 271.803 157.341 272.207 157.341C272.505 157.341 272.761 157.366 272.973 157.415C273.185 157.462 273.342 157.505 273.445 157.545L273.097 158.748C273.027 158.728 272.938 158.705 272.829 158.678C272.719 158.648 272.587 158.634 272.431 158.634C272.07 158.634 271.811 158.723 271.655 158.902C271.503 159.081 271.427 159.339 271.427 159.678V168H269.94ZM277.452 168.154C276.736 168.154 276.111 167.99 275.577 167.662C275.044 167.334 274.63 166.875 274.335 166.285C274.04 165.695 273.892 165.005 273.892 164.217C273.892 163.424 274.04 162.732 274.335 162.138C274.63 161.545 275.044 161.085 275.577 160.756C276.111 160.428 276.736 160.264 277.452 160.264C278.168 160.264 278.792 160.428 279.326 160.756C279.86 161.085 280.274 161.545 280.569 162.138C280.864 162.732 281.011 163.424 281.011 164.217C281.011 165.005 280.864 165.695 280.569 166.285C280.274 166.875 279.86 167.334 279.326 167.662C278.792 167.99 278.168 168.154 277.452 168.154ZM277.457 166.906C277.921 166.906 278.305 166.784 278.61 166.538C278.915 166.293 279.14 165.967 279.286 165.559C279.435 165.151 279.51 164.702 279.51 164.212C279.51 163.724 279.435 163.277 279.286 162.869C279.14 162.458 278.915 162.129 278.61 161.88C278.305 161.631 277.921 161.507 277.457 161.507C276.989 161.507 276.602 161.631 276.293 161.88C275.988 162.129 275.761 162.458 275.612 162.869C275.466 163.277 275.394 163.724 275.394 164.212C275.394 164.702 275.466 165.151 275.612 165.559C275.761 165.967 275.988 166.293 276.293 166.538C276.602 166.784 276.989 166.906 277.457 166.906ZM282.601 168V160.364H284.037V161.577H284.117C284.256 161.166 284.502 160.843 284.853 160.607C285.207 160.369 285.609 160.249 286.056 160.249C286.149 160.249 286.258 160.253 286.384 160.259C286.513 160.266 286.614 160.274 286.687 160.284V161.706C286.628 161.689 286.522 161.671 286.369 161.651C286.217 161.628 286.064 161.616 285.912 161.616C285.56 161.616 285.247 161.691 284.972 161.84C284.7 161.986 284.485 162.19 284.326 162.452C284.167 162.71 284.087 163.005 284.087 163.337V168H282.601ZM297.211 160.493C297.158 160.022 296.94 159.658 296.555 159.399C296.171 159.137 295.687 159.006 295.103 159.006C294.686 159.006 294.325 159.073 294.02 159.205C293.715 159.335 293.478 159.513 293.309 159.742C293.143 159.968 293.06 160.224 293.06 160.513C293.06 160.755 293.116 160.964 293.229 161.139C293.345 161.315 293.496 161.462 293.682 161.582C293.87 161.698 294.073 161.795 294.288 161.875C294.504 161.951 294.711 162.014 294.91 162.064L295.904 162.322C296.229 162.402 296.562 162.51 296.903 162.646C297.245 162.781 297.561 162.96 297.853 163.183C298.144 163.405 298.38 163.68 298.559 164.008C298.741 164.336 298.832 164.729 298.832 165.186C298.832 165.763 298.683 166.275 298.385 166.722C298.09 167.17 297.661 167.523 297.097 167.781C296.537 168.04 295.859 168.169 295.064 168.169C294.301 168.169 293.642 168.048 293.085 167.806C292.528 167.564 292.092 167.221 291.777 166.777C291.463 166.33 291.289 165.799 291.255 165.186H292.797C292.826 165.554 292.946 165.861 293.155 166.106C293.367 166.348 293.637 166.528 293.965 166.648C294.296 166.764 294.659 166.822 295.054 166.822C295.488 166.822 295.874 166.754 296.212 166.618C296.553 166.479 296.822 166.286 297.018 166.041C297.213 165.793 297.311 165.503 297.311 165.171C297.311 164.87 297.225 164.623 297.052 164.43C296.883 164.238 296.653 164.079 296.361 163.953C296.073 163.827 295.746 163.716 295.382 163.62L294.179 163.292C293.363 163.07 292.717 162.743 292.24 162.312C291.766 161.882 291.529 161.312 291.529 160.602C291.529 160.016 291.688 159.504 292.006 159.066C292.324 158.629 292.755 158.289 293.299 158.047C293.842 157.802 294.455 157.679 295.138 157.679C295.828 157.679 296.436 157.8 296.963 158.042C297.493 158.284 297.911 158.617 298.216 159.041C298.521 159.462 298.68 159.946 298.693 160.493H297.211ZM300.598 168V157.818H306.981V159.141H302.134V162.243H306.648V163.56H302.134V166.678H307.041V168H300.598ZM317.808 162.909C317.808 163.996 317.609 164.931 317.211 165.713C316.814 166.492 316.268 167.092 315.576 167.513C314.886 167.93 314.102 168.139 313.224 168.139C312.342 168.139 311.555 167.93 310.863 167.513C310.173 167.092 309.63 166.49 309.232 165.708C308.834 164.926 308.635 163.993 308.635 162.909C308.635 161.822 308.834 160.889 309.232 160.11C309.63 159.328 310.173 158.728 310.863 158.31C311.555 157.889 312.342 157.679 313.224 157.679C314.102 157.679 314.886 157.889 315.576 158.31C316.268 158.728 316.814 159.328 317.211 160.11C317.609 160.889 317.808 161.822 317.808 162.909ZM316.287 162.909C316.287 162.08 316.152 161.383 315.884 160.816C315.619 160.246 315.254 159.815 314.79 159.523C314.329 159.228 313.807 159.081 313.224 159.081C312.637 159.081 312.114 159.228 311.653 159.523C311.192 159.815 310.828 160.246 310.559 160.816C310.294 161.383 310.162 162.08 310.162 162.909C310.162 163.738 310.294 164.437 310.559 165.007C310.828 165.574 311.192 166.005 311.653 166.3C312.114 166.591 312.637 166.737 313.224 166.737C313.807 166.737 314.329 166.591 314.79 166.3C315.254 166.005 315.619 165.574 315.884 165.007C316.152 164.437 316.287 163.738 316.287 162.909Z" fill="#14151A"/>
<path d="M194.233 192V181.818H195.466V186.352H200.895V181.818H202.128V192H200.895V187.446H195.466V192H194.233ZM207.469 192.159C206.78 192.159 206.175 191.995 205.655 191.667C205.138 191.339 204.733 190.88 204.442 190.29C204.153 189.7 204.009 189.01 204.009 188.222C204.009 187.426 204.153 186.732 204.442 186.138C204.733 185.545 205.138 185.085 205.655 184.756C206.175 184.428 206.78 184.264 207.469 184.264C208.159 184.264 208.762 184.428 209.279 184.756C209.799 185.085 210.204 185.545 210.492 186.138C210.784 186.732 210.93 187.426 210.93 188.222C210.93 189.01 210.784 189.7 210.492 190.29C210.204 190.88 209.799 191.339 209.279 191.667C208.762 191.995 208.159 192.159 207.469 192.159ZM207.469 191.105C207.993 191.105 208.424 190.971 208.762 190.702C209.1 190.434 209.35 190.081 209.513 189.643C209.675 189.206 209.756 188.732 209.756 188.222C209.756 187.711 209.675 187.236 209.513 186.795C209.35 186.354 209.1 185.998 208.762 185.726C208.424 185.454 207.993 185.318 207.469 185.318C206.946 185.318 206.515 185.454 206.177 185.726C205.839 185.998 205.588 186.354 205.426 186.795C205.264 187.236 205.182 187.711 205.182 188.222C205.182 188.732 205.264 189.206 205.426 189.643C205.588 190.081 205.839 190.434 206.177 190.702C206.515 190.971 206.946 191.105 207.469 191.105ZM214.121 192L211.794 184.364H213.027L214.678 190.21H214.757L216.388 184.364H217.641L219.252 190.19H219.331L220.982 184.364H222.215L219.888 192H218.735L217.064 186.134H216.945L215.274 192H214.121ZM230.884 184.364V185.358H226.927V184.364H230.884ZM228.08 182.534H229.254V189.812C229.254 190.144 229.302 190.393 229.398 190.558C229.497 190.721 229.623 190.83 229.776 190.886C229.932 190.939 230.096 190.966 230.268 190.966C230.397 190.966 230.503 190.959 230.586 190.946C230.669 190.929 230.735 190.916 230.785 190.906L231.024 191.96C230.944 191.99 230.833 192.02 230.691 192.05C230.548 192.083 230.367 192.099 230.149 192.099C229.817 192.099 229.492 192.028 229.174 191.886C228.859 191.743 228.597 191.526 228.389 191.234C228.183 190.943 228.08 190.575 228.08 190.131V182.534ZM235.6 192.159C234.91 192.159 234.305 191.995 233.785 191.667C233.268 191.339 232.864 190.88 232.572 190.29C232.284 189.7 232.139 189.01 232.139 188.222C232.139 187.426 232.284 186.732 232.572 186.138C232.864 185.545 233.268 185.085 233.785 184.756C234.305 184.428 234.91 184.264 235.6 184.264C236.289 184.264 236.892 184.428 237.409 184.756C237.93 185.085 238.334 185.545 238.622 186.138C238.914 186.732 239.06 187.426 239.06 188.222C239.06 189.01 238.914 189.7 238.622 190.29C238.334 190.88 237.93 191.339 237.409 191.667C236.892 191.995 236.289 192.159 235.6 192.159ZM235.6 191.105C236.123 191.105 236.554 190.971 236.892 190.702C237.23 190.434 237.48 190.081 237.643 189.643C237.805 189.206 237.887 188.732 237.887 188.222C237.887 187.711 237.805 187.236 237.643 186.795C237.48 186.354 237.23 185.998 236.892 185.726C236.554 185.454 236.123 185.318 235.6 185.318C235.076 185.318 234.645 185.454 234.307 185.726C233.969 185.998 233.719 186.354 233.556 186.795C233.394 187.236 233.313 187.711 233.313 188.222C233.313 188.732 233.394 189.206 233.556 189.643C233.719 190.081 233.969 190.434 234.307 190.702C234.645 190.971 235.076 191.105 235.6 191.105ZM244.648 192V184.364H245.822V192H244.648ZM245.245 183.091C245.016 183.091 244.819 183.013 244.653 182.857C244.491 182.701 244.41 182.514 244.41 182.295C244.41 182.077 244.491 181.889 244.653 181.734C244.819 181.578 245.016 181.5 245.245 181.5C245.474 181.5 245.669 181.578 245.832 181.734C245.997 181.889 246.08 182.077 246.08 182.295C246.08 182.514 245.997 182.701 245.832 182.857C245.669 183.013 245.474 183.091 245.245 183.091ZM247.901 192V184.364H249.034V185.557H249.134C249.293 185.149 249.549 184.833 249.904 184.607C250.259 184.379 250.685 184.264 251.182 184.264C251.686 184.264 252.105 184.379 252.44 184.607C252.778 184.833 253.041 185.149 253.23 185.557H253.31C253.505 185.162 253.799 184.849 254.19 184.617C254.581 184.382 255.05 184.264 255.597 184.264C256.279 184.264 256.838 184.478 257.272 184.906C257.706 185.33 257.923 185.991 257.923 186.889V192H256.75V186.889C256.75 186.326 256.596 185.923 256.288 185.681C255.979 185.439 255.616 185.318 255.199 185.318C254.662 185.318 254.246 185.481 253.951 185.805C253.656 186.127 253.509 186.535 253.509 187.028V192H252.315V186.77C252.315 186.336 252.174 185.986 251.893 185.721C251.611 185.452 251.248 185.318 250.804 185.318C250.499 185.318 250.214 185.399 249.949 185.562C249.687 185.724 249.475 185.95 249.313 186.238C249.153 186.523 249.074 186.853 249.074 187.227V192H247.901ZM259.999 194.864V184.364H261.132V185.577H261.271C261.357 185.444 261.477 185.275 261.629 185.07C261.785 184.861 262.007 184.675 262.295 184.513C262.587 184.347 262.982 184.264 263.479 184.264C264.122 184.264 264.688 184.425 265.179 184.746C265.669 185.068 266.052 185.524 266.327 186.114C266.602 186.704 266.74 187.4 266.74 188.202C266.74 189.01 266.602 189.711 266.327 190.305C266.052 190.895 265.671 191.352 265.184 191.677C264.697 191.998 264.135 192.159 263.499 192.159C263.008 192.159 262.615 192.078 262.32 191.915C262.025 191.75 261.798 191.562 261.639 191.354C261.48 191.142 261.357 190.966 261.271 190.827H261.172V194.864H259.999ZM261.152 188.182C261.152 188.759 261.236 189.267 261.406 189.708C261.575 190.146 261.821 190.489 262.146 190.737C262.471 190.982 262.869 191.105 263.339 191.105C263.83 191.105 264.239 190.976 264.567 190.717C264.899 190.455 265.147 190.104 265.313 189.663C265.482 189.219 265.567 188.725 265.567 188.182C265.567 187.645 265.484 187.161 265.318 186.73C265.156 186.296 264.909 185.953 264.577 185.701C264.249 185.446 263.837 185.318 263.339 185.318C262.862 185.318 262.461 185.439 262.136 185.681C261.812 185.92 261.566 186.254 261.401 186.685C261.235 187.113 261.152 187.612 261.152 188.182ZM268.46 192V184.364H269.593V185.517H269.673C269.812 185.139 270.064 184.833 270.429 184.597C270.793 184.362 271.204 184.244 271.662 184.244C271.748 184.244 271.855 184.246 271.985 184.249C272.114 184.253 272.212 184.258 272.278 184.264V185.457C272.238 185.447 272.147 185.433 272.005 185.413C271.865 185.389 271.718 185.378 271.562 185.378C271.191 185.378 270.859 185.456 270.568 185.612C270.279 185.764 270.051 185.976 269.882 186.248C269.716 186.516 269.633 186.823 269.633 187.168V192H268.46ZM276.469 192.159C275.779 192.159 275.174 191.995 274.654 191.667C274.137 191.339 273.733 190.88 273.441 190.29C273.153 189.7 273.008 189.01 273.008 188.222C273.008 187.426 273.153 186.732 273.441 186.138C273.733 185.545 274.137 185.085 274.654 184.756C275.174 184.428 275.779 184.264 276.469 184.264C277.158 184.264 277.761 184.428 278.278 184.756C278.799 185.085 279.203 185.545 279.491 186.138C279.783 186.732 279.929 187.426 279.929 188.222C279.929 189.01 279.783 189.7 279.491 190.29C279.203 190.88 278.799 191.339 278.278 191.667C277.761 191.995 277.158 192.159 276.469 192.159ZM276.469 191.105C276.992 191.105 277.423 190.971 277.761 190.702C278.099 190.434 278.35 190.081 278.512 189.643C278.674 189.206 278.756 188.732 278.756 188.222C278.756 187.711 278.674 187.236 278.512 186.795C278.35 186.354 278.099 185.998 277.761 185.726C277.423 185.454 276.992 185.318 276.469 185.318C275.945 185.318 275.514 185.454 275.176 185.726C274.838 185.998 274.588 186.354 274.425 186.795C274.263 187.236 274.182 187.711 274.182 188.222C274.182 188.732 274.263 189.206 274.425 189.643C274.588 190.081 274.838 190.434 275.176 190.702C275.514 190.971 275.945 191.105 276.469 191.105ZM287.621 184.364L284.797 192H283.604L280.78 184.364H282.053L284.161 190.449H284.24L286.348 184.364H287.621ZM292.028 192.159C291.292 192.159 290.657 191.997 290.124 191.672C289.593 191.344 289.184 190.886 288.896 190.3C288.611 189.71 288.468 189.024 288.468 188.241C288.468 187.459 288.611 186.77 288.896 186.173C289.184 185.573 289.585 185.106 290.099 184.771C290.616 184.433 291.219 184.264 291.908 184.264C292.306 184.264 292.699 184.33 293.087 184.463C293.474 184.596 293.827 184.811 294.146 185.109C294.464 185.404 294.717 185.795 294.906 186.283C295.095 186.77 295.19 187.37 295.19 188.082V188.58H289.303V187.565H293.996C293.996 187.134 293.91 186.75 293.738 186.412C293.569 186.074 293.327 185.807 293.012 185.612C292.7 185.416 292.333 185.318 291.908 185.318C291.441 185.318 291.037 185.434 290.695 185.666C290.357 185.895 290.097 186.193 289.915 186.561C289.732 186.929 289.641 187.323 289.641 187.744V188.42C289.641 188.997 289.741 189.486 289.94 189.887C290.142 190.285 290.422 190.588 290.78 190.797C291.138 191.002 291.554 191.105 292.028 191.105C292.336 191.105 292.614 191.062 292.863 190.976C293.115 190.886 293.332 190.754 293.514 190.578C293.696 190.399 293.837 190.177 293.937 189.912L295.07 190.23C294.951 190.615 294.75 190.953 294.469 191.244C294.187 191.533 293.839 191.758 293.425 191.92C293.01 192.08 292.545 192.159 292.028 192.159ZM302.502 192L300.175 184.364H301.408L303.059 190.21H303.138L304.769 184.364H306.022L307.633 190.19H307.712L309.363 184.364H310.596L308.269 192H307.116L305.445 186.134H305.326L303.655 192H302.502ZM315.019 192.159C314.283 192.159 313.648 191.997 313.115 191.672C312.584 191.344 312.175 190.886 311.887 190.3C311.602 189.71 311.459 189.024 311.459 188.241C311.459 187.459 311.602 186.77 311.887 186.173C312.175 185.573 312.576 185.106 313.09 184.771C313.607 184.433 314.21 184.264 314.9 184.264C315.297 184.264 315.69 184.33 316.078 184.463C316.466 184.596 316.819 184.811 317.137 185.109C317.455 185.404 317.708 185.795 317.897 186.283C318.086 186.77 318.181 187.37 318.181 188.082V188.58H312.294V187.565H316.988C316.988 187.134 316.901 186.75 316.729 186.412C316.56 186.074 316.318 185.807 316.003 185.612C315.692 185.416 315.324 185.318 314.9 185.318C314.432 185.318 314.028 185.434 313.686 185.666C313.348 185.895 313.088 186.193 312.906 186.561C312.724 186.929 312.632 187.323 312.632 187.744V188.42C312.632 188.997 312.732 189.486 312.931 189.887C313.133 190.285 313.413 190.588 313.771 190.797C314.129 191.002 314.545 191.105 315.019 191.105C315.327 191.105 315.605 191.062 315.854 190.976C316.106 190.886 316.323 190.754 316.505 190.578C316.688 190.399 316.829 190.177 316.928 189.912L318.061 190.23C317.942 190.615 317.742 190.953 317.46 191.244C317.178 191.533 316.83 191.758 316.416 191.92C316.002 192.08 315.536 192.159 315.019 192.159ZM320.055 192V181.818H321.228V185.577H321.327C321.414 185.444 321.533 185.275 321.685 185.07C321.841 184.861 322.063 184.675 322.352 184.513C322.643 184.347 323.038 184.264 323.535 184.264C324.178 184.264 324.745 184.425 325.235 184.746C325.726 185.068 326.108 185.524 326.384 186.114C326.659 186.704 326.796 187.4 326.796 188.202C326.796 189.01 326.659 189.711 326.384 190.305C326.108 190.895 325.727 191.352 325.24 191.677C324.753 191.998 324.191 192.159 323.555 192.159C323.064 192.159 322.671 192.078 322.376 191.915C322.081 191.75 321.854 191.562 321.695 191.354C321.536 191.142 321.414 190.966 321.327 190.827H321.188V192H320.055ZM321.208 188.182C321.208 188.759 321.293 189.267 321.462 189.708C321.631 190.146 321.878 190.489 322.202 190.737C322.527 190.982 322.925 191.105 323.396 191.105C323.886 191.105 324.295 190.976 324.624 190.717C324.955 190.455 325.204 190.104 325.369 189.663C325.538 189.219 325.623 188.725 325.623 188.182C325.623 187.645 325.54 187.161 325.374 186.73C325.212 186.296 324.965 185.953 324.634 185.701C324.305 185.446 323.893 185.318 323.396 185.318C322.918 185.318 322.517 185.439 322.192 185.681C321.868 185.92 321.622 186.254 321.457 186.685C321.291 187.113 321.208 187.612 321.208 188.182ZM333.93 186.074L332.876 186.372C332.81 186.196 332.712 186.026 332.583 185.86C332.457 185.691 332.284 185.552 332.066 185.442C331.847 185.333 331.567 185.278 331.225 185.278C330.758 185.278 330.369 185.386 330.057 185.602C329.749 185.814 329.595 186.084 329.595 186.412C329.595 186.704 329.701 186.934 329.913 187.103C330.125 187.272 330.457 187.413 330.907 187.526L332.041 187.804C332.724 187.97 333.232 188.223 333.567 188.565C333.902 188.903 334.069 189.339 334.069 189.872C334.069 190.31 333.943 190.701 333.691 191.045C333.443 191.39 333.095 191.662 332.647 191.861C332.2 192.06 331.68 192.159 331.086 192.159C330.307 192.159 329.663 191.99 329.152 191.652C328.642 191.314 328.319 190.82 328.183 190.17L329.296 189.892C329.403 190.303 329.603 190.611 329.898 190.817C330.196 191.022 330.586 191.125 331.066 191.125C331.613 191.125 332.047 191.009 332.369 190.777C332.694 190.542 332.856 190.26 332.856 189.932C332.856 189.667 332.763 189.445 332.578 189.266C332.392 189.083 332.107 188.947 331.723 188.858L330.45 188.56C329.751 188.394 329.237 188.137 328.909 187.789C328.584 187.438 328.421 186.999 328.421 186.472C328.421 186.041 328.542 185.66 328.784 185.328C329.03 184.997 329.363 184.737 329.784 184.548C330.208 184.359 330.689 184.264 331.225 184.264C331.981 184.264 332.574 184.43 333.005 184.761C333.439 185.093 333.748 185.53 333.93 186.074ZM335.765 192V184.364H336.939V192H335.765ZM336.362 183.091C336.133 183.091 335.936 183.013 335.77 182.857C335.608 182.701 335.527 182.514 335.527 182.295C335.527 182.077 335.608 181.889 335.77 181.734C335.936 181.578 336.133 181.5 336.362 181.5C336.591 181.5 336.786 181.578 336.949 181.734C337.114 181.889 337.197 182.077 337.197 182.295C337.197 182.514 337.114 182.701 336.949 182.857C336.786 183.013 336.591 183.091 336.362 183.091ZM342.339 184.364V185.358H338.381V184.364H342.339ZM339.535 182.534H340.708V189.812C340.708 190.144 340.756 190.393 340.852 190.558C340.952 190.721 341.078 190.83 341.23 190.886C341.386 190.939 341.55 190.966 341.722 190.966C341.851 190.966 341.957 190.959 342.04 190.946C342.123 190.929 342.189 190.916 342.239 190.906L342.478 191.96C342.398 191.99 342.287 192.02 342.145 192.05C342.002 192.083 341.822 192.099 341.603 192.099C341.271 192.099 340.947 192.028 340.628 191.886C340.314 191.743 340.052 191.526 339.843 191.234C339.637 190.943 339.535 190.575 339.535 190.131V182.534ZM347.153 192.159C346.417 192.159 345.783 191.997 345.249 191.672C344.719 191.344 344.309 190.886 344.021 190.3C343.736 189.71 343.594 189.024 343.594 188.241C343.594 187.459 343.736 186.77 344.021 186.173C344.309 185.573 344.711 185.106 345.224 184.771C345.741 184.433 346.345 184.264 347.034 184.264C347.432 184.264 347.824 184.33 348.212 184.463C348.6 184.596 348.953 184.811 349.271 185.109C349.589 185.404 349.843 185.795 350.032 186.283C350.221 186.77 350.315 187.37 350.315 188.082V188.58H344.429V187.565H349.122C349.122 187.134 349.036 186.75 348.863 186.412C348.694 186.074 348.452 185.807 348.138 185.612C347.826 185.416 347.458 185.318 347.034 185.318C346.567 185.318 346.162 185.434 345.821 185.666C345.483 185.895 345.223 186.193 345.04 186.561C344.858 186.929 344.767 187.323 344.767 187.744V188.42C344.767 188.997 344.866 189.486 345.065 189.887C345.267 190.285 345.547 190.588 345.905 190.797C346.263 191.002 346.679 191.105 347.153 191.105C347.461 191.105 347.74 191.062 347.988 190.976C348.24 190.886 348.457 190.754 348.64 190.578C348.822 190.399 348.963 190.177 349.062 189.912L350.196 190.23C350.077 190.615 349.876 190.953 349.594 191.244C349.313 191.533 348.965 191.758 348.55 191.92C348.136 192.08 347.67 192.159 347.153 192.159ZM200.318 204.364L197.494 212H196.301L193.477 204.364H194.75L196.858 210.449H196.938L199.045 204.364H200.318ZM201.797 212V204.364H202.97V212H201.797ZM202.393 203.091C202.165 203.091 201.968 203.013 201.802 202.857C201.639 202.701 201.558 202.514 201.558 202.295C201.558 202.077 201.639 201.889 201.802 201.734C201.968 201.578 202.165 201.5 202.393 201.5C202.622 201.5 202.818 201.578 202.98 201.734C203.146 201.889 203.229 202.077 203.229 202.295C203.229 202.514 203.146 202.701 202.98 202.857C202.818 203.013 202.622 203.091 202.393 203.091ZM210.458 206.074L209.404 206.372C209.338 206.196 209.24 206.026 209.111 205.86C208.985 205.691 208.813 205.552 208.594 205.442C208.375 205.333 208.095 205.278 207.754 205.278C207.286 205.278 206.897 205.386 206.585 205.602C206.277 205.814 206.123 206.084 206.123 206.412C206.123 206.704 206.229 206.934 206.441 207.103C206.653 207.272 206.985 207.413 207.435 207.526L208.569 207.804C209.252 207.97 209.761 208.223 210.095 208.565C210.43 208.903 210.597 209.339 210.597 209.872C210.597 210.31 210.471 210.701 210.22 211.045C209.971 211.39 209.623 211.662 209.176 211.861C208.728 212.06 208.208 212.159 207.614 212.159C206.836 212.159 206.191 211.99 205.68 211.652C205.17 211.314 204.847 210.82 204.711 210.17L205.825 209.892C205.931 210.303 206.131 210.611 206.426 210.817C206.725 211.022 207.114 211.125 207.595 211.125C208.141 211.125 208.576 211.009 208.897 210.777C209.222 210.542 209.384 210.26 209.384 209.932C209.384 209.667 209.292 209.445 209.106 209.266C208.92 209.083 208.635 208.947 208.251 208.858L206.978 208.56C206.279 208.394 205.765 208.137 205.437 207.789C205.112 207.438 204.95 206.999 204.95 206.472C204.95 206.041 205.071 205.66 205.313 205.328C205.558 204.997 205.891 204.737 206.312 204.548C206.736 204.359 207.217 204.264 207.754 204.264C208.509 204.264 209.103 204.43 209.533 204.761C209.968 205.093 210.276 205.53 210.458 206.074ZM212.294 212V204.364H213.467V212H212.294ZM212.89 203.091C212.661 203.091 212.464 203.013 212.299 202.857C212.136 202.701 212.055 202.514 212.055 202.295C212.055 202.077 212.136 201.889 212.299 201.734C212.464 201.578 212.661 201.5 212.89 201.5C213.119 201.5 213.314 201.578 213.477 201.734C213.643 201.889 213.725 202.077 213.725 202.295C213.725 202.514 213.643 202.701 213.477 202.857C213.314 203.013 213.119 203.091 212.89 203.091ZM215.705 212V201.818H216.878V205.577H216.978C217.064 205.444 217.183 205.275 217.336 205.07C217.491 204.861 217.713 204.675 218.002 204.513C218.293 204.347 218.688 204.264 219.185 204.264C219.828 204.264 220.395 204.425 220.885 204.746C221.376 205.068 221.759 205.524 222.034 206.114C222.309 206.704 222.446 207.4 222.446 208.202C222.446 209.01 222.309 209.711 222.034 210.305C221.759 210.895 221.377 211.352 220.89 211.677C220.403 211.998 219.841 212.159 219.205 212.159C218.714 212.159 218.322 212.078 218.027 211.915C217.732 211.75 217.505 211.562 217.346 211.354C217.186 211.142 217.064 210.966 216.978 210.827H216.838V212H215.705ZM216.858 208.182C216.858 208.759 216.943 209.267 217.112 209.708C217.281 210.146 217.528 210.489 217.853 210.737C218.177 210.982 218.575 211.105 219.046 211.105C219.536 211.105 219.946 210.976 220.274 210.717C220.605 210.455 220.854 210.104 221.02 209.663C221.189 209.219 221.273 208.725 221.273 208.182C221.273 207.645 221.19 207.161 221.025 206.73C220.862 206.296 220.615 205.953 220.284 205.701C219.956 205.446 219.543 205.318 219.046 205.318C218.569 205.318 218.168 205.439 217.843 205.681C217.518 205.92 217.273 206.254 217.107 206.685C216.941 207.113 216.858 207.612 216.858 208.182ZM224.171 212V204.364H225.344V212H224.171ZM224.768 203.091C224.539 203.091 224.342 203.013 224.176 202.857C224.014 202.701 223.932 202.514 223.932 202.295C223.932 202.077 224.014 201.889 224.176 201.734C224.342 201.578 224.539 201.5 224.768 201.5C224.996 201.5 225.192 201.578 225.354 201.734C225.52 201.889 225.603 202.077 225.603 202.295C225.603 202.514 225.52 202.701 225.354 202.857C225.192 203.013 224.996 203.091 224.768 203.091ZM228.597 201.818V212H227.423V201.818H228.597ZM230.676 212V204.364H231.849V212H230.676ZM231.272 203.091C231.044 203.091 230.846 203.013 230.681 202.857C230.518 202.701 230.437 202.514 230.437 202.295C230.437 202.077 230.518 201.889 230.681 201.734C230.846 201.578 231.044 201.5 231.272 201.5C231.501 201.5 231.696 201.578 231.859 201.734C232.025 201.889 232.107 202.077 232.107 202.295C232.107 202.514 232.025 202.701 231.859 202.857C231.696 203.013 231.501 203.091 231.272 203.091ZM237.249 204.364V205.358H233.292V204.364H237.249ZM234.445 202.534H235.618V209.812C235.618 210.144 235.666 210.393 235.762 210.558C235.862 210.721 235.988 210.83 236.14 210.886C236.296 210.939 236.46 210.966 236.632 210.966C236.762 210.966 236.868 210.959 236.951 210.946C237.034 210.929 237.1 210.916 237.15 210.906L237.388 211.96C237.309 211.99 237.198 212.02 237.055 212.05C236.913 212.083 236.732 212.099 236.513 212.099C236.182 212.099 235.857 212.028 235.539 211.886C235.224 211.743 234.962 211.526 234.753 211.234C234.548 210.943 234.445 210.575 234.445 210.131V202.534ZM239.7 214.864C239.501 214.864 239.323 214.847 239.168 214.814C239.012 214.784 238.904 214.754 238.844 214.724L239.143 213.69C239.428 213.763 239.68 213.79 239.898 213.77C240.117 213.75 240.311 213.652 240.48 213.477C240.652 213.304 240.81 213.024 240.952 212.636L241.171 212.04L238.347 204.364H239.62L241.728 210.449H241.807L243.915 204.364H245.188L241.947 213.114C241.801 213.508 241.62 213.835 241.405 214.093C241.189 214.355 240.939 214.549 240.654 214.675C240.372 214.801 240.054 214.864 239.7 214.864ZM248.198 209.136V209.077C248.205 208.444 248.271 207.94 248.397 207.565C248.523 207.191 248.702 206.888 248.934 206.656C249.166 206.424 249.444 206.21 249.769 206.014C249.965 205.895 250.14 205.754 250.296 205.592C250.452 205.426 250.575 205.235 250.664 205.02C250.757 204.804 250.803 204.566 250.803 204.304C250.803 203.979 250.727 203.697 250.575 203.459C250.422 203.22 250.218 203.036 249.963 202.907C249.708 202.778 249.424 202.713 249.113 202.713C248.841 202.713 248.579 202.769 248.327 202.882C248.075 202.995 247.865 203.172 247.696 203.414C247.527 203.656 247.429 203.973 247.403 204.364H246.15C246.176 203.8 246.322 203.318 246.587 202.917C246.856 202.516 247.209 202.209 247.646 201.997C248.087 201.785 248.576 201.679 249.113 201.679C249.696 201.679 250.203 201.795 250.634 202.027C251.068 202.259 251.403 202.577 251.638 202.982C251.877 203.386 251.996 203.847 251.996 204.364C251.996 204.728 251.94 205.058 251.827 205.353C251.718 205.648 251.559 205.911 251.35 206.143C251.145 206.375 250.896 206.581 250.604 206.76C250.313 206.942 250.079 207.134 249.903 207.337C249.728 207.536 249.6 207.772 249.521 208.048C249.441 208.323 249.398 208.666 249.391 209.077V209.136H248.198ZM248.834 212.08C248.589 212.08 248.379 211.992 248.203 211.816C248.027 211.64 247.94 211.43 247.94 211.185C247.94 210.939 248.027 210.729 248.203 210.553C248.379 210.378 248.589 210.29 248.834 210.29C249.08 210.29 249.29 210.378 249.466 210.553C249.642 210.729 249.729 210.939 249.729 211.185C249.729 211.347 249.688 211.496 249.605 211.632C249.525 211.768 249.418 211.877 249.282 211.96C249.149 212.04 249 212.08 248.834 212.08Z" fill="#0F1324" fill-opacity="0.6"/>
</g>
<defs>
<filter id="filter0_d_202_14911" x="139" y="140" width="246" height="92" filterUnits="userSpaceOnUse" color-interpolation-filters="sRGB">
<feFlood flood-opacity="0" result="BackgroundImageFix"/>
<feColorMatrix in="SourceAlpha" type="matrix" values="0 0 0 0 0 0 0 0 0 0 0 0 0 0 0 0 0 0 127 0" result="hardAlpha"/>
<feOffset dy="1"/>
<feGaussianBlur stdDeviation="1"/>
<feComposite in2="hardAlpha" operator="out"/>
<feColorMatrix type="matrix" values="0 0 0 0 0.0784314 0 0 0 0 0.0823529 0 0 0 0 0.101961 0 0 0 0.05 0"/>
<feBlend mode="normal" in2="BackgroundImageFix" result="effect1_dropShadow_202_14911"/>
<feBlend mode="normal" in="SourceGraphic" in2="effect1_dropShadow_202_14911" result="shape"/>
</filter>
<linearGradient id="paint0_linear_202_14911" x1="262" y1="0" x2="262" y2="370.293" gradientUnits="userSpaceOnUse">
<stop stop-color="#FF39DF"/>
<stop offset="1" stop-color="#FAA0A0"/>
</linearGradient>
</defs>
</svg>
