<svg width="858" height="640" viewBox="0 0 858 640" fill="none" xmlns="http://www.w3.org/2000/svg">
<path d="M0 16C0 7.16343 7.16344 0 16 0H842C850.837 0 858 7.16344 858 16V624C858 632.837 850.837 640 842 640H16C7.16345 640 0 632.837 0 624V16Z" fill="url(#paint0_linear_14946_47793)"/>
<g filter="url(#filter0_d_14946_47793)">
<path d="M237 208C237 194.745 247.745 184 261 184H597C610.255 184 621 194.745 621 208V472C621 485.255 610.255 496 597 496H261C247.745 496 237 485.255 237 472V208Z" fill="white"/>
<path d="M261 184.5H597C609.979 184.5 620.5 195.021 620.5 208V472C620.5 484.979 609.979 495.5 597 495.5H261C248.021 495.5 237.5 484.979 237.5 472V208C237.5 195.021 248.021 184.5 261 184.5Z" stroke="#0A0F29" stroke-opacity="0.08"/>
<path d="M303.667 228C304.403 228 305 228.597 305 229.333V231.676L302.333 234.343V230.667H283.667V241.467L289 236.133L294.771 241.905L293.001 243.675L292.993 249.327L298.655 249.335L300.428 247.561L302.199 249.333H302.333V245.656L305 242.989V250.667C305 251.403 304.403 252 303.667 252H282.333C281.597 252 281 251.403 281 250.667V229.333C281 228.597 281.597 228 282.333 228H303.667ZM306.037 234.411L307.923 236.296L297.552 246.667L295.664 246.664L295.667 244.781L306.037 234.411V234.411ZM297.667 233.333C298.771 233.333 299.667 234.229 299.667 235.333C299.667 236.437 298.771 237.333 297.667 237.333C296.563 237.333 295.667 236.437 295.667 235.333C295.667 234.229 296.563 233.333 297.667 233.333Z" fill="#14151A"/>
<path d="M278.918 313V295.545H285.139C286.497 295.545 287.622 295.793 288.514 296.287C289.406 296.781 290.074 297.457 290.517 298.315C290.96 299.168 291.182 300.128 291.182 301.196C291.182 302.27 290.957 303.236 290.509 304.094C290.065 304.946 289.395 305.622 288.497 306.122C287.605 306.616 286.483 306.864 285.131 306.864H280.852V304.631H284.892C285.75 304.631 286.446 304.483 286.98 304.188C287.514 303.886 287.906 303.477 288.156 302.96C288.406 302.443 288.531 301.855 288.531 301.196C288.531 300.537 288.406 299.952 288.156 299.44C287.906 298.929 287.511 298.528 286.972 298.239C286.438 297.949 285.733 297.804 284.858 297.804H281.551V313H278.918ZM293.765 313V299.909H296.313V313H293.765ZM295.052 297.889C294.608 297.889 294.228 297.741 293.91 297.446C293.597 297.145 293.441 296.787 293.441 296.372C293.441 295.952 293.597 295.594 293.91 295.298C294.228 294.997 294.608 294.847 295.052 294.847C295.495 294.847 295.873 294.997 296.185 295.298C296.503 295.594 296.662 295.952 296.662 296.372C296.662 296.787 296.503 297.145 296.185 297.446C295.873 297.741 295.495 297.889 295.052 297.889ZM301.989 305.227V313H299.441V299.909H301.887V302.04H302.049C302.35 301.347 302.822 300.79 303.464 300.369C304.112 299.949 304.927 299.739 305.91 299.739C306.802 299.739 307.583 299.926 308.254 300.301C308.924 300.67 309.444 301.222 309.813 301.955C310.183 302.687 310.367 303.594 310.367 304.673V313H307.819V304.98C307.819 304.031 307.572 303.29 307.078 302.756C306.583 302.216 305.904 301.946 305.041 301.946C304.45 301.946 303.924 302.074 303.464 302.33C303.009 302.585 302.649 302.96 302.382 303.455C302.12 303.943 301.989 304.534 301.989 305.227ZM319.596 299.909V301.955H312.445V299.909H319.596ZM314.363 296.773H316.911V309.156C316.911 309.651 316.985 310.023 317.133 310.273C317.28 310.517 317.471 310.685 317.704 310.776C317.942 310.861 318.201 310.903 318.479 310.903C318.684 310.903 318.863 310.889 319.016 310.861C319.17 310.832 319.289 310.81 319.374 310.793L319.834 312.898C319.687 312.955 319.476 313.011 319.204 313.068C318.931 313.131 318.59 313.165 318.181 313.17C317.511 313.182 316.886 313.062 316.306 312.812C315.726 312.562 315.258 312.176 314.9 311.653C314.542 311.131 314.363 310.474 314.363 309.685V296.773ZM330.407 307.571V299.909H332.964V313H330.458V310.733H330.322C330.021 311.432 329.538 312.014 328.873 312.48C328.214 312.94 327.393 313.17 326.41 313.17C325.569 313.17 324.825 312.986 324.177 312.616C323.535 312.241 323.029 311.688 322.66 310.955C322.296 310.222 322.115 309.315 322.115 308.236V299.909H324.663V307.929C324.663 308.821 324.91 309.531 325.404 310.06C325.899 310.588 326.541 310.852 327.331 310.852C327.808 310.852 328.282 310.733 328.754 310.494C329.231 310.256 329.626 309.895 329.938 309.412C330.257 308.929 330.413 308.315 330.407 307.571ZM336.088 313V299.909H338.551V301.989H338.688C338.926 301.284 339.347 300.73 339.949 300.327C340.557 299.918 341.244 299.713 342.011 299.713C342.17 299.713 342.358 299.719 342.574 299.73C342.795 299.741 342.969 299.756 343.094 299.773V302.21C342.991 302.182 342.81 302.151 342.548 302.116C342.287 302.077 342.026 302.057 341.764 302.057C341.162 302.057 340.625 302.185 340.153 302.44C339.688 302.69 339.318 303.04 339.045 303.489C338.773 303.932 338.636 304.437 338.636 305.006V313H336.088ZM348.691 313.29C347.862 313.29 347.112 313.136 346.441 312.83C345.771 312.517 345.24 312.065 344.848 311.474C344.461 310.884 344.268 310.159 344.268 309.301C344.268 308.562 344.41 307.955 344.694 307.477C344.978 307 345.362 306.622 345.845 306.344C346.328 306.065 346.868 305.855 347.464 305.713C348.061 305.571 348.669 305.463 349.288 305.389C350.072 305.298 350.709 305.224 351.197 305.168C351.686 305.105 352.041 305.006 352.262 304.869C352.484 304.733 352.595 304.511 352.595 304.205V304.145C352.595 303.401 352.385 302.824 351.964 302.415C351.549 302.006 350.93 301.801 350.106 301.801C349.248 301.801 348.572 301.991 348.078 302.372C347.589 302.747 347.251 303.165 347.064 303.625L344.669 303.08C344.953 302.284 345.368 301.642 345.913 301.153C346.464 300.659 347.098 300.301 347.814 300.08C348.53 299.852 349.282 299.739 350.072 299.739C350.595 299.739 351.149 299.801 351.734 299.926C352.325 300.045 352.876 300.267 353.387 300.591C353.905 300.915 354.328 301.378 354.657 301.98C354.987 302.577 355.152 303.352 355.152 304.307V313H352.663V311.21H352.561C352.396 311.54 352.149 311.864 351.819 312.182C351.49 312.5 351.066 312.764 350.549 312.974C350.032 313.185 349.413 313.29 348.691 313.29ZM349.245 311.244C349.95 311.244 350.552 311.105 351.052 310.827C351.558 310.548 351.941 310.185 352.203 309.736C352.47 309.281 352.603 308.795 352.603 308.278V306.591C352.512 306.682 352.336 306.767 352.075 306.847C351.819 306.92 351.527 306.986 351.197 307.043C350.868 307.094 350.547 307.142 350.234 307.188C349.922 307.227 349.66 307.261 349.45 307.29C348.956 307.352 348.504 307.457 348.095 307.605C347.691 307.753 347.368 307.966 347.123 308.244C346.885 308.517 346.765 308.881 346.765 309.335C346.765 309.966 346.998 310.443 347.464 310.767C347.93 311.085 348.524 311.244 349.245 311.244ZM369.428 310.068V298.545H371.721V310.068H369.428ZM364.817 305.449V303.165H376.34V305.449H364.817ZM385.377 297.812V295.545H398.886V297.812H393.44V313H390.815V297.812H385.377ZM401.366 313V299.909H403.914V313H401.366ZM402.653 297.889C402.21 297.889 401.829 297.741 401.511 297.446C401.199 297.145 401.042 296.787 401.042 296.372C401.042 295.952 401.199 295.594 401.511 295.298C401.829 294.997 402.21 294.847 402.653 294.847C403.096 294.847 403.474 294.997 403.787 295.298C404.105 295.594 404.264 295.952 404.264 296.372C404.264 296.787 404.105 297.145 403.787 297.446C403.474 297.741 403.096 297.889 402.653 297.889ZM407.043 317.909V299.909H409.531V302.031H409.744C409.892 301.759 410.105 301.443 410.384 301.085C410.662 300.727 411.048 300.415 411.543 300.148C412.037 299.875 412.69 299.739 413.503 299.739C414.56 299.739 415.503 300.006 416.333 300.54C417.162 301.074 417.813 301.844 418.284 302.849C418.762 303.855 419 305.065 419 306.48C419 307.895 418.764 309.108 418.293 310.119C417.821 311.125 417.173 311.901 416.35 312.446C415.526 312.986 414.585 313.256 413.529 313.256C412.733 313.256 412.083 313.122 411.577 312.855C411.077 312.588 410.685 312.276 410.401 311.918C410.117 311.56 409.898 311.241 409.744 310.963H409.591V317.909H407.043ZM409.54 306.455C409.54 307.375 409.673 308.182 409.94 308.875C410.208 309.568 410.594 310.111 411.1 310.503C411.605 310.889 412.225 311.082 412.958 311.082C413.719 311.082 414.355 310.881 414.867 310.477C415.378 310.068 415.764 309.514 416.026 308.815C416.293 308.116 416.426 307.33 416.426 306.455C416.426 305.591 416.296 304.815 416.034 304.128C415.779 303.44 415.392 302.898 414.875 302.5C414.364 302.102 413.725 301.903 412.958 301.903C412.219 301.903 411.594 302.094 411.083 302.474C410.577 302.855 410.193 303.386 409.932 304.068C409.671 304.75 409.54 305.545 409.54 306.455ZM419.938 297.812V295.545H433.447V297.812H428.001V313H425.376V297.812H419.938ZM437.956 313.29C437.126 313.29 436.376 313.136 435.706 312.83C435.035 312.517 434.504 312.065 434.112 311.474C433.725 310.884 433.532 310.159 433.532 309.301C433.532 308.562 433.674 307.955 433.958 307.477C434.242 307 434.626 306.622 435.109 306.344C435.592 306.065 436.132 305.855 436.728 305.713C437.325 305.571 437.933 305.463 438.552 305.389C439.336 305.298 439.973 305.224 440.461 305.168C440.95 305.105 441.305 305.006 441.527 304.869C441.748 304.733 441.859 304.511 441.859 304.205V304.145C441.859 303.401 441.649 302.824 441.228 302.415C440.813 302.006 440.194 301.801 439.37 301.801C438.512 301.801 437.836 301.991 437.342 302.372C436.853 302.747 436.515 303.165 436.328 303.625L433.933 303.08C434.217 302.284 434.632 301.642 435.177 301.153C435.728 300.659 436.362 300.301 437.078 300.08C437.794 299.852 438.546 299.739 439.336 299.739C439.859 299.739 440.413 299.801 440.998 299.926C441.589 300.045 442.14 300.267 442.652 300.591C443.169 300.915 443.592 301.378 443.921 301.98C444.251 302.577 444.416 303.352 444.416 304.307V313H441.927V311.21H441.825C441.66 311.54 441.413 311.864 441.083 312.182C440.754 312.5 440.331 312.764 439.813 312.974C439.296 313.185 438.677 313.29 437.956 313.29ZM438.51 311.244C439.214 311.244 439.816 311.105 440.316 310.827C440.822 310.548 441.206 310.185 441.467 309.736C441.734 309.281 441.867 308.795 441.867 308.278V306.591C441.777 306.682 441.6 306.767 441.339 306.847C441.083 306.92 440.791 306.986 440.461 307.043C440.132 307.094 439.811 307.142 439.498 307.188C439.186 307.227 438.924 307.261 438.714 307.29C438.22 307.352 437.768 307.457 437.359 307.605C436.956 307.753 436.632 307.966 436.387 308.244C436.149 308.517 436.029 308.881 436.029 309.335C436.029 309.966 436.262 310.443 436.728 310.767C437.194 311.085 437.788 311.244 438.51 311.244ZM447.51 317.909V299.909H449.999V302.031H450.212C450.359 301.759 450.572 301.443 450.851 301.085C451.129 300.727 451.516 300.415 452.01 300.148C452.504 299.875 453.158 299.739 453.97 299.739C455.027 299.739 455.97 300.006 456.8 300.54C457.629 301.074 458.28 301.844 458.751 302.849C459.229 303.855 459.467 305.065 459.467 306.48C459.467 307.895 459.232 309.108 458.76 310.119C458.288 311.125 457.641 311.901 456.817 312.446C455.993 312.986 455.053 313.256 453.996 313.256C453.2 313.256 452.55 313.122 452.044 312.855C451.544 312.588 451.152 312.276 450.868 311.918C450.584 311.56 450.365 311.241 450.212 310.963H450.058V317.909H447.51ZM450.007 306.455C450.007 307.375 450.141 308.182 450.408 308.875C450.675 309.568 451.061 310.111 451.567 310.503C452.072 310.889 452.692 311.082 453.425 311.082C454.186 311.082 454.822 310.881 455.334 310.477C455.845 310.068 456.232 309.514 456.493 308.815C456.76 308.116 456.893 307.33 456.893 306.455C456.893 305.591 456.763 304.815 456.501 304.128C456.246 303.44 455.859 302.898 455.342 302.5C454.831 302.102 454.192 301.903 453.425 301.903C452.686 301.903 452.061 302.094 451.55 302.474C451.044 302.855 450.661 303.386 450.399 304.068C450.138 304.75 450.007 305.545 450.007 306.455ZM281.551 327.545V345H278.918V327.545H281.551ZM287.43 337.227V345H284.882V331.909H287.328V334.04H287.49C287.791 333.347 288.262 332.79 288.905 332.369C289.552 331.949 290.368 331.739 291.351 331.739C292.243 331.739 293.024 331.926 293.694 332.301C294.365 332.67 294.885 333.222 295.254 333.955C295.623 334.687 295.808 335.594 295.808 336.673V345H293.26V336.98C293.26 336.031 293.013 335.29 292.518 334.756C292.024 334.216 291.345 333.946 290.481 333.946C289.89 333.946 289.365 334.074 288.905 334.33C288.45 334.585 288.089 334.96 287.822 335.455C287.561 335.943 287.43 336.534 287.43 337.227ZM305.036 331.909V333.955H297.886V331.909H305.036ZM299.803 328.773H302.352V341.156C302.352 341.651 302.426 342.023 302.573 342.273C302.721 342.517 302.911 342.685 303.144 342.776C303.383 342.861 303.641 342.903 303.92 342.903C304.124 342.903 304.303 342.889 304.457 342.861C304.61 342.832 304.73 342.81 304.815 342.793L305.275 344.898C305.127 344.955 304.917 345.011 304.644 345.068C304.372 345.131 304.031 345.165 303.622 345.17C302.951 345.182 302.326 345.062 301.747 344.812C301.167 344.562 300.698 344.176 300.34 343.653C299.982 343.131 299.803 342.474 299.803 341.685V328.773ZM313.057 345.264C311.767 345.264 310.656 344.989 309.724 344.438C308.798 343.881 308.082 343.099 307.577 342.094C307.077 341.082 306.827 339.898 306.827 338.54C306.827 337.199 307.077 336.017 307.577 334.994C308.082 333.972 308.787 333.173 309.69 332.599C310.599 332.026 311.662 331.739 312.878 331.739C313.616 331.739 314.332 331.861 315.025 332.105C315.719 332.349 316.341 332.733 316.892 333.256C317.443 333.778 317.878 334.457 318.196 335.293C318.514 336.122 318.673 337.131 318.673 338.318V339.222H308.267V337.312H316.176C316.176 336.642 316.04 336.048 315.767 335.531C315.494 335.009 315.111 334.597 314.616 334.295C314.128 333.994 313.554 333.844 312.895 333.844C312.179 333.844 311.554 334.02 311.02 334.372C310.491 334.719 310.082 335.173 309.792 335.736C309.508 336.293 309.366 336.898 309.366 337.551V339.043C309.366 339.918 309.52 340.662 309.827 341.276C310.139 341.889 310.574 342.358 311.131 342.682C311.687 343 312.338 343.159 313.082 343.159C313.565 343.159 314.006 343.091 314.403 342.955C314.801 342.812 315.145 342.602 315.435 342.324C315.724 342.045 315.946 341.702 316.099 341.293L318.511 341.727C318.318 342.437 317.971 343.06 317.471 343.594C316.977 344.122 316.355 344.534 315.605 344.83C314.861 345.119 314.011 345.264 313.057 345.264ZM326.689 350.182C325.649 350.182 324.755 350.045 324.005 349.773C323.26 349.5 322.652 349.139 322.181 348.69C321.709 348.241 321.357 347.75 321.124 347.216L323.314 346.312C323.468 346.562 323.672 346.827 323.928 347.105C324.189 347.389 324.541 347.631 324.985 347.83C325.434 348.028 326.01 348.128 326.715 348.128C327.681 348.128 328.479 347.892 329.11 347.42C329.74 346.955 330.056 346.21 330.056 345.188V342.614H329.894C329.74 342.892 329.519 343.202 329.229 343.543C328.945 343.884 328.553 344.179 328.053 344.429C327.553 344.679 326.902 344.804 326.101 344.804C325.067 344.804 324.135 344.562 323.306 344.08C322.482 343.591 321.828 342.872 321.345 341.923C320.868 340.969 320.63 339.795 320.63 338.403C320.63 337.011 320.865 335.818 321.337 334.824C321.814 333.83 322.468 333.068 323.297 332.54C324.127 332.006 325.067 331.739 326.118 331.739C326.931 331.739 327.587 331.875 328.087 332.148C328.587 332.415 328.976 332.727 329.255 333.085C329.539 333.443 329.757 333.759 329.911 334.031H330.098V331.909H332.595V345.29C332.595 346.415 332.334 347.338 331.811 348.06C331.289 348.781 330.581 349.315 329.689 349.662C328.803 350.009 327.803 350.182 326.689 350.182ZM326.664 342.69C327.397 342.69 328.016 342.52 328.522 342.179C329.033 341.832 329.419 341.338 329.681 340.696C329.948 340.048 330.081 339.273 330.081 338.369C330.081 337.489 329.951 336.713 329.689 336.043C329.428 335.372 329.044 334.849 328.539 334.474C328.033 334.094 327.408 333.903 326.664 333.903C325.897 333.903 325.257 334.102 324.746 334.5C324.235 334.892 323.848 335.426 323.587 336.102C323.331 336.778 323.203 337.534 323.203 338.369C323.203 339.227 323.334 339.98 323.595 340.628C323.857 341.276 324.243 341.781 324.755 342.145C325.272 342.509 325.908 342.69 326.664 342.69ZM335.713 345V331.909H338.176V333.989H338.312C338.551 333.284 338.972 332.73 339.574 332.327C340.182 331.918 340.869 331.713 341.636 331.713C341.795 331.713 341.983 331.719 342.199 331.73C342.42 331.741 342.594 331.756 342.719 331.773V334.21C342.616 334.182 342.435 334.151 342.173 334.116C341.912 334.077 341.651 334.057 341.389 334.057C340.787 334.057 340.25 334.185 339.778 334.44C339.313 334.69 338.943 335.04 338.67 335.489C338.398 335.932 338.261 336.437 338.261 337.006V345H335.713ZM348.316 345.29C347.487 345.29 346.737 345.136 346.066 344.83C345.396 344.517 344.865 344.065 344.473 343.474C344.086 342.884 343.893 342.159 343.893 341.301C343.893 340.562 344.035 339.955 344.319 339.477C344.603 339 344.987 338.622 345.47 338.344C345.953 338.065 346.493 337.855 347.089 337.713C347.686 337.571 348.294 337.463 348.913 337.389C349.697 337.298 350.334 337.224 350.822 337.168C351.311 337.105 351.666 337.006 351.887 336.869C352.109 336.733 352.22 336.511 352.22 336.205V336.145C352.22 335.401 352.01 334.824 351.589 334.415C351.174 334.006 350.555 333.801 349.731 333.801C348.873 333.801 348.197 333.991 347.703 334.372C347.214 334.747 346.876 335.165 346.689 335.625L344.294 335.08C344.578 334.284 344.993 333.642 345.538 333.153C346.089 332.659 346.723 332.301 347.439 332.08C348.155 331.852 348.907 331.739 349.697 331.739C350.22 331.739 350.774 331.801 351.359 331.926C351.95 332.045 352.501 332.267 353.012 332.591C353.53 332.915 353.953 333.378 354.282 333.98C354.612 334.577 354.777 335.352 354.777 336.307V345H352.288V343.21H352.186C352.021 343.54 351.774 343.864 351.444 344.182C351.115 344.5 350.691 344.764 350.174 344.974C349.657 345.185 349.038 345.29 348.316 345.29ZM348.87 343.244C349.575 343.244 350.177 343.105 350.677 342.827C351.183 342.548 351.566 342.185 351.828 341.736C352.095 341.281 352.228 340.795 352.228 340.278V338.591C352.137 338.682 351.961 338.767 351.7 338.847C351.444 338.92 351.152 338.986 350.822 339.043C350.493 339.094 350.172 339.142 349.859 339.188C349.547 339.227 349.285 339.261 349.075 339.29C348.581 339.352 348.129 339.457 347.72 339.605C347.316 339.753 346.993 339.966 346.748 340.244C346.51 340.517 346.39 340.881 346.39 341.335C346.39 341.966 346.623 342.443 347.089 342.767C347.555 343.085 348.149 343.244 348.87 343.244ZM363.982 331.909V333.955H356.831V331.909H363.982ZM358.749 328.773H361.297V341.156C361.297 341.651 361.371 342.023 361.519 342.273C361.666 342.517 361.857 342.685 362.09 342.776C362.328 342.861 362.587 342.903 362.865 342.903C363.07 342.903 363.249 342.889 363.402 342.861C363.556 342.832 363.675 342.81 363.76 342.793L364.22 344.898C364.073 344.955 363.862 345.011 363.59 345.068C363.317 345.131 362.976 345.165 362.567 345.17C361.896 345.182 361.271 345.062 360.692 344.812C360.112 344.562 359.644 344.176 359.286 343.653C358.928 343.131 358.749 342.474 358.749 341.685V328.773ZM366.501 345V331.909H369.049V345H366.501ZM367.787 329.889C367.344 329.889 366.964 329.741 366.645 329.446C366.333 329.145 366.177 328.787 366.177 328.372C366.177 327.952 366.333 327.594 366.645 327.298C366.964 326.997 367.344 326.847 367.787 326.847C368.231 326.847 368.609 326.997 368.921 327.298C369.239 327.594 369.398 327.952 369.398 328.372C369.398 328.787 369.239 329.145 368.921 329.446C368.609 329.741 368.231 329.889 367.787 329.889ZM377.691 345.264C376.464 345.264 375.393 344.983 374.478 344.42C373.563 343.858 372.853 343.071 372.348 342.06C371.842 341.048 371.589 339.866 371.589 338.514C371.589 337.156 371.842 335.969 372.348 334.952C372.853 333.935 373.563 333.145 374.478 332.582C375.393 332.02 376.464 331.739 377.691 331.739C378.919 331.739 379.99 332.02 380.904 332.582C381.819 333.145 382.529 333.935 383.035 334.952C383.541 335.969 383.794 337.156 383.794 338.514C383.794 339.866 383.541 341.048 383.035 342.06C382.529 343.071 381.819 343.858 380.904 344.42C379.99 344.983 378.919 345.264 377.691 345.264ZM377.7 343.125C378.495 343.125 379.154 342.915 379.677 342.494C380.2 342.074 380.586 341.514 380.836 340.815C381.092 340.116 381.22 339.347 381.22 338.506C381.22 337.67 381.092 336.903 380.836 336.205C380.586 335.5 380.2 334.935 379.677 334.509C379.154 334.082 378.495 333.869 377.7 333.869C376.899 333.869 376.234 334.082 375.706 334.509C375.183 334.935 374.794 335.5 374.538 336.205C374.288 336.903 374.163 337.67 374.163 338.506C374.163 339.347 374.288 340.116 374.538 340.815C374.794 341.514 375.183 342.074 375.706 342.494C376.234 342.915 376.899 343.125 377.7 343.125ZM388.886 337.227V345H386.338V331.909H388.784V334.04H388.946C389.247 333.347 389.719 332.79 390.361 332.369C391.009 331.949 391.824 331.739 392.807 331.739C393.699 331.739 394.48 331.926 395.151 332.301C395.821 332.67 396.341 333.222 396.71 333.955C397.08 334.687 397.264 335.594 397.264 336.673V345H394.716V336.98C394.716 336.031 394.469 335.29 393.974 334.756C393.48 334.216 392.801 333.946 391.938 333.946C391.347 333.946 390.821 334.074 390.361 334.33C389.906 334.585 389.545 334.96 389.278 335.455C389.017 335.943 388.886 336.534 388.886 337.227Z" fill="#14151A"/>
<path d="M278.409 386V374.364H279.818V379.545H286.023V374.364H287.432V386H286.023V380.795H279.818V386H278.409ZM293.416 386.182C292.629 386.182 291.937 385.994 291.343 385.619C290.752 385.244 290.29 384.72 289.956 384.045C289.627 383.371 289.462 382.583 289.462 381.682C289.462 380.773 289.627 379.979 289.956 379.301C290.29 378.623 290.752 378.097 291.343 377.722C291.937 377.347 292.629 377.159 293.416 377.159C294.204 377.159 294.894 377.347 295.485 377.722C296.079 378.097 296.541 378.623 296.871 379.301C297.204 379.979 297.371 380.773 297.371 381.682C297.371 382.583 297.204 383.371 296.871 384.045C296.541 384.72 296.079 385.244 295.485 385.619C294.894 385.994 294.204 386.182 293.416 386.182ZM293.416 384.977C294.015 384.977 294.507 384.824 294.894 384.517C295.28 384.21 295.566 383.807 295.752 383.307C295.937 382.807 296.03 382.265 296.03 381.682C296.03 381.098 295.937 380.555 295.752 380.051C295.566 379.547 295.28 379.14 294.894 378.83C294.507 378.519 294.015 378.364 293.416 378.364C292.818 378.364 292.326 378.519 291.939 378.83C291.553 379.14 291.267 379.547 291.081 380.051C290.896 380.555 290.803 381.098 290.803 381.682C290.803 382.265 290.896 382.807 291.081 383.307C291.267 383.807 291.553 384.21 291.939 384.517C292.326 384.824 292.818 384.977 293.416 384.977ZM300.898 386L298.239 377.273H299.648L301.535 383.955H301.626L303.489 377.273H304.921L306.762 383.932H306.853L308.739 377.273H310.148L307.489 386H306.171L304.262 379.295H304.126L302.216 386H300.898ZM319.566 386.182C318.748 386.182 318.044 385.989 317.453 385.602C316.862 385.216 316.407 384.684 316.089 384.006C315.771 383.328 315.612 382.553 315.612 381.682C315.612 380.795 315.775 380.013 316.101 379.335C316.43 378.653 316.888 378.121 317.476 377.739C318.066 377.352 318.756 377.159 319.544 377.159C320.157 377.159 320.71 377.273 321.203 377.5C321.695 377.727 322.099 378.045 322.413 378.455C322.727 378.864 322.923 379.341 322.998 379.886H321.657C321.555 379.489 321.328 379.136 320.976 378.83C320.627 378.519 320.157 378.364 319.566 378.364C319.044 378.364 318.585 378.5 318.191 378.773C317.801 379.042 317.496 379.422 317.277 379.915C317.061 380.403 316.953 380.977 316.953 381.636C316.953 382.311 317.059 382.898 317.271 383.398C317.487 383.898 317.79 384.286 318.18 384.562C318.574 384.839 319.036 384.977 319.566 384.977C319.915 384.977 320.231 384.917 320.515 384.795C320.799 384.674 321.04 384.5 321.237 384.273C321.434 384.045 321.574 383.773 321.657 383.455H322.998C322.923 383.97 322.735 384.434 322.436 384.847C322.14 385.256 321.748 385.581 321.26 385.824C320.775 386.062 320.21 386.182 319.566 386.182ZM327.327 386.205C326.774 386.205 326.272 386.1 325.821 385.892C325.37 385.68 325.012 385.375 324.747 384.977C324.482 384.576 324.349 384.091 324.349 383.523C324.349 383.023 324.448 382.617 324.645 382.307C324.842 381.992 325.105 381.746 325.435 381.568C325.764 381.39 326.128 381.258 326.526 381.17C326.927 381.08 327.33 381.008 327.736 380.955C328.266 380.886 328.696 380.835 329.026 380.801C329.359 380.763 329.601 380.701 329.753 380.614C329.908 380.527 329.986 380.375 329.986 380.159V380.114C329.986 379.553 329.832 379.117 329.526 378.807C329.223 378.496 328.762 378.341 328.145 378.341C327.505 378.341 327.003 378.481 326.639 378.761C326.276 379.042 326.02 379.341 325.872 379.659L324.599 379.205C324.827 378.674 325.13 378.261 325.509 377.966C325.891 377.667 326.308 377.458 326.759 377.341C327.213 377.22 327.66 377.159 328.099 377.159C328.38 377.159 328.702 377.193 329.065 377.261C329.433 377.326 329.787 377.46 330.128 377.665C330.473 377.869 330.759 378.178 330.986 378.591C331.213 379.004 331.327 379.557 331.327 380.25V386H329.986V384.818H329.918C329.827 385.008 329.675 385.21 329.463 385.426C329.251 385.642 328.969 385.826 328.616 385.977C328.264 386.129 327.834 386.205 327.327 386.205ZM327.531 385C328.062 385 328.509 384.896 328.872 384.688C329.24 384.479 329.516 384.21 329.702 383.881C329.891 383.551 329.986 383.205 329.986 382.841V381.614C329.929 381.682 329.804 381.744 329.611 381.801C329.421 381.854 329.202 381.902 328.952 381.943C328.705 381.981 328.465 382.015 328.23 382.045C327.999 382.072 327.812 382.095 327.668 382.114C327.319 382.159 326.993 382.233 326.69 382.335C326.391 382.434 326.149 382.583 325.963 382.784C325.781 382.981 325.69 383.25 325.69 383.591C325.69 384.057 325.863 384.409 326.207 384.648C326.556 384.883 326.997 385 327.531 385ZM334.915 380.75V386H333.574V377.273H334.87V378.636H334.983C335.188 378.193 335.498 377.837 335.915 377.568C336.332 377.295 336.87 377.159 337.529 377.159C338.12 377.159 338.637 377.28 339.08 377.523C339.523 377.761 339.868 378.125 340.114 378.614C340.36 379.098 340.483 379.712 340.483 380.455V386H339.142V380.545C339.142 379.86 338.964 379.326 338.608 378.943C338.252 378.557 337.764 378.364 337.142 378.364C336.714 378.364 336.332 378.456 335.995 378.642C335.661 378.828 335.398 379.098 335.205 379.455C335.012 379.811 334.915 380.242 334.915 380.75ZM352.534 382.432V377.273H353.874V386H352.534V384.523H352.443C352.238 384.966 351.92 385.343 351.488 385.653C351.056 385.96 350.511 386.114 349.852 386.114C349.306 386.114 348.821 385.994 348.397 385.756C347.973 385.513 347.64 385.15 347.397 384.665C347.155 384.176 347.034 383.561 347.034 382.818V377.273H348.374V382.727C348.374 383.364 348.552 383.871 348.909 384.25C349.268 384.629 349.727 384.818 350.284 384.818C350.617 384.818 350.956 384.733 351.301 384.562C351.649 384.392 351.941 384.131 352.176 383.778C352.414 383.426 352.534 382.977 352.534 382.432ZM362.312 379.227L361.108 379.568C361.032 379.367 360.92 379.172 360.772 378.983C360.629 378.79 360.432 378.631 360.182 378.506C359.932 378.381 359.611 378.318 359.221 378.318C358.687 378.318 358.242 378.441 357.886 378.688C357.534 378.93 357.358 379.239 357.358 379.614C357.358 379.947 357.479 380.21 357.721 380.403C357.964 380.597 358.343 380.758 358.858 380.886L360.153 381.205C360.933 381.394 361.515 381.684 361.897 382.074C362.28 382.46 362.471 382.958 362.471 383.568C362.471 384.068 362.327 384.515 362.039 384.909C361.755 385.303 361.358 385.614 360.846 385.841C360.335 386.068 359.74 386.182 359.062 386.182C358.172 386.182 357.435 385.989 356.852 385.602C356.269 385.216 355.899 384.652 355.744 383.909L357.017 383.591C357.138 384.061 357.367 384.413 357.704 384.648C358.045 384.883 358.49 385 359.039 385C359.664 385 360.161 384.867 360.528 384.602C360.899 384.333 361.085 384.011 361.085 383.636C361.085 383.333 360.979 383.08 360.767 382.875C360.555 382.667 360.229 382.511 359.789 382.409L358.335 382.068C357.536 381.879 356.949 381.585 356.574 381.188C356.202 380.786 356.017 380.284 356.017 379.682C356.017 379.189 356.155 378.754 356.432 378.375C356.712 377.996 357.093 377.699 357.574 377.483C358.058 377.267 358.608 377.159 359.221 377.159C360.085 377.159 360.763 377.348 361.255 377.727C361.752 378.106 362.104 378.606 362.312 379.227ZM367.949 386.182C367.108 386.182 366.383 385.996 365.773 385.625C365.167 385.25 364.699 384.727 364.369 384.057C364.044 383.383 363.881 382.598 363.881 381.705C363.881 380.811 364.044 380.023 364.369 379.341C364.699 378.655 365.157 378.121 365.744 377.739C366.335 377.352 367.025 377.159 367.812 377.159C368.267 377.159 368.716 377.235 369.159 377.386C369.602 377.538 370.006 377.784 370.369 378.125C370.733 378.462 371.023 378.909 371.239 379.466C371.455 380.023 371.562 380.708 371.562 381.523V382.091H364.835V380.932H370.199C370.199 380.439 370.1 380 369.903 379.614C369.71 379.227 369.434 378.922 369.074 378.699C368.718 378.475 368.297 378.364 367.812 378.364C367.278 378.364 366.816 378.496 366.426 378.761C366.04 379.023 365.742 379.364 365.534 379.784C365.326 380.205 365.222 380.655 365.222 381.136V381.909C365.222 382.568 365.335 383.127 365.562 383.585C365.794 384.04 366.114 384.386 366.523 384.625C366.932 384.86 367.407 384.977 367.949 384.977C368.301 384.977 368.619 384.928 368.903 384.83C369.191 384.727 369.439 384.576 369.648 384.375C369.856 384.17 370.017 383.917 370.131 383.614L371.426 383.977C371.29 384.417 371.061 384.803 370.739 385.136C370.417 385.466 370.019 385.723 369.545 385.909C369.072 386.091 368.54 386.182 367.949 386.182ZM373.402 386V377.273H374.698V378.591H374.789C374.948 378.159 375.236 377.809 375.652 377.54C376.069 377.271 376.539 377.136 377.061 377.136C377.16 377.136 377.283 377.138 377.431 377.142C377.578 377.146 377.69 377.152 377.766 377.159V378.523C377.72 378.511 377.616 378.494 377.453 378.472C377.294 378.445 377.126 378.432 376.948 378.432C376.523 378.432 376.145 378.521 375.811 378.699C375.482 378.873 375.22 379.116 375.027 379.426C374.838 379.733 374.743 380.083 374.743 380.477V386H373.402ZM385.337 379.227L384.133 379.568C384.057 379.367 383.945 379.172 383.797 378.983C383.654 378.79 383.457 378.631 383.207 378.506C382.957 378.381 382.636 378.318 382.246 378.318C381.712 378.318 381.267 378.441 380.911 378.688C380.559 378.93 380.383 379.239 380.383 379.614C380.383 379.947 380.504 380.21 380.746 380.403C380.989 380.597 381.368 380.758 381.883 380.886L383.178 381.205C383.958 381.394 384.54 381.684 384.922 382.074C385.305 382.46 385.496 382.958 385.496 383.568C385.496 384.068 385.352 384.515 385.064 384.909C384.78 385.303 384.383 385.614 383.871 385.841C383.36 386.068 382.765 386.182 382.087 386.182C381.197 386.182 380.46 385.989 379.877 385.602C379.294 385.216 378.924 384.652 378.769 383.909L380.042 383.591C380.163 384.061 380.392 384.413 380.729 384.648C381.07 384.883 381.515 385 382.064 385C382.689 385 383.186 384.867 383.553 384.602C383.924 384.333 384.11 384.011 384.11 383.636C384.11 383.333 384.004 383.08 383.792 382.875C383.58 382.667 383.254 382.511 382.814 382.409L381.36 382.068C380.561 381.879 379.974 381.585 379.599 381.188C379.227 380.786 379.042 380.284 379.042 379.682C379.042 379.189 379.18 378.754 379.457 378.375C379.737 377.996 380.118 377.699 380.599 377.483C381.083 377.267 381.633 377.159 382.246 377.159C383.11 377.159 383.788 377.348 384.28 377.727C384.777 378.106 385.129 378.606 385.337 379.227ZM393.592 386L390.933 377.273H392.342L394.228 383.955H394.319L396.183 377.273H397.615L399.456 383.932H399.547L401.433 377.273H402.842L400.183 386H398.865L396.956 379.295H396.819L394.91 386H393.592ZM404.415 386V377.273H405.71V378.591H405.801C405.96 378.159 406.248 377.809 406.665 377.54C407.081 377.271 407.551 377.136 408.074 377.136C408.172 377.136 408.295 377.138 408.443 377.142C408.591 377.146 408.703 377.152 408.778 377.159V378.523C408.733 378.511 408.629 378.494 408.466 378.472C408.307 378.445 408.138 378.432 407.96 378.432C407.536 378.432 407.157 378.521 406.824 378.699C406.494 378.873 406.233 379.116 406.04 379.426C405.85 379.733 405.756 380.083 405.756 380.477V386H404.415ZM410.168 386V377.273H411.509V386H410.168ZM410.85 375.818C410.588 375.818 410.363 375.729 410.174 375.551C409.988 375.373 409.895 375.159 409.895 374.909C409.895 374.659 409.988 374.445 410.174 374.267C410.363 374.089 410.588 374 410.85 374C411.111 374 411.335 374.089 411.52 374.267C411.71 374.445 411.804 374.659 411.804 374.909C411.804 375.159 411.71 375.373 411.52 375.551C411.335 375.729 411.111 375.818 410.85 375.818ZM417.56 377.273V378.409H413.038V377.273H417.56ZM414.356 375.182H415.697V383.5C415.697 383.879 415.752 384.163 415.861 384.352C415.975 384.538 416.119 384.663 416.293 384.727C416.471 384.788 416.659 384.818 416.856 384.818C417.003 384.818 417.125 384.811 417.219 384.795C417.314 384.777 417.39 384.761 417.447 384.75L417.719 385.955C417.628 385.989 417.502 386.023 417.339 386.057C417.176 386.095 416.969 386.114 416.719 386.114C416.341 386.114 415.969 386.032 415.606 385.869C415.246 385.706 414.947 385.458 414.708 385.125C414.473 384.792 414.356 384.371 414.356 383.864V375.182ZM422.943 386.182C422.102 386.182 421.376 385.996 420.766 385.625C420.16 385.25 419.693 384.727 419.363 384.057C419.037 383.383 418.874 382.598 418.874 381.705C418.874 380.811 419.037 380.023 419.363 379.341C419.693 378.655 420.151 378.121 420.738 377.739C421.329 377.352 422.018 377.159 422.806 377.159C423.261 377.159 423.71 377.235 424.153 377.386C424.596 377.538 424.999 377.784 425.363 378.125C425.727 378.462 426.016 378.909 426.232 379.466C426.448 380.023 426.556 380.708 426.556 381.523V382.091H419.829V380.932H425.193C425.193 380.439 425.094 380 424.897 379.614C424.704 379.227 424.427 378.922 424.068 378.699C423.712 378.475 423.291 378.364 422.806 378.364C422.272 378.364 421.81 378.496 421.42 378.761C421.034 379.023 420.736 379.364 420.528 379.784C420.32 380.205 420.215 380.655 420.215 381.136V381.909C420.215 382.568 420.329 383.127 420.556 383.585C420.787 384.04 421.107 384.386 421.516 384.625C421.926 384.86 422.401 384.977 422.943 384.977C423.295 384.977 423.613 384.928 423.897 384.83C424.185 384.727 424.433 384.576 424.641 384.375C424.85 384.17 425.011 383.917 425.124 383.614L426.42 383.977C426.284 384.417 426.054 384.803 425.732 385.136C425.41 385.466 425.013 385.723 424.539 385.909C424.066 386.091 423.534 386.182 422.943 386.182ZM436.241 386.182C435.423 386.182 434.719 385.989 434.128 385.602C433.537 385.216 433.082 384.684 432.764 384.006C432.446 383.328 432.287 382.553 432.287 381.682C432.287 380.795 432.45 380.013 432.776 379.335C433.105 378.653 433.563 378.121 434.151 377.739C434.741 377.352 435.431 377.159 436.219 377.159C436.832 377.159 437.385 377.273 437.878 377.5C438.37 377.727 438.774 378.045 439.088 378.455C439.402 378.864 439.598 379.341 439.673 379.886H438.332C438.23 379.489 438.003 379.136 437.651 378.83C437.302 378.519 436.832 378.364 436.241 378.364C435.719 378.364 435.26 378.5 434.866 378.773C434.476 379.042 434.171 379.422 433.952 379.915C433.736 380.403 433.628 380.977 433.628 381.636C433.628 382.311 433.734 382.898 433.946 383.398C434.162 383.898 434.465 384.286 434.855 384.562C435.249 384.839 435.711 384.977 436.241 384.977C436.59 384.977 436.906 384.917 437.19 384.795C437.474 384.674 437.715 384.5 437.912 384.273C438.109 384.045 438.249 383.773 438.332 383.455H439.673C439.598 383.97 439.41 384.434 439.111 384.847C438.815 385.256 438.423 385.581 437.935 385.824C437.45 386.062 436.885 386.182 436.241 386.182ZM444.979 386.182C444.191 386.182 443.5 385.994 442.905 385.619C442.314 385.244 441.852 384.72 441.519 384.045C441.189 383.371 441.024 382.583 441.024 381.682C441.024 380.773 441.189 379.979 441.519 379.301C441.852 378.623 442.314 378.097 442.905 377.722C443.5 377.347 444.191 377.159 444.979 377.159C445.767 377.159 446.456 377.347 447.047 377.722C447.642 378.097 448.104 378.623 448.434 379.301C448.767 379.979 448.934 380.773 448.934 381.682C448.934 382.583 448.767 383.371 448.434 384.045C448.104 384.72 447.642 385.244 447.047 385.619C446.456 385.994 445.767 386.182 444.979 386.182ZM444.979 384.977C445.577 384.977 446.07 384.824 446.456 384.517C446.843 384.21 447.129 383.807 447.314 383.307C447.5 382.807 447.593 382.265 447.593 381.682C447.593 381.098 447.5 380.555 447.314 380.051C447.129 379.547 446.843 379.14 446.456 378.83C446.07 378.519 445.577 378.364 444.979 378.364C444.38 378.364 443.888 378.519 443.502 378.83C443.115 379.14 442.829 379.547 442.644 380.051C442.458 380.555 442.365 381.098 442.365 381.682C442.365 382.265 442.458 382.807 442.644 383.307C442.829 383.807 443.115 384.21 443.502 384.517C443.888 384.824 444.38 384.977 444.979 384.977ZM452.121 380.75V386H450.78V377.273H452.076V378.636H452.189C452.394 378.193 452.705 377.837 453.121 377.568C453.538 377.295 454.076 377.159 454.735 377.159C455.326 377.159 455.843 377.28 456.286 377.523C456.729 377.761 457.074 378.125 457.32 378.614C457.566 379.098 457.689 379.712 457.689 380.455V386H456.349V380.545C456.349 379.86 456.171 379.326 455.814 378.943C455.458 378.557 454.97 378.364 454.349 378.364C453.921 378.364 453.538 378.456 453.201 378.642C452.868 378.828 452.604 379.098 452.411 379.455C452.218 379.811 452.121 380.242 452.121 380.75ZM463.735 377.273V378.409H459.212V377.273H463.735ZM460.531 375.182H461.872V383.5C461.872 383.879 461.927 384.163 462.036 384.352C462.15 384.538 462.294 384.663 462.468 384.727C462.646 384.788 462.834 384.818 463.031 384.818C463.178 384.818 463.3 384.811 463.394 384.795C463.489 384.777 463.565 384.761 463.622 384.75L463.894 385.955C463.803 385.989 463.677 386.023 463.514 386.057C463.351 386.095 463.144 386.114 462.894 386.114C462.516 386.114 462.144 386.032 461.781 385.869C461.421 385.706 461.122 385.458 460.883 385.125C460.648 384.792 460.531 384.371 460.531 383.864V375.182ZM469.118 386.182C468.277 386.182 467.551 385.996 466.941 385.625C466.335 385.25 465.868 384.727 465.538 384.057C465.212 383.383 465.049 382.598 465.049 381.705C465.049 380.811 465.212 380.023 465.538 379.341C465.868 378.655 466.326 378.121 466.913 377.739C467.504 377.352 468.193 377.159 468.981 377.159C469.436 377.159 469.885 377.235 470.328 377.386C470.771 377.538 471.174 377.784 471.538 378.125C471.902 378.462 472.191 378.909 472.407 379.466C472.623 380.023 472.731 380.708 472.731 381.523V382.091H466.004V380.932H471.368C471.368 380.439 471.269 380 471.072 379.614C470.879 379.227 470.602 378.922 470.243 378.699C469.887 378.475 469.466 378.364 468.981 378.364C468.447 378.364 467.985 378.496 467.595 378.761C467.209 379.023 466.911 379.364 466.703 379.784C466.495 380.205 466.39 380.655 466.39 381.136V381.909C466.39 382.568 466.504 383.127 466.731 383.585C466.962 384.04 467.282 384.386 467.691 384.625C468.101 384.86 468.576 384.977 469.118 384.977C469.47 384.977 469.788 384.928 470.072 384.83C470.36 384.727 470.608 384.576 470.816 384.375C471.025 384.17 471.186 383.917 471.299 383.614L472.595 383.977C472.459 384.417 472.229 384.803 471.907 385.136C471.585 385.466 471.188 385.723 470.714 385.909C470.241 386.091 469.709 386.182 469.118 386.182ZM475.912 380.75V386H474.571V377.273H475.866V378.636H475.98C476.185 378.193 476.495 377.837 476.912 377.568C477.329 377.295 477.866 377.159 478.526 377.159C479.116 377.159 479.634 377.28 480.077 377.523C480.52 377.761 480.865 378.125 481.111 378.614C481.357 379.098 481.48 379.712 481.48 380.455V386H480.139V380.545C480.139 379.86 479.961 379.326 479.605 378.943C479.249 378.557 478.76 378.364 478.139 378.364C477.711 378.364 477.329 378.456 476.991 378.642C476.658 378.828 476.395 379.098 476.202 379.455C476.009 379.811 475.912 380.242 475.912 380.75ZM487.526 377.273V378.409H483.003V377.273H487.526ZM484.321 375.182H485.662V383.5C485.662 383.879 485.717 384.163 485.827 384.352C485.941 384.538 486.085 384.663 486.259 384.727C486.437 384.788 486.624 384.818 486.821 384.818C486.969 384.818 487.09 384.811 487.185 384.795C487.28 384.777 487.355 384.761 487.412 384.75L487.685 385.955C487.594 385.989 487.467 386.023 487.304 386.057C487.141 386.095 486.935 386.114 486.685 386.114C486.306 386.114 485.935 386.032 485.571 385.869C485.211 385.706 484.912 385.458 484.674 385.125C484.439 384.792 484.321 384.371 484.321 383.864V375.182ZM496.211 386.205C495.658 386.205 495.156 386.1 494.705 385.892C494.255 385.68 493.897 385.375 493.632 384.977C493.366 384.576 493.234 384.091 493.234 383.523C493.234 383.023 493.332 382.617 493.529 382.307C493.726 381.992 493.989 381.746 494.319 381.568C494.649 381.39 495.012 381.258 495.41 381.17C495.811 381.08 496.215 381.008 496.62 380.955C497.15 380.886 497.58 380.835 497.91 380.801C498.243 380.763 498.486 380.701 498.637 380.614C498.793 380.527 498.87 380.375 498.87 380.159V380.114C498.87 379.553 498.717 379.117 498.41 378.807C498.107 378.496 497.647 378.341 497.029 378.341C496.389 378.341 495.887 378.481 495.524 378.761C495.16 379.042 494.904 379.341 494.757 379.659L493.484 379.205C493.711 378.674 494.014 378.261 494.393 377.966C494.775 377.667 495.192 377.458 495.643 377.341C496.097 377.22 496.544 377.159 496.984 377.159C497.264 377.159 497.586 377.193 497.95 377.261C498.317 377.326 498.671 377.46 499.012 377.665C499.357 377.869 499.643 378.178 499.87 378.591C500.097 379.004 500.211 379.557 500.211 380.25V386H498.87V384.818H498.802C498.711 385.008 498.56 385.21 498.347 385.426C498.135 385.642 497.853 385.826 497.501 385.977C497.149 386.129 496.719 386.205 496.211 386.205ZM496.416 385C496.946 385 497.393 384.896 497.757 384.688C498.124 384.479 498.4 384.21 498.586 383.881C498.775 383.551 498.87 383.205 498.87 382.841V381.614C498.813 381.682 498.688 381.744 498.495 381.801C498.306 381.854 498.086 381.902 497.836 381.943C497.59 381.981 497.349 382.015 497.114 382.045C496.883 382.072 496.696 382.095 496.552 382.114C496.203 382.159 495.878 382.233 495.575 382.335C495.275 382.434 495.033 382.583 494.847 382.784C494.666 382.981 494.575 383.25 494.575 383.591C494.575 384.057 494.747 384.409 495.092 384.648C495.44 384.883 495.882 385 496.416 385ZM503.799 380.75V386H502.459V377.273H503.754V378.636H503.868C504.072 378.193 504.383 377.837 504.799 377.568C505.216 377.295 505.754 377.159 506.413 377.159C507.004 377.159 507.521 377.28 507.964 377.523C508.407 377.761 508.752 378.125 508.998 378.614C509.245 379.098 509.368 379.712 509.368 380.455V386H508.027V380.545C508.027 379.86 507.849 379.326 507.493 378.943C507.137 378.557 506.648 378.364 506.027 378.364C505.599 378.364 505.216 378.456 504.879 378.642C504.546 378.828 504.282 379.098 504.089 379.455C503.896 379.811 503.799 380.242 503.799 380.75ZM514.913 386.182C514.186 386.182 513.544 385.998 512.987 385.631C512.43 385.259 511.995 384.737 511.68 384.062C511.366 383.384 511.209 382.583 511.209 381.659C511.209 380.742 511.366 379.947 511.68 379.273C511.995 378.598 512.432 378.078 512.993 377.71C513.554 377.343 514.201 377.159 514.936 377.159C515.504 377.159 515.953 377.254 516.283 377.443C516.616 377.629 516.87 377.841 517.044 378.08C517.222 378.314 517.36 378.508 517.459 378.659H517.572V374.364H518.913V386H517.618V384.659H517.459C517.36 384.818 517.22 385.019 517.038 385.261C516.857 385.5 516.597 385.714 516.26 385.903C515.923 386.089 515.474 386.182 514.913 386.182ZM515.095 384.977C515.633 384.977 516.088 384.837 516.459 384.557C516.83 384.273 517.112 383.881 517.305 383.381C517.499 382.877 517.595 382.295 517.595 381.636C517.595 380.985 517.5 380.415 517.311 379.926C517.122 379.434 516.841 379.051 516.47 378.778C516.099 378.502 515.641 378.364 515.095 378.364C514.527 378.364 514.054 378.509 513.675 378.801C513.3 379.089 513.018 379.481 512.828 379.977C512.643 380.47 512.55 381.023 512.55 381.636C512.55 382.258 512.644 382.822 512.834 383.33C513.027 383.833 513.311 384.235 513.686 384.534C514.065 384.83 514.535 384.977 515.095 384.977ZM529.314 386.182C528.474 386.182 527.748 385.996 527.138 385.625C526.532 385.25 526.064 384.727 525.735 384.057C525.409 383.383 525.246 382.598 525.246 381.705C525.246 380.811 525.409 380.023 525.735 379.341C526.064 378.655 526.523 378.121 527.11 377.739C527.701 377.352 528.39 377.159 529.178 377.159C529.633 377.159 530.082 377.235 530.525 377.386C530.968 377.538 531.371 377.784 531.735 378.125C532.099 378.462 532.388 378.909 532.604 379.466C532.82 380.023 532.928 380.708 532.928 381.523V382.091H526.201V380.932H531.564C531.564 380.439 531.466 380 531.269 379.614C531.076 379.227 530.799 378.922 530.439 378.699C530.083 378.475 529.663 378.364 529.178 378.364C528.644 378.364 528.182 378.496 527.792 378.761C527.405 379.023 527.108 379.364 526.9 379.784C526.691 380.205 526.587 380.655 526.587 381.136V381.909C526.587 382.568 526.701 383.127 526.928 383.585C527.159 384.04 527.479 384.386 527.888 384.625C528.297 384.86 528.773 384.977 529.314 384.977C529.667 384.977 529.985 384.928 530.269 384.83C530.557 384.727 530.805 384.576 531.013 384.375C531.222 384.17 531.383 383.917 531.496 383.614L532.792 383.977C532.655 384.417 532.426 384.803 532.104 385.136C531.782 385.466 531.385 385.723 530.911 385.909C530.438 386.091 529.905 386.182 529.314 386.182ZM538.063 386.182C537.336 386.182 536.694 385.998 536.137 385.631C535.58 385.259 535.145 384.737 534.83 384.062C534.516 383.384 534.359 382.583 534.359 381.659C534.359 380.742 534.516 379.947 534.83 379.273C535.145 378.598 535.582 378.078 536.143 377.71C536.703 377.343 537.351 377.159 538.086 377.159C538.654 377.159 539.103 377.254 539.433 377.443C539.766 377.629 540.02 377.841 540.194 378.08C540.372 378.314 540.51 378.508 540.609 378.659H540.722V374.364H542.063V386H540.768V384.659H540.609C540.51 384.818 540.37 385.019 540.188 385.261C540.007 385.5 539.747 385.714 539.41 385.903C539.073 386.089 538.624 386.182 538.063 386.182ZM538.245 384.977C538.783 384.977 539.238 384.837 539.609 384.557C539.98 384.273 540.262 383.881 540.455 383.381C540.649 382.877 540.745 382.295 540.745 381.636C540.745 380.985 540.65 380.415 540.461 379.926C540.272 379.434 539.991 379.051 539.62 378.778C539.249 378.502 538.791 378.364 538.245 378.364C537.677 378.364 537.203 378.509 536.825 378.801C536.45 379.089 536.168 379.481 535.978 379.977C535.793 380.47 535.7 381.023 535.7 381.636C535.7 382.258 535.794 382.822 535.984 383.33C536.177 383.833 536.461 384.235 536.836 384.534C537.215 384.83 537.685 384.977 538.245 384.977ZM544.505 386V377.273H545.846V386H544.505ZM545.187 375.818C544.926 375.818 544.7 375.729 544.511 375.551C544.325 375.373 544.233 375.159 544.233 374.909C544.233 374.659 544.325 374.445 544.511 374.267C544.7 374.089 544.926 374 545.187 374C545.449 374 545.672 374.089 545.858 374.267C546.047 374.445 546.142 374.659 546.142 374.909C546.142 375.159 546.047 375.373 545.858 375.551C545.672 375.729 545.449 375.818 545.187 375.818ZM551.898 377.273V378.409H547.375V377.273H551.898ZM548.693 375.182H550.034V383.5C550.034 383.879 550.089 384.163 550.199 384.352C550.313 384.538 550.456 384.663 550.631 384.727C550.809 384.788 550.996 384.818 551.193 384.818C551.341 384.818 551.462 384.811 551.557 384.795C551.652 384.777 551.727 384.761 551.784 384.75L552.057 385.955C551.966 385.989 551.839 386.023 551.676 386.057C551.513 386.095 551.307 386.114 551.057 386.114C550.678 386.114 550.307 386.032 549.943 385.869C549.583 385.706 549.284 385.458 549.045 385.125C548.811 384.792 548.693 384.371 548.693 383.864V375.182ZM278.227 410V401.273H279.568V410H278.227ZM278.909 399.818C278.648 399.818 278.422 399.729 278.233 399.551C278.047 399.373 277.955 399.159 277.955 398.909C277.955 398.659 278.047 398.445 278.233 398.267C278.422 398.089 278.648 398 278.909 398C279.17 398 279.394 398.089 279.58 398.267C279.769 398.445 279.864 398.659 279.864 398.909C279.864 399.159 279.769 399.373 279.58 399.551C279.394 399.729 279.17 399.818 278.909 399.818ZM281.824 410V401.273H283.12V402.636H283.233C283.415 402.17 283.709 401.809 284.114 401.551C284.519 401.29 285.006 401.159 285.574 401.159C286.15 401.159 286.629 401.29 287.012 401.551C287.398 401.809 287.699 402.17 287.915 402.636H288.006C288.229 402.186 288.565 401.828 289.012 401.562C289.459 401.294 289.995 401.159 290.62 401.159C291.4 401.159 292.038 401.403 292.534 401.892C293.031 402.377 293.279 403.133 293.279 404.159V410H291.938V404.159C291.938 403.515 291.762 403.055 291.409 402.778C291.057 402.502 290.642 402.364 290.165 402.364C289.551 402.364 289.076 402.549 288.739 402.92C288.402 403.288 288.233 403.754 288.233 404.318V410H286.87V404.023C286.87 403.527 286.709 403.127 286.387 402.824C286.065 402.517 285.65 402.364 285.142 402.364C284.794 402.364 284.468 402.456 284.165 402.642C283.866 402.828 283.623 403.085 283.438 403.415C283.256 403.741 283.165 404.117 283.165 404.545V410H281.824ZM298.099 410.205C297.546 410.205 297.044 410.1 296.593 409.892C296.142 409.68 295.784 409.375 295.519 408.977C295.254 408.576 295.121 408.091 295.121 407.523C295.121 407.023 295.22 406.617 295.417 406.307C295.614 405.992 295.877 405.746 296.207 405.568C296.536 405.39 296.9 405.258 297.297 405.17C297.699 405.08 298.102 405.008 298.508 404.955C299.038 404.886 299.468 404.835 299.797 404.801C300.131 404.763 300.373 404.701 300.525 404.614C300.68 404.527 300.758 404.375 300.758 404.159V404.114C300.758 403.553 300.604 403.117 300.297 402.807C299.994 402.496 299.534 402.341 298.917 402.341C298.277 402.341 297.775 402.481 297.411 402.761C297.047 403.042 296.792 403.341 296.644 403.659L295.371 403.205C295.599 402.674 295.902 402.261 296.28 401.966C296.663 401.667 297.08 401.458 297.53 401.341C297.985 401.22 298.432 401.159 298.871 401.159C299.152 401.159 299.474 401.193 299.837 401.261C300.205 401.326 300.559 401.46 300.9 401.665C301.244 401.869 301.53 402.178 301.758 402.591C301.985 403.004 302.099 403.557 302.099 404.25V410H300.758V408.818H300.689C300.599 409.008 300.447 409.21 300.235 409.426C300.023 409.642 299.741 409.826 299.388 409.977C299.036 410.129 298.606 410.205 298.099 410.205ZM298.303 409C298.833 409 299.28 408.896 299.644 408.688C300.011 408.479 300.288 408.21 300.474 407.881C300.663 407.551 300.758 407.205 300.758 406.841V405.614C300.701 405.682 300.576 405.744 300.383 405.801C300.193 405.854 299.974 405.902 299.724 405.943C299.477 405.981 299.237 406.015 299.002 406.045C298.771 406.072 298.583 406.095 298.439 406.114C298.091 406.159 297.765 406.233 297.462 406.335C297.163 406.434 296.921 406.583 296.735 406.784C296.553 406.981 296.462 407.25 296.462 407.591C296.462 408.057 296.635 408.409 296.979 408.648C297.328 408.883 297.769 409 298.303 409ZM307.869 413.455C307.221 413.455 306.664 413.371 306.198 413.205C305.732 413.042 305.344 412.826 305.034 412.557C304.727 412.292 304.482 412.008 304.301 411.705L305.369 410.955C305.49 411.114 305.643 411.295 305.829 411.5C306.015 411.708 306.268 411.888 306.59 412.04C306.916 412.195 307.342 412.273 307.869 412.273C308.573 412.273 309.155 412.102 309.613 411.761C310.071 411.42 310.301 410.886 310.301 410.159V408.386H310.187C310.088 408.545 309.948 408.742 309.766 408.977C309.588 409.208 309.331 409.415 308.994 409.597C308.66 409.775 308.21 409.864 307.641 409.864C306.937 409.864 306.304 409.697 305.744 409.364C305.187 409.03 304.746 408.545 304.42 407.909C304.098 407.273 303.937 406.5 303.937 405.591C303.937 404.697 304.094 403.919 304.409 403.256C304.723 402.589 305.16 402.074 305.721 401.71C306.282 401.343 306.929 401.159 307.664 401.159C308.232 401.159 308.683 401.254 309.016 401.443C309.354 401.629 309.611 401.841 309.789 402.08C309.971 402.314 310.111 402.508 310.21 402.659H310.346V401.273H311.641V410.25C311.641 411 311.471 411.61 311.13 412.08C310.793 412.553 310.338 412.9 309.766 413.119C309.198 413.343 308.566 413.455 307.869 413.455ZM307.823 408.659C308.361 408.659 308.816 408.536 309.187 408.29C309.558 408.044 309.84 407.689 310.034 407.227C310.227 406.765 310.323 406.212 310.323 405.568C310.323 404.939 310.229 404.384 310.039 403.903C309.85 403.422 309.57 403.045 309.198 402.773C308.827 402.5 308.369 402.364 307.823 402.364C307.255 402.364 306.782 402.508 306.403 402.795C306.028 403.083 305.746 403.47 305.556 403.955C305.371 404.439 305.278 404.977 305.278 405.568C305.278 406.174 305.373 406.71 305.562 407.176C305.755 407.638 306.039 408.002 306.414 408.267C306.793 408.528 307.263 408.659 307.823 408.659ZM317.555 410.182C316.714 410.182 315.989 409.996 315.379 409.625C314.773 409.25 314.305 408.727 313.976 408.057C313.65 407.383 313.487 406.598 313.487 405.705C313.487 404.811 313.65 404.023 313.976 403.341C314.305 402.655 314.763 402.121 315.351 401.739C315.941 401.352 316.631 401.159 317.419 401.159C317.873 401.159 318.322 401.235 318.765 401.386C319.209 401.538 319.612 401.784 319.976 402.125C320.339 402.462 320.629 402.909 320.845 403.466C321.061 404.023 321.169 404.708 321.169 405.523V406.091H314.441V404.932H319.805C319.805 404.439 319.707 404 319.51 403.614C319.316 403.227 319.04 402.922 318.68 402.699C318.324 402.475 317.904 402.364 317.419 402.364C316.885 402.364 316.423 402.496 316.032 402.761C315.646 403.023 315.349 403.364 315.14 403.784C314.932 404.205 314.828 404.655 314.828 405.136V405.909C314.828 406.568 314.941 407.127 315.169 407.585C315.4 408.04 315.72 408.386 316.129 408.625C316.538 408.86 317.013 408.977 317.555 408.977C317.907 408.977 318.226 408.928 318.51 408.83C318.798 408.727 319.046 408.576 319.254 408.375C319.462 408.17 319.623 407.917 319.737 407.614L321.032 407.977C320.896 408.417 320.667 408.803 320.345 409.136C320.023 409.466 319.625 409.723 319.152 409.909C318.678 410.091 318.146 410.182 317.555 410.182ZM329.19 403.227L327.986 403.568C327.91 403.367 327.798 403.172 327.651 402.983C327.507 402.79 327.31 402.631 327.06 402.506C326.81 402.381 326.49 402.318 326.099 402.318C325.565 402.318 325.12 402.441 324.764 402.688C324.412 402.93 324.236 403.239 324.236 403.614C324.236 403.947 324.357 404.21 324.599 404.403C324.842 404.597 325.221 404.758 325.736 404.886L327.031 405.205C327.812 405.394 328.393 405.684 328.776 406.074C329.158 406.46 329.349 406.958 329.349 407.568C329.349 408.068 329.205 408.515 328.918 408.909C328.634 409.303 328.236 409.614 327.724 409.841C327.213 410.068 326.618 410.182 325.94 410.182C325.05 410.182 324.313 409.989 323.73 409.602C323.147 409.216 322.777 408.652 322.622 407.909L323.895 407.591C324.016 408.061 324.245 408.413 324.582 408.648C324.923 408.883 325.368 409 325.918 409C326.543 409 327.039 408.867 327.406 408.602C327.777 408.333 327.963 408.011 327.963 407.636C327.963 407.333 327.857 407.08 327.645 406.875C327.433 406.667 327.107 406.511 326.668 406.409L325.213 406.068C324.414 405.879 323.827 405.585 323.452 405.188C323.08 404.786 322.895 404.284 322.895 403.682C322.895 403.189 323.033 402.754 323.31 402.375C323.59 401.996 323.971 401.699 324.452 401.483C324.937 401.267 325.486 401.159 326.099 401.159C326.963 401.159 327.641 401.348 328.134 401.727C328.63 402.106 328.982 402.606 329.19 403.227ZM340.968 406.432V401.273H342.309V410H340.968V408.523H340.877C340.672 408.966 340.354 409.343 339.922 409.653C339.491 409.96 338.945 410.114 338.286 410.114C337.741 410.114 337.256 409.994 336.832 409.756C336.407 409.513 336.074 409.15 335.832 408.665C335.589 408.176 335.468 407.561 335.468 406.818V401.273H336.809V406.727C336.809 407.364 336.987 407.871 337.343 408.25C337.703 408.629 338.161 408.818 338.718 408.818C339.051 408.818 339.39 408.733 339.735 408.562C340.083 408.392 340.375 408.131 340.61 407.778C340.849 407.426 340.968 406.977 340.968 406.432ZM350.747 403.227L349.542 403.568C349.466 403.367 349.355 403.172 349.207 402.983C349.063 402.79 348.866 402.631 348.616 402.506C348.366 402.381 348.046 402.318 347.656 402.318C347.122 402.318 346.677 402.441 346.32 402.688C345.968 402.93 345.792 403.239 345.792 403.614C345.792 403.947 345.913 404.21 346.156 404.403C346.398 404.597 346.777 404.758 347.292 404.886L348.588 405.205C349.368 405.394 349.949 405.684 350.332 406.074C350.714 406.46 350.906 406.958 350.906 407.568C350.906 408.068 350.762 408.515 350.474 408.909C350.19 409.303 349.792 409.614 349.281 409.841C348.769 410.068 348.175 410.182 347.497 410.182C346.606 410.182 345.87 409.989 345.286 409.602C344.703 409.216 344.334 408.652 344.178 407.909L345.451 407.591C345.572 408.061 345.802 408.413 346.139 408.648C346.48 408.883 346.925 409 347.474 409C348.099 409 348.595 408.867 348.963 408.602C349.334 408.333 349.519 408.011 349.519 407.636C349.519 407.333 349.413 407.08 349.201 406.875C348.989 406.667 348.663 406.511 348.224 406.409L346.769 406.068C345.97 405.879 345.383 405.585 345.008 405.188C344.637 404.786 344.451 404.284 344.451 403.682C344.451 403.189 344.589 402.754 344.866 402.375C345.146 401.996 345.527 401.699 346.008 401.483C346.493 401.267 347.042 401.159 347.656 401.159C348.519 401.159 349.197 401.348 349.69 401.727C350.186 402.106 350.538 402.606 350.747 403.227ZM352.724 410V401.273H354.065V410H352.724ZM353.406 399.818C353.145 399.818 352.919 399.729 352.73 399.551C352.544 399.373 352.451 399.159 352.451 398.909C352.451 398.659 352.544 398.445 352.73 398.267C352.919 398.089 353.145 398 353.406 398C353.667 398 353.891 398.089 354.076 398.267C354.266 398.445 354.361 398.659 354.361 398.909C354.361 399.159 354.266 399.373 354.076 399.551C353.891 399.729 353.667 399.818 353.406 399.818ZM357.662 404.75V410H356.321V401.273H357.616V402.636H357.73C357.935 402.193 358.245 401.837 358.662 401.568C359.079 401.295 359.616 401.159 360.276 401.159C360.866 401.159 361.384 401.28 361.827 401.523C362.27 401.761 362.615 402.125 362.861 402.614C363.107 403.098 363.23 403.712 363.23 404.455V410H361.889V404.545C361.889 403.86 361.711 403.326 361.355 402.943C360.999 402.557 360.51 402.364 359.889 402.364C359.461 402.364 359.079 402.456 358.741 402.642C358.408 402.828 358.145 403.098 357.952 403.455C357.759 403.811 357.662 404.242 357.662 404.75ZM369.003 413.455C368.355 413.455 367.799 413.371 367.333 413.205C366.867 413.042 366.479 412.826 366.168 412.557C365.861 412.292 365.617 412.008 365.435 411.705L366.503 410.955C366.624 411.114 366.778 411.295 366.963 411.5C367.149 411.708 367.403 411.888 367.725 412.04C368.05 412.195 368.477 412.273 369.003 412.273C369.708 412.273 370.289 412.102 370.747 411.761C371.206 411.42 371.435 410.886 371.435 410.159V408.386H371.321C371.223 408.545 371.083 408.742 370.901 408.977C370.723 409.208 370.465 409.415 370.128 409.597C369.795 409.775 369.344 409.864 368.776 409.864C368.071 409.864 367.439 409.697 366.878 409.364C366.321 409.03 365.88 408.545 365.554 407.909C365.232 407.273 365.071 406.5 365.071 405.591C365.071 404.697 365.229 403.919 365.543 403.256C365.857 402.589 366.295 402.074 366.855 401.71C367.416 401.343 368.064 401.159 368.799 401.159C369.367 401.159 369.818 401.254 370.151 401.443C370.488 401.629 370.746 401.841 370.924 402.08C371.105 402.314 371.246 402.508 371.344 402.659H371.48V401.273H372.776V410.25C372.776 411 372.605 411.61 372.264 412.08C371.927 412.553 371.473 412.9 370.901 413.119C370.333 413.343 369.7 413.455 369.003 413.455ZM368.958 408.659C369.496 408.659 369.95 408.536 370.321 408.29C370.693 408.044 370.975 407.689 371.168 407.227C371.361 406.765 371.458 406.212 371.458 405.568C371.458 404.939 371.363 404.384 371.174 403.903C370.984 403.422 370.704 403.045 370.333 402.773C369.961 402.5 369.503 402.364 368.958 402.364C368.389 402.364 367.916 402.508 367.537 402.795C367.162 403.083 366.88 403.47 366.691 403.955C366.505 404.439 366.412 404.977 366.412 405.568C366.412 406.174 366.507 406.71 366.696 407.176C366.889 407.638 367.174 408.002 367.549 408.267C367.927 408.528 368.397 408.659 368.958 408.659ZM382.876 410.182C382.088 410.182 381.397 409.994 380.802 409.619C380.211 409.244 379.749 408.72 379.416 408.045C379.086 407.371 378.921 406.583 378.921 405.682C378.921 404.773 379.086 403.979 379.416 403.301C379.749 402.623 380.211 402.097 380.802 401.722C381.397 401.347 382.088 401.159 382.876 401.159C383.664 401.159 384.353 401.347 384.944 401.722C385.539 402.097 386.001 402.623 386.33 403.301C386.664 403.979 386.83 404.773 386.83 405.682C386.83 406.583 386.664 407.371 386.33 408.045C386.001 408.72 385.539 409.244 384.944 409.619C384.353 409.994 383.664 410.182 382.876 410.182ZM382.876 408.977C383.474 408.977 383.967 408.824 384.353 408.517C384.739 408.21 385.025 407.807 385.211 407.307C385.397 406.807 385.489 406.265 385.489 405.682C385.489 405.098 385.397 404.555 385.211 404.051C385.025 403.547 384.739 403.14 384.353 402.83C383.967 402.519 383.474 402.364 382.876 402.364C382.277 402.364 381.785 402.519 381.399 402.83C381.012 403.14 380.726 403.547 380.541 404.051C380.355 404.555 380.262 405.098 380.262 405.682C380.262 406.265 380.355 406.807 380.541 407.307C380.726 407.807 381.012 408.21 381.399 408.517C381.785 408.824 382.277 408.977 382.876 408.977ZM390.018 404.75V410H388.677V401.273H389.973V402.636H390.086C390.291 402.193 390.602 401.837 391.018 401.568C391.435 401.295 391.973 401.159 392.632 401.159C393.223 401.159 393.74 401.28 394.183 401.523C394.626 401.761 394.971 402.125 395.217 402.614C395.463 403.098 395.586 403.712 395.586 404.455V410H394.245V404.545C394.245 403.86 394.067 403.326 393.711 402.943C393.355 402.557 392.867 402.364 392.245 402.364C391.817 402.364 391.435 402.456 391.098 402.642C390.764 402.828 390.501 403.098 390.308 403.455C390.115 403.811 390.018 404.242 390.018 404.75ZM401.496 410.182C400.655 410.182 399.929 409.996 399.32 409.625C398.714 409.25 398.246 408.727 397.916 408.057C397.59 407.383 397.428 406.598 397.428 405.705C397.428 404.811 397.59 404.023 397.916 403.341C398.246 402.655 398.704 402.121 399.291 401.739C399.882 401.352 400.571 401.159 401.359 401.159C401.814 401.159 402.263 401.235 402.706 401.386C403.149 401.538 403.553 401.784 403.916 402.125C404.28 402.462 404.57 402.909 404.786 403.466C405.001 404.023 405.109 404.708 405.109 405.523V406.091H398.382V404.932H403.746C403.746 404.439 403.647 404 403.45 403.614C403.257 403.227 402.981 402.922 402.621 402.699C402.265 402.475 401.844 402.364 401.359 402.364C400.825 402.364 400.363 402.496 399.973 402.761C399.587 403.023 399.289 403.364 399.081 403.784C398.873 404.205 398.768 404.655 398.768 405.136V405.909C398.768 406.568 398.882 407.127 399.109 407.585C399.34 408.04 399.661 408.386 400.07 408.625C400.479 408.86 400.954 408.977 401.496 408.977C401.848 408.977 402.166 408.928 402.45 408.83C402.738 408.727 402.986 408.576 403.195 408.375C403.403 408.17 403.564 407.917 403.678 407.614L404.973 407.977C404.837 408.417 404.607 408.803 404.286 409.136C403.964 409.466 403.566 409.723 403.092 409.909C402.619 410.091 402.087 410.182 401.496 410.182ZM411.249 413.273V401.273H412.545V402.659H412.704C412.802 402.508 412.939 402.314 413.113 402.08C413.291 401.841 413.545 401.629 413.874 401.443C414.207 401.254 414.658 401.159 415.226 401.159C415.961 401.159 416.609 401.343 417.17 401.71C417.73 402.078 418.168 402.598 418.482 403.273C418.797 403.947 418.954 404.742 418.954 405.659C418.954 406.583 418.797 407.384 418.482 408.062C418.168 408.737 417.732 409.259 417.175 409.631C416.618 409.998 415.976 410.182 415.249 410.182C414.689 410.182 414.24 410.089 413.903 409.903C413.565 409.714 413.306 409.5 413.124 409.261C412.942 409.019 412.802 408.818 412.704 408.659H412.59V413.273H411.249ZM412.567 405.636C412.567 406.295 412.664 406.877 412.857 407.381C413.05 407.881 413.332 408.273 413.704 408.557C414.075 408.837 414.529 408.977 415.067 408.977C415.628 408.977 416.096 408.83 416.471 408.534C416.85 408.235 417.134 407.833 417.323 407.33C417.516 406.822 417.613 406.258 417.613 405.636C417.613 405.023 417.518 404.47 417.329 403.977C417.143 403.481 416.861 403.089 416.482 402.801C416.107 402.509 415.636 402.364 415.067 402.364C414.522 402.364 414.064 402.502 413.692 402.778C413.321 403.051 413.041 403.434 412.851 403.926C412.662 404.415 412.567 404.985 412.567 405.636ZM422.14 398.364V410H420.799V398.364H422.14ZM426.964 410.205C426.411 410.205 425.909 410.1 425.459 409.892C425.008 409.68 424.65 409.375 424.385 408.977C424.12 408.576 423.987 408.091 423.987 407.523C423.987 407.023 424.085 406.617 424.282 406.307C424.479 405.992 424.743 405.746 425.072 405.568C425.402 405.39 425.765 405.258 426.163 405.17C426.565 405.08 426.968 405.008 427.373 404.955C427.904 404.886 428.334 404.835 428.663 404.801C428.996 404.763 429.239 404.701 429.39 404.614C429.546 404.527 429.623 404.375 429.623 404.159V404.114C429.623 403.553 429.47 403.117 429.163 402.807C428.86 402.496 428.4 402.341 427.782 402.341C427.142 402.341 426.64 402.481 426.277 402.761C425.913 403.042 425.657 403.341 425.51 403.659L424.237 403.205C424.464 402.674 424.767 402.261 425.146 401.966C425.529 401.667 425.945 401.458 426.396 401.341C426.851 401.22 427.298 401.159 427.737 401.159C428.017 401.159 428.339 401.193 428.703 401.261C429.07 401.326 429.424 401.46 429.765 401.665C430.11 401.869 430.396 402.178 430.623 402.591C430.851 403.004 430.964 403.557 430.964 404.25V410H429.623V408.818H429.555C429.464 409.008 429.313 409.21 429.101 409.426C428.888 409.642 428.606 409.826 428.254 409.977C427.902 410.129 427.472 410.205 426.964 410.205ZM427.169 409C427.699 409 428.146 408.896 428.51 408.688C428.877 408.479 429.154 408.21 429.339 407.881C429.529 407.551 429.623 407.205 429.623 406.841V405.614C429.566 405.682 429.441 405.744 429.248 405.801C429.059 405.854 428.839 405.902 428.589 405.943C428.343 405.981 428.102 406.015 427.868 406.045C427.637 406.072 427.449 406.095 427.305 406.114C426.957 406.159 426.631 406.233 426.328 406.335C426.029 406.434 425.786 406.583 425.601 406.784C425.419 406.981 425.328 407.25 425.328 407.591C425.328 408.057 425.5 408.409 425.845 408.648C426.193 408.883 426.635 409 427.169 409ZM437.007 401.273V402.409H432.484V401.273H437.007ZM433.803 399.182H435.143V407.5C435.143 407.879 435.198 408.163 435.308 408.352C435.422 408.538 435.566 408.663 435.74 408.727C435.918 408.788 436.106 408.818 436.303 408.818C436.45 408.818 436.571 408.811 436.666 408.795C436.761 408.777 436.837 408.761 436.893 408.75L437.166 409.955C437.075 409.989 436.948 410.023 436.786 410.057C436.623 410.095 436.416 410.114 436.166 410.114C435.787 410.114 435.416 410.032 435.053 409.869C434.693 409.706 434.393 409.458 434.155 409.125C433.92 408.792 433.803 408.371 433.803 407.864V399.182ZM442.711 401.273V402.409H438.006V401.273H442.711ZM439.415 410V400.068C439.415 399.568 439.532 399.152 439.767 398.818C440.002 398.485 440.307 398.235 440.682 398.068C441.057 397.902 441.453 397.818 441.87 397.818C442.199 397.818 442.468 397.845 442.676 397.898C442.885 397.951 443.04 398 443.142 398.045L442.756 399.205C442.688 399.182 442.593 399.153 442.472 399.119C442.354 399.085 442.199 399.068 442.006 399.068C441.563 399.068 441.243 399.18 441.046 399.403C440.853 399.627 440.756 399.955 440.756 400.386V410H439.415ZM447.576 410.182C446.788 410.182 446.097 409.994 445.502 409.619C444.911 409.244 444.449 408.72 444.116 408.045C443.786 407.371 443.621 406.583 443.621 405.682C443.621 404.773 443.786 403.979 444.116 403.301C444.449 402.623 444.911 402.097 445.502 401.722C446.097 401.347 446.788 401.159 447.576 401.159C448.364 401.159 449.053 401.347 449.644 401.722C450.239 402.097 450.701 402.623 451.03 403.301C451.364 403.979 451.53 404.773 451.53 405.682C451.53 406.583 451.364 407.371 451.03 408.045C450.701 408.72 450.239 409.244 449.644 409.619C449.053 409.994 448.364 410.182 447.576 410.182ZM447.576 408.977C448.174 408.977 448.667 408.824 449.053 408.517C449.439 408.21 449.725 407.807 449.911 407.307C450.097 406.807 450.189 406.265 450.189 405.682C450.189 405.098 450.097 404.555 449.911 404.051C449.725 403.547 449.439 403.14 449.053 402.83C448.667 402.519 448.174 402.364 447.576 402.364C446.977 402.364 446.485 402.519 446.099 402.83C445.712 403.14 445.426 403.547 445.241 404.051C445.055 404.555 444.962 405.098 444.962 405.682C444.962 406.265 445.055 406.807 445.241 407.307C445.426 407.807 445.712 408.21 446.099 408.517C446.485 408.824 446.977 408.977 447.576 408.977ZM453.377 410V401.273H454.673V402.591H454.764C454.923 402.159 455.211 401.809 455.627 401.54C456.044 401.271 456.514 401.136 457.036 401.136C457.135 401.136 457.258 401.138 457.406 401.142C457.553 401.146 457.665 401.152 457.741 401.159V402.523C457.695 402.511 457.591 402.494 457.428 402.472C457.269 402.445 457.101 402.432 456.923 402.432C456.498 402.432 456.12 402.521 455.786 402.699C455.457 402.873 455.195 403.116 455.002 403.426C454.813 403.733 454.718 404.083 454.718 404.477V410H453.377ZM459.13 410V401.273H460.426V402.636H460.539C460.721 402.17 461.015 401.809 461.42 401.551C461.825 401.29 462.312 401.159 462.88 401.159C463.456 401.159 463.935 401.29 464.318 401.551C464.704 401.809 465.005 402.17 465.221 402.636H465.312C465.536 402.186 465.871 401.828 466.318 401.562C466.765 401.294 467.301 401.159 467.926 401.159C468.706 401.159 469.344 401.403 469.841 401.892C470.337 402.377 470.585 403.133 470.585 404.159V410H469.244V404.159C469.244 403.515 469.068 403.055 468.716 402.778C468.363 402.502 467.949 402.364 467.471 402.364C466.858 402.364 466.382 402.549 466.045 402.92C465.708 403.288 465.539 403.754 465.539 404.318V410H464.176V404.023C464.176 403.527 464.015 403.127 463.693 402.824C463.371 402.517 462.956 402.364 462.449 402.364C462.1 402.364 461.774 402.456 461.471 402.642C461.172 402.828 460.93 403.085 460.744 403.415C460.562 403.741 460.471 404.117 460.471 404.545V410H459.13ZM474.587 406.727V406.659C474.594 405.936 474.67 405.36 474.814 404.932C474.958 404.504 475.162 404.157 475.428 403.892C475.693 403.627 476.011 403.383 476.382 403.159C476.606 403.023 476.806 402.862 476.984 402.676C477.162 402.487 477.303 402.269 477.405 402.023C477.511 401.777 477.564 401.504 477.564 401.205C477.564 400.833 477.477 400.511 477.303 400.239C477.128 399.966 476.895 399.756 476.604 399.608C476.312 399.46 475.988 399.386 475.632 399.386C475.321 399.386 475.022 399.451 474.734 399.58C474.446 399.708 474.206 399.911 474.013 400.188C473.82 400.464 473.708 400.826 473.678 401.273H472.246C472.276 400.629 472.443 400.078 472.746 399.619C473.053 399.161 473.456 398.811 473.956 398.568C474.46 398.326 475.018 398.205 475.632 398.205C476.299 398.205 476.878 398.337 477.371 398.602C477.867 398.867 478.25 399.231 478.518 399.693C478.791 400.155 478.928 400.682 478.928 401.273C478.928 401.689 478.863 402.066 478.734 402.403C478.609 402.741 478.428 403.042 478.189 403.307C477.954 403.572 477.67 403.807 477.337 404.011C477.003 404.22 476.736 404.439 476.536 404.67C476.335 404.898 476.189 405.169 476.098 405.483C476.007 405.797 475.958 406.189 475.95 406.659V406.727H474.587ZM475.314 410.091C475.034 410.091 474.793 409.991 474.592 409.79C474.392 409.589 474.291 409.348 474.291 409.068C474.291 408.788 474.392 408.547 474.592 408.347C474.793 408.146 475.034 408.045 475.314 408.045C475.594 408.045 475.835 408.146 476.036 408.347C476.236 408.547 476.337 408.788 476.337 409.068C476.337 409.254 476.289 409.424 476.195 409.58C476.104 409.735 475.981 409.86 475.825 409.955C475.674 410.045 475.503 410.091 475.314 410.091Z" fill="#0F1324" fill-opacity="0.6"/>
<path d="M277 436C277 433.791 278.791 432 281 432H354C356.209 432 358 433.791 358 436V452C358 454.209 356.209 456 354 456H281C278.791 456 277 454.209 277 452V436Z" fill="white" fill-opacity="0.01"/>
<path d="M278.602 450V438.364H282.75C283.651 438.364 284.399 438.519 284.994 438.83C285.592 439.14 286.039 439.57 286.335 440.119C286.63 440.665 286.778 441.295 286.778 442.011C286.778 442.723 286.628 443.35 286.329 443.892C286.034 444.43 285.587 444.848 284.988 445.148C284.394 445.447 283.645 445.597 282.744 445.597H279.602V444.085H282.585C283.153 444.085 283.615 444.004 283.971 443.841C284.331 443.678 284.594 443.441 284.761 443.131C284.928 442.82 285.011 442.447 285.011 442.011C285.011 441.572 284.926 441.191 284.755 440.869C284.589 440.547 284.325 440.301 283.965 440.131C283.609 439.956 283.142 439.869 282.562 439.869H280.358V450H278.602ZM284.346 444.75L287.221 450H285.221L282.403 444.75H284.346ZM292.23 450.176C291.37 450.176 290.63 449.992 290.008 449.625C289.391 449.254 288.914 448.733 288.577 448.062C288.243 447.388 288.077 446.598 288.077 445.693C288.077 444.799 288.243 444.011 288.577 443.33C288.914 442.648 289.383 442.116 289.986 441.733C290.592 441.35 291.3 441.159 292.111 441.159C292.603 441.159 293.08 441.241 293.542 441.403C294.005 441.566 294.419 441.822 294.787 442.17C295.154 442.519 295.444 442.972 295.656 443.528C295.868 444.081 295.974 444.754 295.974 445.545V446.148H289.037V444.875H294.31C294.31 444.428 294.219 444.032 294.037 443.688C293.855 443.339 293.599 443.064 293.27 442.864C292.944 442.663 292.561 442.562 292.122 442.562C291.645 442.562 291.228 442.68 290.872 442.915C290.52 443.146 290.247 443.449 290.054 443.824C289.864 444.195 289.77 444.598 289.77 445.034V446.028C289.77 446.612 289.872 447.108 290.077 447.517C290.285 447.926 290.575 448.239 290.946 448.455C291.317 448.667 291.751 448.773 292.247 448.773C292.569 448.773 292.863 448.727 293.128 448.636C293.393 448.542 293.622 448.402 293.815 448.216C294.008 448.03 294.156 447.801 294.258 447.528L295.866 447.818C295.738 448.292 295.506 448.706 295.173 449.062C294.844 449.415 294.429 449.689 293.929 449.886C293.433 450.08 292.866 450.176 292.23 450.176ZM300.199 450.193C299.646 450.193 299.146 450.091 298.699 449.886C298.252 449.678 297.898 449.377 297.637 448.983C297.379 448.589 297.25 448.106 297.25 447.534C297.25 447.042 297.345 446.636 297.534 446.318C297.724 446 297.979 445.748 298.301 445.562C298.623 445.377 298.983 445.237 299.381 445.142C299.779 445.047 300.184 444.975 300.597 444.926C301.119 444.866 301.544 444.816 301.869 444.778C302.195 444.737 302.432 444.67 302.58 444.58C302.727 444.489 302.801 444.341 302.801 444.136V444.097C302.801 443.6 302.661 443.216 302.381 442.943C302.104 442.67 301.691 442.534 301.142 442.534C300.57 442.534 300.119 442.661 299.79 442.915C299.464 443.165 299.239 443.443 299.114 443.75L297.517 443.386C297.707 442.856 297.983 442.428 298.347 442.102C298.714 441.773 299.137 441.534 299.614 441.386C300.091 441.235 300.593 441.159 301.119 441.159C301.468 441.159 301.837 441.201 302.227 441.284C302.621 441.364 302.989 441.511 303.33 441.727C303.674 441.943 303.957 442.252 304.176 442.653C304.396 443.051 304.506 443.568 304.506 444.205V450H302.847V448.807H302.779C302.669 449.027 302.504 449.242 302.284 449.455C302.065 449.667 301.782 449.843 301.438 449.983C301.093 450.123 300.68 450.193 300.199 450.193ZM300.568 448.83C301.038 448.83 301.44 448.737 301.773 448.551C302.11 448.366 302.366 448.123 302.54 447.824C302.718 447.521 302.807 447.197 302.807 446.852V445.727C302.746 445.788 302.629 445.845 302.455 445.898C302.284 445.947 302.089 445.991 301.869 446.028C301.65 446.062 301.436 446.095 301.227 446.125C301.019 446.152 300.845 446.174 300.705 446.193C300.375 446.235 300.074 446.305 299.801 446.403C299.532 446.502 299.316 446.644 299.154 446.83C298.994 447.011 298.915 447.254 298.915 447.557C298.915 447.977 299.07 448.295 299.381 448.511C299.691 448.723 300.087 448.83 300.568 448.83ZM309.836 450.17C309.131 450.17 308.502 449.991 307.949 449.631C307.4 449.267 306.968 448.75 306.654 448.08C306.343 447.405 306.188 446.597 306.188 445.653C306.188 444.71 306.345 443.903 306.66 443.233C306.978 442.562 307.413 442.049 307.966 441.693C308.519 441.337 309.146 441.159 309.847 441.159C310.389 441.159 310.824 441.25 311.154 441.432C311.487 441.61 311.745 441.818 311.927 442.057C312.112 442.295 312.256 442.506 312.358 442.688H312.461V438.364H314.16V450H312.5V448.642H312.358C312.256 448.828 312.108 449.04 311.915 449.278C311.726 449.517 311.464 449.725 311.131 449.903C310.798 450.081 310.366 450.17 309.836 450.17ZM310.211 448.722C310.699 448.722 311.112 448.593 311.449 448.335C311.79 448.074 312.048 447.712 312.222 447.25C312.4 446.788 312.489 446.25 312.489 445.636C312.489 445.03 312.402 444.5 312.228 444.045C312.053 443.591 311.798 443.237 311.461 442.983C311.124 442.729 310.707 442.602 310.211 442.602C309.699 442.602 309.273 442.735 308.932 443C308.591 443.265 308.334 443.627 308.16 444.085C307.989 444.544 307.904 445.061 307.904 445.636C307.904 446.22 307.991 446.744 308.165 447.21C308.339 447.676 308.597 448.045 308.938 448.318C309.283 448.587 309.707 448.722 310.211 448.722ZM320.419 450V441.273H322.049V442.693H322.157C322.339 442.212 322.636 441.837 323.049 441.568C323.462 441.295 323.956 441.159 324.532 441.159C325.116 441.159 325.604 441.295 325.998 441.568C326.396 441.841 326.689 442.216 326.879 442.693H326.97C327.178 442.227 327.51 441.856 327.964 441.58C328.419 441.299 328.96 441.159 329.589 441.159C330.381 441.159 331.027 441.407 331.527 441.903C332.03 442.4 332.282 443.148 332.282 444.148V450H330.583V444.307C330.583 443.716 330.422 443.288 330.1 443.023C329.778 442.758 329.394 442.625 328.947 442.625C328.394 442.625 327.964 442.795 327.657 443.136C327.35 443.473 327.197 443.907 327.197 444.438V450H325.504V444.199C325.504 443.725 325.356 443.345 325.061 443.057C324.765 442.769 324.381 442.625 323.907 442.625C323.585 442.625 323.288 442.71 323.015 442.881C322.746 443.047 322.528 443.28 322.362 443.58C322.199 443.879 322.117 444.225 322.117 444.619V450H320.419ZM338.035 450.176C337.217 450.176 336.503 449.989 335.893 449.614C335.283 449.239 334.81 448.714 334.473 448.04C334.136 447.366 333.967 446.578 333.967 445.676C333.967 444.771 334.136 443.979 334.473 443.301C334.81 442.623 335.283 442.097 335.893 441.722C336.503 441.347 337.217 441.159 338.035 441.159C338.854 441.159 339.568 441.347 340.177 441.722C340.787 442.097 341.261 442.623 341.598 443.301C341.935 443.979 342.104 444.771 342.104 445.676C342.104 446.578 341.935 447.366 341.598 448.04C341.261 448.714 340.787 449.239 340.177 449.614C339.568 449.989 338.854 450.176 338.035 450.176ZM338.041 448.75C338.571 448.75 339.011 448.61 339.359 448.33C339.708 448.049 339.965 447.676 340.132 447.21C340.302 446.744 340.388 446.231 340.388 445.67C340.388 445.114 340.302 444.602 340.132 444.136C339.965 443.667 339.708 443.29 339.359 443.006C339.011 442.722 338.571 442.58 338.041 442.58C337.507 442.58 337.064 442.722 336.712 443.006C336.363 443.29 336.104 443.667 335.933 444.136C335.766 444.602 335.683 445.114 335.683 445.67C335.683 446.231 335.766 446.744 335.933 447.21C336.104 447.676 336.363 448.049 336.712 448.33C337.064 448.61 337.507 448.75 338.041 448.75ZM343.8 450V441.273H345.442V442.659H345.533C345.692 442.189 345.972 441.82 346.374 441.551C346.779 441.278 347.237 441.142 347.749 441.142C347.855 441.142 347.98 441.146 348.124 441.153C348.271 441.161 348.387 441.17 348.47 441.182V442.807C348.402 442.788 348.281 442.767 348.107 442.744C347.932 442.718 347.758 442.705 347.584 442.705C347.182 442.705 346.824 442.79 346.51 442.96C346.199 443.127 345.953 443.36 345.771 443.659C345.59 443.955 345.499 444.292 345.499 444.67V450H343.8ZM353.189 450.176C352.329 450.176 351.589 449.992 350.968 449.625C350.35 449.254 349.873 448.733 349.536 448.062C349.203 447.388 349.036 446.598 349.036 445.693C349.036 444.799 349.203 444.011 349.536 443.33C349.873 442.648 350.343 442.116 350.945 441.733C351.551 441.35 352.259 441.159 353.07 441.159C353.562 441.159 354.04 441.241 354.502 441.403C354.964 441.566 355.379 441.822 355.746 442.17C356.114 442.519 356.403 442.972 356.615 443.528C356.828 444.081 356.934 444.754 356.934 445.545V446.148H349.996V444.875H355.269C355.269 444.428 355.178 444.032 354.996 443.688C354.814 443.339 354.559 443.064 354.229 442.864C353.903 442.663 353.521 442.562 353.081 442.562C352.604 442.562 352.187 442.68 351.831 442.915C351.479 443.146 351.206 443.449 351.013 443.824C350.824 444.195 350.729 444.598 350.729 445.034V446.028C350.729 446.612 350.831 447.108 351.036 447.517C351.244 447.926 351.534 448.239 351.905 448.455C352.276 448.667 352.71 448.773 353.206 448.773C353.528 448.773 353.822 448.727 354.087 448.636C354.352 448.542 354.581 448.402 354.775 448.216C354.968 448.03 355.115 447.801 355.218 447.528L356.826 447.818C356.697 448.292 356.466 448.706 356.133 449.062C355.803 449.415 355.388 449.689 354.888 449.886C354.392 450.08 353.826 450.176 353.189 450.176Z" fill="#14151A"/>
</g>
<defs>
<filter id="filter0_d_14946_47793" x="235" y="183" width="388" height="316" filterUnits="userSpaceOnUse" color-interpolation-filters="sRGB">
<feFlood flood-opacity="0" result="BackgroundImageFix"/>
<feColorMatrix in="SourceAlpha" type="matrix" values="0 0 0 0 0 0 0 0 0 0 0 0 0 0 0 0 0 0 127 0" result="hardAlpha"/>
<feOffset dy="1"/>
<feGaussianBlur stdDeviation="1"/>
<feComposite in2="hardAlpha" operator="out"/>
<feColorMatrix type="matrix" values="0 0 0 0 0.0784314 0 0 0 0 0.0823529 0 0 0 0 0.101961 0 0 0 0.05 0"/>
<feBlend mode="normal" in2="BackgroundImageFix" result="effect1_dropShadow_14946_47793"/>
<feBlend mode="normal" in="SourceGraphic" in2="effect1_dropShadow_14946_47793" result="shape"/>
</filter>
<linearGradient id="paint0_linear_14946_47793" x1="429" y1="0" x2="429" y2="640" gradientUnits="userSpaceOnUse">
<stop stop-color="#6199FF"/>
<stop offset="1" stop-color="#045CFB"/>
</linearGradient>
</defs>
</svg>
