<svg width="524" height="371" viewBox="0 0 524 371" fill="none" xmlns="http://www.w3.org/2000/svg">
<rect width="524" height="370.293" fill="url(#paint0_linear_202_14911)"/>
<rect x="0.5" y="0.5" width="523" height="369.293" stroke="#0A0F29" stroke-opacity="0.08"/>
<g filter="url(#filter0_dd_202_14911)">
<path d="M62 112C62 103.163 69.1634 96 78 96H446C454.837 96 462 103.163 462 112V258C462 266.837 454.837 274 446 274H78C69.1635 274 62 266.837 62 258V112Z" fill="white"/>
<path d="M78 96.5H446C454.56 96.5 461.5 103.44 461.5 112V258C461.5 266.56 454.56 273.5 446 273.5H78C69.4396 273.5 62.5 266.56 62.5 258V112C62.5 103.44 69.4396 96.5 78 96.5Z" stroke="#DEE0E3"/>
<path d="M94.5781 130.348C94.5099 129.743 94.2287 129.274 93.7344 128.942C93.2401 128.605 92.6179 128.437 91.8679 128.437C91.331 128.437 90.8665 128.522 90.4744 128.692C90.0824 128.859 89.7777 129.089 89.5604 129.383C89.3473 129.673 89.2408 130.003 89.2408 130.374C89.2408 130.685 89.3132 130.953 89.4581 131.179C89.6072 131.405 89.8011 131.594 90.0398 131.748C90.2827 131.897 90.5426 132.023 90.8196 132.125C91.0966 132.223 91.3629 132.304 91.6186 132.368L92.897 132.7C93.3146 132.803 93.7429 132.941 94.1818 133.116C94.6207 133.29 95.0277 133.521 95.4027 133.806C95.7777 134.092 96.0803 134.445 96.3104 134.867C96.5447 135.289 96.6619 135.794 96.6619 136.382C96.6619 137.124 96.4702 137.782 96.0866 138.357C95.7074 138.933 95.1555 139.386 94.4311 139.719C93.7109 140.051 92.8395 140.217 91.8168 140.217C90.8366 140.217 89.9886 140.062 89.2727 139.751C88.5568 139.44 87.9964 138.999 87.5916 138.428C87.1868 137.852 86.9631 137.17 86.9205 136.382H88.902C88.9403 136.855 89.0938 137.249 89.3622 137.565C89.6349 137.876 89.9822 138.108 90.4041 138.261C90.8303 138.411 91.2969 138.485 91.804 138.485C92.3622 138.485 92.8587 138.398 93.2933 138.223C93.7322 138.044 94.0774 137.797 94.3288 137.482C94.5803 137.162 94.706 136.789 94.706 136.363C94.706 135.975 94.5952 135.658 94.3736 135.411C94.1563 135.163 93.8601 134.959 93.4851 134.797C93.1143 134.635 92.6946 134.492 92.2259 134.369L90.679 133.947C89.6307 133.661 88.7997 133.241 88.1861 132.688C87.5767 132.134 87.272 131.401 87.272 130.489C87.272 129.734 87.4766 129.076 87.8857 128.513C88.2947 127.951 88.8487 127.514 89.5476 127.203C90.2464 126.888 91.0348 126.73 91.9126 126.73C92.799 126.73 93.581 126.886 94.2585 127.197C94.9403 127.508 95.4773 127.936 95.8693 128.482C96.2614 129.023 96.4659 129.645 96.483 130.348H94.5781ZM102.884 140.198C101.917 140.198 101.084 139.991 100.385 139.578C99.6904 139.161 99.1535 138.575 98.7742 137.82C98.3992 137.062 98.2117 136.173 98.2117 135.155C98.2117 134.149 98.3992 133.263 98.7742 132.496C99.1535 131.729 99.6819 131.13 100.359 130.7C101.041 130.269 101.838 130.054 102.75 130.054C103.304 130.054 103.841 130.146 104.361 130.329C104.881 130.512 105.347 130.8 105.761 131.192C106.174 131.584 106.5 132.093 106.739 132.719C106.977 133.342 107.097 134.098 107.097 134.989V135.666H99.292V134.234H105.224C105.224 133.732 105.122 133.286 104.917 132.898C104.712 132.506 104.425 132.197 104.054 131.972C103.688 131.746 103.257 131.633 102.763 131.633C102.226 131.633 101.757 131.765 101.357 132.029C100.96 132.289 100.653 132.63 100.436 133.052C100.223 133.469 100.117 133.923 100.117 134.413V135.532C100.117 136.188 100.232 136.746 100.462 137.207C100.696 137.667 101.022 138.018 101.44 138.261C101.857 138.5 102.345 138.619 102.903 138.619C103.266 138.619 103.596 138.568 103.894 138.466C104.193 138.359 104.45 138.202 104.668 137.993C104.885 137.784 105.051 137.526 105.166 137.219L106.975 137.545C106.83 138.078 106.57 138.545 106.195 138.945C105.825 139.342 105.358 139.651 104.796 139.872C104.237 140.089 103.6 140.198 102.884 140.198ZM109.001 140V130.182H110.836V131.78H110.957C111.162 131.239 111.496 130.817 111.961 130.514C112.425 130.207 112.981 130.054 113.629 130.054C114.285 130.054 114.835 130.207 115.278 130.514C115.726 130.821 116.056 131.243 116.269 131.78H116.371C116.606 131.256 116.979 130.838 117.49 130.527C118.001 130.212 118.611 130.054 119.318 130.054C120.209 130.054 120.935 130.333 121.498 130.891C122.064 131.45 122.348 132.291 122.348 133.416V140H120.437V133.595C120.437 132.93 120.256 132.449 119.893 132.151C119.531 131.852 119.099 131.703 118.596 131.703C117.974 131.703 117.49 131.895 117.145 132.278C116.8 132.658 116.627 133.146 116.627 133.742V140H114.722V133.474C114.722 132.941 114.556 132.513 114.224 132.189C113.891 131.865 113.459 131.703 112.926 131.703C112.564 131.703 112.229 131.799 111.922 131.991C111.62 132.178 111.375 132.44 111.187 132.777C111.004 133.114 110.912 133.504 110.912 133.947V140H109.001ZM127.551 140.217C126.929 140.217 126.366 140.102 125.863 139.872C125.36 139.638 124.962 139.299 124.668 138.856C124.378 138.413 124.233 137.869 124.233 137.226C124.233 136.672 124.34 136.216 124.553 135.858C124.766 135.5 125.054 135.217 125.416 135.008C125.778 134.799 126.183 134.641 126.63 134.535C127.078 134.428 127.534 134.347 127.998 134.292C128.586 134.224 129.063 134.168 129.43 134.126C129.796 134.079 130.063 134.004 130.229 133.902C130.395 133.8 130.478 133.634 130.478 133.403V133.359C130.478 132.8 130.321 132.368 130.005 132.061C129.694 131.754 129.23 131.601 128.612 131.601C127.968 131.601 127.461 131.744 127.09 132.029C126.724 132.31 126.47 132.624 126.33 132.969L124.534 132.56C124.747 131.963 125.058 131.482 125.467 131.115C125.88 130.744 126.355 130.476 126.892 130.31C127.429 130.139 127.994 130.054 128.586 130.054C128.978 130.054 129.394 130.101 129.833 130.195C130.276 130.284 130.689 130.45 131.073 130.693C131.46 130.936 131.778 131.283 132.025 131.735C132.272 132.183 132.396 132.764 132.396 133.48V140H130.529V138.658H130.453C130.329 138.905 130.144 139.148 129.897 139.386C129.649 139.625 129.332 139.823 128.944 139.981C128.556 140.138 128.092 140.217 127.551 140.217ZM127.966 138.683C128.495 138.683 128.946 138.579 129.321 138.37C129.701 138.161 129.988 137.888 130.184 137.552C130.384 137.211 130.485 136.847 130.485 136.459V135.193C130.416 135.261 130.284 135.325 130.088 135.385C129.897 135.44 129.677 135.489 129.43 135.532C129.183 135.57 128.942 135.607 128.708 135.641C128.473 135.67 128.277 135.696 128.12 135.717C127.749 135.764 127.41 135.843 127.103 135.954C126.801 136.065 126.558 136.224 126.375 136.433C126.196 136.638 126.106 136.911 126.106 137.251C126.106 137.724 126.281 138.082 126.63 138.325C126.98 138.564 127.425 138.683 127.966 138.683ZM136.637 134.17V140H134.725V130.182H136.56V131.78H136.681C136.907 131.26 137.261 130.842 137.743 130.527C138.228 130.212 138.84 130.054 139.577 130.054C140.246 130.054 140.832 130.195 141.335 130.476C141.838 130.753 142.228 131.166 142.505 131.716C142.782 132.266 142.92 132.945 142.92 133.755V140H141.009V133.985C141.009 133.273 140.824 132.717 140.453 132.317C140.082 131.912 139.573 131.71 138.925 131.71C138.482 131.71 138.088 131.805 137.743 131.997C137.402 132.189 137.131 132.47 136.931 132.841C136.735 133.207 136.637 133.651 136.637 134.17ZM149.85 130.182V131.716H144.487V130.182H149.85ZM145.926 127.83H147.837V137.117C147.837 137.488 147.892 137.767 148.003 137.955C148.114 138.138 148.257 138.263 148.431 138.332C148.61 138.396 148.804 138.428 149.013 138.428C149.166 138.428 149.301 138.417 149.416 138.396C149.531 138.374 149.62 138.357 149.684 138.344L150.029 139.923C149.919 139.966 149.761 140.009 149.556 140.051C149.352 140.098 149.096 140.124 148.789 140.128C148.286 140.136 147.818 140.047 147.383 139.859C146.948 139.672 146.597 139.382 146.328 138.99C146.06 138.598 145.926 138.106 145.926 137.513V127.83ZM151.749 140V130.182H153.66V140H151.749ZM152.714 128.667C152.381 128.667 152.096 128.556 151.857 128.335C151.623 128.109 151.506 127.84 151.506 127.529C151.506 127.214 151.623 126.945 151.857 126.724C152.096 126.498 152.381 126.385 152.714 126.385C153.046 126.385 153.33 126.498 153.564 126.724C153.803 126.945 153.922 127.214 153.922 127.529C153.922 127.84 153.803 128.109 153.564 128.335C153.33 128.556 153.046 128.667 152.714 128.667ZM160.151 140.198C159.2 140.198 158.382 139.983 157.696 139.553C157.014 139.118 156.49 138.519 156.124 137.756C155.757 136.994 155.574 136.12 155.574 135.136C155.574 134.138 155.761 133.259 156.136 132.496C156.511 131.729 157.04 131.13 157.722 130.7C158.403 130.269 159.207 130.054 160.131 130.054C160.877 130.054 161.542 130.192 162.126 130.469C162.71 130.742 163.18 131.126 163.538 131.62C163.901 132.114 164.116 132.692 164.184 133.352H162.324C162.222 132.892 161.987 132.496 161.621 132.163C161.259 131.831 160.773 131.665 160.163 131.665C159.631 131.665 159.164 131.805 158.764 132.087C158.367 132.364 158.058 132.76 157.837 133.276C157.615 133.787 157.504 134.392 157.504 135.091C157.504 135.807 157.613 136.425 157.83 136.945C158.048 137.464 158.354 137.867 158.751 138.153C159.151 138.438 159.622 138.581 160.163 138.581C160.526 138.581 160.854 138.515 161.148 138.383C161.446 138.246 161.695 138.053 161.896 137.801C162.1 137.55 162.243 137.247 162.324 136.893H164.184C164.116 137.528 163.909 138.095 163.564 138.594C163.219 139.092 162.756 139.484 162.177 139.77C161.602 140.055 160.926 140.198 160.151 140.198ZM170.713 140V126.909H172.688V132.598H179.214V126.909H181.196V140H179.214V134.292H172.688V140H170.713ZM183.211 128.609V126.909H193.342V128.609H189.258V140H187.289V128.609H183.211ZM195.365 126.909H197.762L201.93 137.085H202.083L206.251 126.909H208.648V140H206.768V130.527H206.647L202.786 139.981H201.226L197.366 130.521H197.244V140H195.365V126.909ZM211.303 140V126.909H213.278V138.3H219.21V140H211.303ZM228.499 140.217C227.877 140.217 227.314 140.102 226.811 139.872C226.309 139.638 225.91 139.299 225.616 138.856C225.326 138.413 225.181 137.869 225.181 137.226C225.181 136.672 225.288 136.216 225.501 135.858C225.714 135.5 226.002 135.217 226.364 135.008C226.726 134.799 227.131 134.641 227.578 134.535C228.026 134.428 228.482 134.347 228.946 134.292C229.534 134.224 230.012 134.168 230.378 134.126C230.745 134.079 231.011 134.004 231.177 133.902C231.343 133.8 231.426 133.634 231.426 133.403V133.359C231.426 132.8 231.269 132.368 230.953 132.061C230.642 131.754 230.178 131.601 229.56 131.601C228.917 131.601 228.409 131.744 228.039 132.029C227.672 132.31 227.419 132.624 227.278 132.969L225.482 132.56C225.695 131.963 226.006 131.482 226.415 131.115C226.828 130.744 227.304 130.476 227.841 130.31C228.377 130.139 228.942 130.054 229.534 130.054C229.926 130.054 230.342 130.101 230.781 130.195C231.224 130.284 231.637 130.45 232.021 130.693C232.409 130.936 232.726 131.283 232.973 131.735C233.22 132.183 233.344 132.764 233.344 133.48V140H231.478V138.658H231.401C231.277 138.905 231.092 139.148 230.845 139.386C230.598 139.625 230.28 139.823 229.892 139.981C229.505 140.138 229.04 140.217 228.499 140.217ZM228.914 138.683C229.443 138.683 229.894 138.579 230.269 138.37C230.649 138.161 230.936 137.888 231.132 137.552C231.333 137.211 231.433 136.847 231.433 136.459V135.193C231.365 135.261 231.233 135.325 231.037 135.385C230.845 135.44 230.625 135.489 230.378 135.532C230.131 135.57 229.89 135.607 229.656 135.641C229.421 135.67 229.225 135.696 229.068 135.717C228.697 135.764 228.358 135.843 228.051 135.954C227.749 136.065 227.506 136.224 227.323 136.433C227.144 136.638 227.054 136.911 227.054 137.251C227.054 137.724 227.229 138.082 227.578 138.325C227.928 138.564 228.373 138.683 228.914 138.683ZM237.585 134.17V140H235.674V130.182H237.508V131.78H237.63C237.856 131.26 238.209 130.842 238.691 130.527C239.177 130.212 239.788 130.054 240.525 130.054C241.194 130.054 241.78 130.195 242.283 130.476C242.786 130.753 243.176 131.166 243.453 131.716C243.73 132.266 243.868 132.945 243.868 133.755V140H241.957V133.985C241.957 133.273 241.772 132.717 241.401 132.317C241.03 131.912 240.521 131.71 239.873 131.71C239.43 131.71 239.036 131.805 238.691 131.997C238.35 132.189 238.079 132.47 237.879 132.841C237.683 133.207 237.585 133.651 237.585 134.17ZM249.891 140.192C249.098 140.192 248.391 139.989 247.769 139.585C247.151 139.175 246.665 138.594 246.311 137.839C245.962 137.081 245.787 136.171 245.787 135.11C245.787 134.049 245.964 133.141 246.318 132.387C246.676 131.633 247.166 131.055 247.788 130.655C248.41 130.254 249.115 130.054 249.904 130.054C250.513 130.054 251.003 130.156 251.374 130.361C251.749 130.561 252.039 130.795 252.243 131.064C252.452 131.332 252.614 131.569 252.729 131.773H252.844V126.909H254.755V140H252.889V138.472H252.729C252.614 138.681 252.448 138.92 252.23 139.188C252.017 139.457 251.723 139.691 251.348 139.891C250.973 140.092 250.488 140.192 249.891 140.192ZM250.313 138.562C250.863 138.562 251.327 138.417 251.706 138.127C252.09 137.833 252.38 137.426 252.576 136.906C252.776 136.386 252.876 135.781 252.876 135.091C252.876 134.409 252.778 133.812 252.582 133.301C252.386 132.79 252.098 132.391 251.719 132.106C251.34 131.82 250.871 131.678 250.313 131.678C249.738 131.678 249.258 131.827 248.875 132.125C248.491 132.423 248.201 132.83 248.005 133.346C247.814 133.862 247.718 134.443 247.718 135.091C247.718 135.747 247.816 136.337 248.012 136.862C248.208 137.386 248.497 137.801 248.881 138.108C249.269 138.411 249.746 138.562 250.313 138.562ZM269.108 130.348C269.04 129.743 268.759 129.274 268.264 128.942C267.77 128.605 267.148 128.437 266.398 128.437C265.861 128.437 265.396 128.522 265.004 128.692C264.612 128.859 264.308 129.089 264.09 129.383C263.877 129.673 263.771 130.003 263.771 130.374C263.771 130.685 263.843 130.953 263.988 131.179C264.137 131.405 264.331 131.594 264.57 131.748C264.813 131.897 265.073 132.023 265.35 132.125C265.627 132.223 265.893 132.304 266.149 132.368L267.427 132.7C267.845 132.803 268.273 132.941 268.712 133.116C269.151 133.29 269.558 133.521 269.933 133.806C270.308 134.092 270.61 134.445 270.84 134.867C271.075 135.289 271.192 135.794 271.192 136.382C271.192 137.124 271 137.782 270.617 138.357C270.237 138.933 269.686 139.386 268.961 139.719C268.241 140.051 267.369 140.217 266.347 140.217C265.367 140.217 264.519 140.062 263.803 139.751C263.087 139.44 262.526 138.999 262.122 138.428C261.717 137.852 261.493 137.17 261.45 136.382H263.432C263.47 136.855 263.624 137.249 263.892 137.565C264.165 137.876 264.512 138.108 264.934 138.261C265.36 138.411 265.827 138.485 266.334 138.485C266.892 138.485 267.389 138.398 267.823 138.223C268.262 138.044 268.607 137.797 268.859 137.482C269.11 137.162 269.236 136.789 269.236 136.363C269.236 135.975 269.125 135.658 268.904 135.411C268.686 135.163 268.39 134.959 268.015 134.797C267.644 134.635 267.225 134.492 266.756 134.369L265.209 133.947C264.161 133.661 263.33 133.241 262.716 132.688C262.107 132.134 261.802 131.401 261.802 130.489C261.802 129.734 262.007 129.076 262.416 128.513C262.825 127.951 263.379 127.514 264.078 127.203C264.776 126.888 265.565 126.73 266.443 126.73C267.329 126.73 268.111 126.886 268.788 127.197C269.47 127.508 270.007 127.936 270.399 128.482C270.791 129.023 270.996 129.645 271.013 130.348H269.108ZM273.336 140V126.909H281.544V128.609H275.311V132.598H281.115V134.292H275.311V138.3H281.62V140H273.336ZM295.337 133.455C295.337 134.852 295.082 136.054 294.57 137.06C294.059 138.061 293.358 138.832 292.467 139.374C291.581 139.911 290.573 140.179 289.444 140.179C288.31 140.179 287.298 139.911 286.408 139.374C285.521 138.832 284.822 138.059 284.311 137.053C283.8 136.048 283.544 134.848 283.544 133.455C283.544 132.057 283.8 130.857 284.311 129.856C284.822 128.85 285.521 128.079 286.408 127.542C287.298 127.001 288.31 126.73 289.444 126.73C290.573 126.73 291.581 127.001 292.467 127.542C293.358 128.079 294.059 128.85 294.57 129.856C295.082 130.857 295.337 132.057 295.337 133.455ZM293.381 133.455C293.381 132.389 293.209 131.492 292.864 130.763C292.523 130.031 292.054 129.477 291.457 129.102C290.865 128.722 290.194 128.533 289.444 128.533C288.69 128.533 288.016 128.722 287.424 129.102C286.832 129.477 286.363 130.031 286.018 130.763C285.677 131.492 285.506 132.389 285.506 133.455C285.506 134.52 285.677 135.419 286.018 136.152C286.363 136.881 286.832 137.435 287.424 137.814C288.016 138.189 288.69 138.376 289.444 138.376C290.194 138.376 290.865 138.189 291.457 137.814C292.054 137.435 292.523 136.881 292.864 136.152C293.209 135.419 293.381 134.52 293.381 133.455Z" fill="#14151A"/>
<path d="M91 172H87.4091V160.364H91.1591C92.2879 160.364 93.2538 160.597 94.0568 161.062C94.8598 161.525 95.4754 162.189 95.9034 163.057C96.3314 163.92 96.5455 164.955 96.5455 166.159C96.5455 167.371 96.3295 168.415 95.8977 169.29C95.4659 170.161 94.8371 170.831 94.0114 171.301C93.1856 171.767 92.1818 172 91 172ZM88.8182 170.75H90.9091C91.8712 170.75 92.6686 170.564 93.3011 170.193C93.9337 169.822 94.4053 169.294 94.7159 168.608C95.0265 167.922 95.1818 167.106 95.1818 166.159C95.1818 165.22 95.0284 164.411 94.7216 163.733C94.4148 163.051 93.9564 162.528 93.3466 162.165C92.7367 161.797 91.9773 161.614 91.0682 161.614H88.8182V170.75ZM98.5673 172V163.273H99.9082V172H98.5673ZM99.2491 161.818C98.9877 161.818 98.7623 161.729 98.573 161.551C98.3873 161.373 98.2945 161.159 98.2945 160.909C98.2945 160.659 98.3873 160.445 98.573 160.267C98.7623 160.089 98.9877 160 99.2491 160C99.5105 160 99.7339 160.089 99.9195 160.267C100.109 160.445 100.204 160.659 100.204 160.909C100.204 161.159 100.109 161.373 99.9195 161.551C99.7339 161.729 99.5105 161.818 99.2491 161.818ZM108.386 165.227L107.181 165.568C107.106 165.367 106.994 165.172 106.846 164.983C106.702 164.79 106.505 164.631 106.255 164.506C106.005 164.381 105.685 164.318 105.295 164.318C104.761 164.318 104.316 164.441 103.96 164.688C103.608 164.93 103.431 165.239 103.431 165.614C103.431 165.947 103.553 166.21 103.795 166.403C104.037 166.597 104.416 166.758 104.931 166.886L106.227 167.205C107.007 167.394 107.589 167.684 107.971 168.074C108.354 168.46 108.545 168.958 108.545 169.568C108.545 170.068 108.401 170.515 108.113 170.909C107.829 171.303 107.431 171.614 106.92 171.841C106.409 172.068 105.814 172.182 105.136 172.182C104.246 172.182 103.509 171.989 102.926 171.602C102.342 171.216 101.973 170.652 101.818 169.909L103.091 169.591C103.212 170.061 103.441 170.413 103.778 170.648C104.119 170.883 104.564 171 105.113 171C105.738 171 106.234 170.867 106.602 170.602C106.973 170.333 107.159 170.011 107.159 169.636C107.159 169.333 107.053 169.08 106.841 168.875C106.628 168.667 106.303 168.511 105.863 168.409L104.409 168.068C103.609 167.879 103.022 167.585 102.647 167.188C102.276 166.786 102.091 166.284 102.091 165.682C102.091 165.189 102.229 164.754 102.505 164.375C102.786 163.996 103.166 163.699 103.647 163.483C104.132 163.267 104.681 163.159 105.295 163.159C106.159 163.159 106.837 163.348 107.329 163.727C107.825 164.106 108.178 164.606 108.386 165.227ZM113.949 172.182C113.131 172.182 112.426 171.989 111.835 171.602C111.244 171.216 110.79 170.684 110.472 170.006C110.154 169.328 109.994 168.553 109.994 167.682C109.994 166.795 110.157 166.013 110.483 165.335C110.813 164.653 111.271 164.121 111.858 163.739C112.449 163.352 113.138 163.159 113.926 163.159C114.54 163.159 115.093 163.273 115.585 163.5C116.078 163.727 116.481 164.045 116.796 164.455C117.11 164.864 117.305 165.341 117.381 165.886H116.04C115.938 165.489 115.71 165.136 115.358 164.83C115.01 164.519 114.54 164.364 113.949 164.364C113.426 164.364 112.968 164.5 112.574 164.773C112.184 165.042 111.879 165.422 111.659 165.915C111.443 166.403 111.335 166.977 111.335 167.636C111.335 168.311 111.441 168.898 111.654 169.398C111.869 169.898 112.172 170.286 112.563 170.562C112.957 170.839 113.419 170.977 113.949 170.977C114.297 170.977 114.614 170.917 114.898 170.795C115.182 170.674 115.422 170.5 115.619 170.273C115.816 170.045 115.957 169.773 116.04 169.455H117.381C117.305 169.97 117.118 170.434 116.818 170.847C116.523 171.256 116.131 171.581 115.642 171.824C115.157 172.062 114.593 172.182 113.949 172.182ZM122.726 172.182C121.939 172.182 121.247 171.994 120.653 171.619C120.062 171.244 119.6 170.72 119.266 170.045C118.937 169.371 118.772 168.583 118.772 167.682C118.772 166.773 118.937 165.979 119.266 165.301C119.6 164.623 120.062 164.097 120.653 163.722C121.247 163.347 121.939 163.159 122.726 163.159C123.514 163.159 124.204 163.347 124.795 163.722C125.389 164.097 125.851 164.623 126.181 165.301C126.514 165.979 126.681 166.773 126.681 167.682C126.681 168.583 126.514 169.371 126.181 170.045C125.851 170.72 125.389 171.244 124.795 171.619C124.204 171.994 123.514 172.182 122.726 172.182ZM122.726 170.977C123.325 170.977 123.817 170.824 124.204 170.517C124.59 170.21 124.876 169.807 125.062 169.307C125.247 168.807 125.34 168.265 125.34 167.682C125.34 167.098 125.247 166.555 125.062 166.051C124.876 165.547 124.59 165.14 124.204 164.83C123.817 164.519 123.325 164.364 122.726 164.364C122.128 164.364 121.636 164.519 121.249 164.83C120.863 165.14 120.577 165.547 120.391 166.051C120.206 166.555 120.113 167.098 120.113 167.682C120.113 168.265 120.206 168.807 120.391 169.307C120.577 169.807 120.863 170.21 121.249 170.517C121.636 170.824 122.128 170.977 122.726 170.977ZM135.392 163.273L132.164 172H130.801L127.574 163.273H129.028L131.437 170.227H131.528L133.937 163.273H135.392ZM140.348 172.182C139.507 172.182 138.782 171.996 138.172 171.625C137.566 171.25 137.098 170.727 136.769 170.057C136.443 169.383 136.28 168.598 136.28 167.705C136.28 166.811 136.443 166.023 136.769 165.341C137.098 164.655 137.557 164.121 138.144 163.739C138.735 163.352 139.424 163.159 140.212 163.159C140.666 163.159 141.115 163.235 141.558 163.386C142.002 163.538 142.405 163.784 142.769 164.125C143.132 164.462 143.422 164.909 143.638 165.466C143.854 166.023 143.962 166.708 143.962 167.523V168.091H137.235V166.932H142.598C142.598 166.439 142.5 166 142.303 165.614C142.11 165.227 141.833 164.922 141.473 164.699C141.117 164.475 140.697 164.364 140.212 164.364C139.678 164.364 139.216 164.496 138.826 164.761C138.439 165.023 138.142 165.364 137.933 165.784C137.725 166.205 137.621 166.655 137.621 167.136V167.909C137.621 168.568 137.735 169.127 137.962 169.585C138.193 170.04 138.513 170.386 138.922 170.625C139.331 170.86 139.807 170.977 140.348 170.977C140.701 170.977 141.019 170.928 141.303 170.83C141.591 170.727 141.839 170.576 142.047 170.375C142.255 170.17 142.416 169.917 142.53 169.614L143.826 169.977C143.689 170.417 143.46 170.803 143.138 171.136C142.816 171.466 142.418 171.723 141.945 171.909C141.471 172.091 140.939 172.182 140.348 172.182ZM145.842 172V163.273H147.137V164.591H147.228C147.387 164.159 147.675 163.809 148.092 163.54C148.508 163.271 148.978 163.136 149.501 163.136C149.599 163.136 149.722 163.138 149.87 163.142C150.018 163.146 150.13 163.152 150.205 163.159V164.523C150.16 164.511 150.056 164.494 149.893 164.472C149.734 164.445 149.565 164.432 149.387 164.432C148.963 164.432 148.584 164.521 148.251 164.699C147.921 164.873 147.66 165.116 147.467 165.426C147.277 165.733 147.183 166.083 147.183 166.477V172H145.842ZM159.77 163.273V164.409H155.247V163.273H159.77ZM156.566 161.182H157.907V169.5C157.907 169.879 157.962 170.163 158.071 170.352C158.185 170.538 158.329 170.663 158.503 170.727C158.681 170.788 158.869 170.818 159.066 170.818C159.213 170.818 159.335 170.811 159.429 170.795C159.524 170.777 159.6 170.761 159.657 170.75L159.929 171.955C159.838 171.989 159.712 172.023 159.549 172.057C159.386 172.095 159.179 172.114 158.929 172.114C158.551 172.114 158.179 172.032 157.816 171.869C157.456 171.706 157.157 171.458 156.918 171.125C156.683 170.792 156.566 170.371 156.566 169.864V161.182ZM163.156 166.75V172H161.815V160.364H163.156V164.636H163.269C163.474 164.186 163.781 163.828 164.19 163.562C164.603 163.294 165.152 163.159 165.838 163.159C166.432 163.159 166.953 163.278 167.4 163.517C167.847 163.752 168.194 164.114 168.44 164.602C168.69 165.087 168.815 165.705 168.815 166.455V172H167.474V166.545C167.474 165.852 167.294 165.316 166.934 164.938C166.578 164.555 166.084 164.364 165.451 164.364C165.012 164.364 164.618 164.456 164.269 164.642C163.925 164.828 163.652 165.098 163.451 165.455C163.254 165.811 163.156 166.242 163.156 166.75ZM174.767 172.182C173.926 172.182 173.201 171.996 172.591 171.625C171.985 171.25 171.517 170.727 171.187 170.057C170.862 169.383 170.699 168.598 170.699 167.705C170.699 166.811 170.862 166.023 171.187 165.341C171.517 164.655 171.975 164.121 172.562 163.739C173.153 163.352 173.843 163.159 174.631 163.159C175.085 163.159 175.534 163.235 175.977 163.386C176.42 163.538 176.824 163.784 177.187 164.125C177.551 164.462 177.841 164.909 178.057 165.466C178.273 166.023 178.381 166.708 178.381 167.523V168.091H171.653V166.932H177.017C177.017 166.439 176.919 166 176.722 165.614C176.528 165.227 176.252 164.922 175.892 164.699C175.536 164.475 175.115 164.364 174.631 164.364C174.097 164.364 173.634 164.496 173.244 164.761C172.858 165.023 172.561 165.364 172.352 165.784C172.144 166.205 172.04 166.655 172.04 167.136V167.909C172.04 168.568 172.153 169.127 172.381 169.585C172.612 170.04 172.932 170.386 173.341 170.625C173.75 170.86 174.225 170.977 174.767 170.977C175.119 170.977 175.437 170.928 175.722 170.83C176.009 170.727 176.258 170.576 176.466 170.375C176.674 170.17 176.835 169.917 176.949 169.614L178.244 169.977C178.108 170.417 177.879 170.803 177.557 171.136C177.235 171.466 176.837 171.723 176.364 171.909C175.89 172.091 175.358 172.182 174.767 172.182ZM184.782 172V160.364H186.123V164.659H186.237C186.335 164.508 186.472 164.314 186.646 164.08C186.824 163.841 187.078 163.629 187.407 163.443C187.741 163.254 188.191 163.159 188.759 163.159C189.494 163.159 190.142 163.343 190.703 163.71C191.263 164.078 191.701 164.598 192.015 165.273C192.33 165.947 192.487 166.742 192.487 167.659C192.487 168.583 192.33 169.384 192.015 170.062C191.701 170.737 191.265 171.259 190.708 171.631C190.152 171.998 189.509 172.182 188.782 172.182C188.222 172.182 187.773 172.089 187.436 171.903C187.099 171.714 186.839 171.5 186.657 171.261C186.475 171.019 186.335 170.818 186.237 170.659H186.078V172H184.782ZM186.1 167.636C186.1 168.295 186.197 168.877 186.39 169.381C186.583 169.881 186.866 170.273 187.237 170.557C187.608 170.837 188.063 170.977 188.6 170.977C189.161 170.977 189.629 170.83 190.004 170.534C190.383 170.235 190.667 169.833 190.856 169.33C191.049 168.822 191.146 168.258 191.146 167.636C191.146 167.023 191.051 166.47 190.862 165.977C190.676 165.481 190.394 165.089 190.015 164.801C189.64 164.509 189.169 164.364 188.6 164.364C188.055 164.364 187.597 164.502 187.225 164.778C186.854 165.051 186.574 165.434 186.384 165.926C186.195 166.415 186.1 166.985 186.1 167.636ZM198.037 172.182C197.196 172.182 196.471 171.996 195.861 171.625C195.255 171.25 194.787 170.727 194.457 170.057C194.132 169.383 193.969 168.598 193.969 167.705C193.969 166.811 194.132 166.023 194.457 165.341C194.787 164.655 195.245 164.121 195.832 163.739C196.423 163.352 197.113 163.159 197.901 163.159C198.355 163.159 198.804 163.235 199.247 163.386C199.69 163.538 200.094 163.784 200.457 164.125C200.821 164.462 201.111 164.909 201.327 165.466C201.543 166.023 201.651 166.708 201.651 167.523V168.091H194.923V166.932H200.287C200.287 166.439 200.189 166 199.992 165.614C199.798 165.227 199.522 164.922 199.162 164.699C198.806 164.475 198.385 164.364 197.901 164.364C197.367 164.364 196.904 164.496 196.514 164.761C196.128 165.023 195.831 165.364 195.622 165.784C195.414 166.205 195.31 166.655 195.31 167.136V167.909C195.31 168.568 195.423 169.127 195.651 169.585C195.882 170.04 196.202 170.386 196.611 170.625C197.02 170.86 197.495 170.977 198.037 170.977C198.389 170.977 198.707 170.928 198.992 170.83C199.279 170.727 199.528 170.576 199.736 170.375C199.944 170.17 200.105 169.917 200.219 169.614L201.514 169.977C201.378 170.417 201.149 170.803 200.827 171.136C200.505 171.466 200.107 171.723 199.634 171.909C199.16 172.091 198.628 172.182 198.037 172.182ZM204.871 166.75V172H203.53V163.273H204.826V164.636H204.939C205.144 164.193 205.455 163.837 205.871 163.568C206.288 163.295 206.826 163.159 207.485 163.159C208.076 163.159 208.593 163.28 209.036 163.523C209.479 163.761 209.824 164.125 210.07 164.614C210.316 165.098 210.439 165.712 210.439 166.455V172H209.099V166.545C209.099 165.86 208.921 165.326 208.564 164.943C208.208 164.557 207.72 164.364 207.099 164.364C206.671 164.364 206.288 164.456 205.951 164.642C205.618 164.828 205.354 165.098 205.161 165.455C204.968 165.811 204.871 166.242 204.871 166.75ZM216.389 172.182C215.548 172.182 214.823 171.996 214.213 171.625C213.607 171.25 213.139 170.727 212.809 170.057C212.484 169.383 212.321 168.598 212.321 167.705C212.321 166.811 212.484 166.023 212.809 165.341C213.139 164.655 213.597 164.121 214.184 163.739C214.775 163.352 215.465 163.159 216.253 163.159C216.707 163.159 217.156 163.235 217.599 163.386C218.042 163.538 218.446 163.784 218.809 164.125C219.173 164.462 219.463 164.909 219.679 165.466C219.895 166.023 220.003 166.708 220.003 167.523V168.091H213.275V166.932H218.639C218.639 166.439 218.54 166 218.343 165.614C218.15 165.227 217.874 164.922 217.514 164.699C217.158 164.475 216.737 164.364 216.253 164.364C215.718 164.364 215.256 164.496 214.866 164.761C214.48 165.023 214.182 165.364 213.974 165.784C213.766 166.205 213.662 166.655 213.662 167.136V167.909C213.662 168.568 213.775 169.127 214.003 169.585C214.234 170.04 214.554 170.386 214.963 170.625C215.372 170.86 215.847 170.977 216.389 170.977C216.741 170.977 217.059 170.928 217.343 170.83C217.631 170.727 217.879 170.576 218.088 170.375C218.296 170.17 218.457 169.917 218.571 169.614L219.866 169.977C219.73 170.417 219.501 170.803 219.179 171.136C218.857 171.466 218.459 171.723 217.985 171.909C217.512 172.091 216.98 172.182 216.389 172.182ZM225.769 163.273V164.409H221.064V163.273H225.769ZM222.473 172V162.068C222.473 161.568 222.591 161.152 222.825 160.818C223.06 160.485 223.365 160.235 223.74 160.068C224.115 159.902 224.511 159.818 224.928 159.818C225.257 159.818 225.526 159.845 225.735 159.898C225.943 159.951 226.098 160 226.2 160.045L225.814 161.205C225.746 161.182 225.651 161.153 225.53 161.119C225.413 161.085 225.257 161.068 225.064 161.068C224.621 161.068 224.301 161.18 224.104 161.403C223.911 161.627 223.814 161.955 223.814 162.386V172H222.473ZM227.488 172V163.273H228.829V172H227.488ZM228.17 161.818C227.908 161.818 227.683 161.729 227.494 161.551C227.308 161.373 227.215 161.159 227.215 160.909C227.215 160.659 227.308 160.445 227.494 160.267C227.683 160.089 227.908 160 228.17 160C228.431 160 228.655 160.089 228.84 160.267C229.03 160.445 229.124 160.659 229.124 160.909C229.124 161.159 229.03 161.373 228.84 161.551C228.655 161.729 228.431 161.818 228.17 161.818ZM234.92 163.273V164.409H230.398V163.273H234.92ZM231.716 161.182H233.057V169.5C233.057 169.879 233.112 170.163 233.221 170.352C233.335 170.538 233.479 170.663 233.653 170.727C233.831 170.788 234.019 170.818 234.216 170.818C234.363 170.818 234.485 170.811 234.579 170.795C234.674 170.777 234.75 170.761 234.807 170.75L235.079 171.955C234.988 171.989 234.862 172.023 234.699 172.057C234.536 172.095 234.329 172.114 234.079 172.114C233.701 172.114 233.329 172.032 232.966 171.869C232.606 171.706 232.307 171.458 232.068 171.125C231.833 170.792 231.716 170.371 231.716 169.864V161.182ZM242.803 165.227L241.598 165.568C241.523 165.367 241.411 165.172 241.263 164.983C241.119 164.79 240.922 164.631 240.672 164.506C240.422 164.381 240.102 164.318 239.712 164.318C239.178 164.318 238.733 164.441 238.377 164.688C238.024 164.93 237.848 165.239 237.848 165.614C237.848 165.947 237.97 166.21 238.212 166.403C238.454 166.597 238.833 166.758 239.348 166.886L240.644 167.205C241.424 167.394 242.005 167.684 242.388 168.074C242.771 168.46 242.962 168.958 242.962 169.568C242.962 170.068 242.818 170.515 242.53 170.909C242.246 171.303 241.848 171.614 241.337 171.841C240.826 172.068 240.231 172.182 239.553 172.182C238.663 172.182 237.926 171.989 237.343 171.602C236.759 171.216 236.39 170.652 236.235 169.909L237.507 169.591C237.629 170.061 237.858 170.413 238.195 170.648C238.536 170.883 238.981 171 239.53 171C240.155 171 240.651 170.867 241.019 170.602C241.39 170.333 241.576 170.011 241.576 169.636C241.576 169.333 241.47 169.08 241.257 168.875C241.045 168.667 240.72 168.511 240.28 168.409L238.826 168.068C238.026 167.879 237.439 167.585 237.064 167.188C236.693 166.786 236.507 166.284 236.507 165.682C236.507 165.189 236.646 164.754 236.922 164.375C237.202 163.996 237.583 163.699 238.064 163.483C238.549 163.267 239.098 163.159 239.712 163.159C240.576 163.159 241.254 163.348 241.746 163.727C242.242 164.106 242.595 164.606 242.803 165.227ZM252.706 172.182C251.918 172.182 251.227 171.994 250.632 171.619C250.041 171.244 249.579 170.72 249.246 170.045C248.916 169.371 248.751 168.583 248.751 167.682C248.751 166.773 248.916 165.979 249.246 165.301C249.579 164.623 250.041 164.097 250.632 163.722C251.227 163.347 251.918 163.159 252.706 163.159C253.494 163.159 254.183 163.347 254.774 163.722C255.369 164.097 255.831 164.623 256.16 165.301C256.494 165.979 256.66 166.773 256.66 167.682C256.66 168.583 256.494 169.371 256.16 170.045C255.831 170.72 255.369 171.244 254.774 171.619C254.183 171.994 253.494 172.182 252.706 172.182ZM252.706 170.977C253.304 170.977 253.797 170.824 254.183 170.517C254.569 170.21 254.855 169.807 255.041 169.307C255.227 168.807 255.319 168.265 255.319 167.682C255.319 167.098 255.227 166.555 255.041 166.051C254.855 165.547 254.569 165.14 254.183 164.83C253.797 164.519 253.304 164.364 252.706 164.364C252.107 164.364 251.615 164.519 251.229 164.83C250.842 165.14 250.556 165.547 250.371 166.051C250.185 166.555 250.092 167.098 250.092 167.682C250.092 168.265 250.185 168.807 250.371 169.307C250.556 169.807 250.842 170.21 251.229 170.517C251.615 170.824 252.107 170.977 252.706 170.977ZM262.434 163.273V164.409H257.729V163.273H262.434ZM259.138 172V162.068C259.138 161.568 259.256 161.152 259.49 160.818C259.725 160.485 260.03 160.235 260.405 160.068C260.78 159.902 261.176 159.818 261.593 159.818C261.922 159.818 262.191 159.845 262.4 159.898C262.608 159.951 262.763 160 262.865 160.045L262.479 161.205C262.411 161.182 262.316 161.153 262.195 161.119C262.078 161.085 261.922 161.068 261.729 161.068C261.286 161.068 260.966 161.18 260.769 161.403C260.576 161.627 260.479 161.955 260.479 162.386V172H259.138ZM273.993 168.432V163.273H275.334V172H273.993V170.523H273.902C273.697 170.966 273.379 171.343 272.947 171.653C272.516 171.96 271.97 172.114 271.311 172.114C270.766 172.114 270.281 171.994 269.857 171.756C269.432 171.513 269.099 171.15 268.857 170.665C268.614 170.176 268.493 169.561 268.493 168.818V163.273H269.834V168.727C269.834 169.364 270.012 169.871 270.368 170.25C270.728 170.629 271.186 170.818 271.743 170.818C272.076 170.818 272.415 170.733 272.76 170.562C273.108 170.392 273.4 170.131 273.635 169.778C273.874 169.426 273.993 168.977 273.993 168.432ZM283.812 165.227L282.607 165.568C282.531 165.367 282.42 165.172 282.272 164.983C282.128 164.79 281.931 164.631 281.681 164.506C281.431 164.381 281.111 164.318 280.721 164.318C280.187 164.318 279.742 164.441 279.385 164.688C279.033 164.93 278.857 165.239 278.857 165.614C278.857 165.947 278.978 166.21 279.221 166.403C279.463 166.597 279.842 166.758 280.357 166.886L281.652 167.205C282.433 167.394 283.014 167.684 283.397 168.074C283.779 168.46 283.971 168.958 283.971 169.568C283.971 170.068 283.827 170.515 283.539 170.909C283.255 171.303 282.857 171.614 282.346 171.841C281.834 172.068 281.24 172.182 280.562 172.182C279.671 172.182 278.935 171.989 278.351 171.602C277.768 171.216 277.399 170.652 277.243 169.909L278.516 169.591C278.637 170.061 278.867 170.413 279.204 170.648C279.545 170.883 279.99 171 280.539 171C281.164 171 281.66 170.867 282.027 170.602C282.399 170.333 282.584 170.011 282.584 169.636C282.584 169.333 282.478 169.08 282.266 168.875C282.054 168.667 281.728 168.511 281.289 168.409L279.834 168.068C279.035 167.879 278.448 167.585 278.073 167.188C277.702 166.786 277.516 166.284 277.516 165.682C277.516 165.189 277.654 164.754 277.931 164.375C278.211 163.996 278.592 163.699 279.073 163.483C279.558 163.267 280.107 163.159 280.721 163.159C281.584 163.159 282.262 163.348 282.755 163.727C283.251 164.106 283.603 164.606 283.812 165.227ZM285.829 172V163.273H287.17V172H285.829ZM286.511 161.818C286.25 161.818 286.024 161.729 285.835 161.551C285.649 161.373 285.556 161.159 285.556 160.909C285.556 160.659 285.649 160.445 285.835 160.267C286.024 160.089 286.25 160 286.511 160C286.772 160 286.996 160.089 287.181 160.267C287.371 160.445 287.466 160.659 287.466 160.909C287.466 161.159 287.371 161.373 287.181 161.551C286.996 161.729 286.772 161.818 286.511 161.818ZM290.807 166.75V172H289.466V163.273H290.761V164.636H290.875C291.08 164.193 291.39 163.837 291.807 163.568C292.224 163.295 292.761 163.159 293.421 163.159C294.011 163.159 294.529 163.28 294.972 163.523C295.415 163.761 295.76 164.125 296.006 164.614C296.252 165.098 296.375 165.712 296.375 166.455V172H295.034V166.545C295.034 165.86 294.856 165.326 294.5 164.943C294.144 164.557 293.655 164.364 293.034 164.364C292.606 164.364 292.224 164.456 291.886 164.642C291.553 164.828 291.29 165.098 291.097 165.455C290.904 165.811 290.807 166.242 290.807 166.75ZM302.188 175.455C301.54 175.455 300.984 175.371 300.518 175.205C300.052 175.042 299.664 174.826 299.353 174.557C299.046 174.292 298.802 174.008 298.62 173.705L299.688 172.955C299.809 173.114 299.963 173.295 300.148 173.5C300.334 173.708 300.588 173.888 300.91 174.04C301.235 174.195 301.662 174.273 302.188 174.273C302.893 174.273 303.474 174.102 303.932 173.761C304.391 173.42 304.62 172.886 304.62 172.159V170.386H304.506C304.408 170.545 304.268 170.742 304.086 170.977C303.908 171.208 303.65 171.415 303.313 171.597C302.98 171.775 302.529 171.864 301.961 171.864C301.256 171.864 300.624 171.697 300.063 171.364C299.506 171.03 299.065 170.545 298.739 169.909C298.417 169.273 298.256 168.5 298.256 167.591C298.256 166.697 298.414 165.919 298.728 165.256C299.042 164.589 299.48 164.074 300.04 163.71C300.601 163.343 301.249 163.159 301.984 163.159C302.552 163.159 303.003 163.254 303.336 163.443C303.673 163.629 303.931 163.841 304.109 164.08C304.29 164.314 304.431 164.508 304.529 164.659H304.665V163.273H305.961V172.25C305.961 173 305.79 173.61 305.449 174.08C305.112 174.553 304.658 174.9 304.086 175.119C303.518 175.343 302.885 175.455 302.188 175.455ZM302.143 170.659C302.681 170.659 303.135 170.536 303.506 170.29C303.878 170.044 304.16 169.689 304.353 169.227C304.546 168.765 304.643 168.212 304.643 167.568C304.643 166.939 304.548 166.384 304.359 165.903C304.169 165.422 303.889 165.045 303.518 164.773C303.146 164.5 302.688 164.364 302.143 164.364C301.574 164.364 301.101 164.508 300.722 164.795C300.347 165.083 300.065 165.47 299.876 165.955C299.69 166.439 299.597 166.977 299.597 167.568C299.597 168.174 299.692 168.71 299.881 169.176C300.074 169.638 300.359 170.002 300.734 170.267C301.112 170.528 301.582 170.659 302.143 170.659ZM318.777 165.227L317.573 165.568C317.497 165.367 317.385 165.172 317.237 164.983C317.093 164.79 316.897 164.631 316.647 164.506C316.397 164.381 316.076 164.318 315.686 164.318C315.152 164.318 314.707 164.441 314.351 164.688C313.999 164.93 313.823 165.239 313.823 165.614C313.823 165.947 313.944 166.21 314.186 166.403C314.429 166.597 314.808 166.758 315.323 166.886L316.618 167.205C317.398 167.394 317.98 167.684 318.362 168.074C318.745 168.46 318.936 168.958 318.936 169.568C318.936 170.068 318.792 170.515 318.504 170.909C318.22 171.303 317.823 171.614 317.311 171.841C316.8 172.068 316.205 172.182 315.527 172.182C314.637 172.182 313.9 171.989 313.317 171.602C312.734 171.216 312.364 170.652 312.209 169.909L313.482 169.591C313.603 170.061 313.832 170.413 314.169 170.648C314.51 170.883 314.955 171 315.504 171C316.129 171 316.626 170.867 316.993 170.602C317.364 170.333 317.55 170.011 317.55 169.636C317.55 169.333 317.444 169.08 317.232 168.875C317.02 168.667 316.694 168.511 316.254 168.409L314.8 168.068C314.001 167.879 313.414 167.585 313.039 167.188C312.667 166.786 312.482 166.284 312.482 165.682C312.482 165.189 312.62 164.754 312.897 164.375C313.177 163.996 313.558 163.699 314.039 163.483C314.523 163.267 315.073 163.159 315.686 163.159C316.55 163.159 317.228 163.348 317.72 163.727C318.217 164.106 318.569 164.606 318.777 165.227ZM324.454 172.182C323.613 172.182 322.888 171.996 322.278 171.625C321.672 171.25 321.204 170.727 320.874 170.057C320.549 169.383 320.386 168.598 320.386 167.705C320.386 166.811 320.549 166.023 320.874 165.341C321.204 164.655 321.662 164.121 322.249 163.739C322.84 163.352 323.53 163.159 324.318 163.159C324.772 163.159 325.221 163.235 325.664 163.386C326.107 163.538 326.511 163.784 326.874 164.125C327.238 164.462 327.528 164.909 327.744 165.466C327.96 166.023 328.068 166.708 328.068 167.523V168.091H321.34V166.932H326.704C326.704 166.439 326.605 166 326.408 165.614C326.215 165.227 325.939 164.922 325.579 164.699C325.223 164.475 324.802 164.364 324.318 164.364C323.783 164.364 323.321 164.496 322.931 164.761C322.545 165.023 322.247 165.364 322.039 165.784C321.831 166.205 321.727 166.655 321.727 167.136V167.909C321.727 168.568 321.84 169.127 322.068 169.585C322.299 170.04 322.619 170.386 323.028 170.625C323.437 170.86 323.912 170.977 324.454 170.977C324.806 170.977 325.124 170.928 325.408 170.83C325.696 170.727 325.944 170.576 326.153 170.375C326.361 170.17 326.522 169.917 326.636 169.614L327.931 169.977C327.795 170.417 327.566 170.803 327.244 171.136C326.922 171.466 326.524 171.723 326.05 171.909C325.577 172.091 325.045 172.182 324.454 172.182ZM329.947 172V163.273H331.243V164.636H331.356C331.538 164.17 331.832 163.809 332.237 163.551C332.642 163.29 333.129 163.159 333.697 163.159C334.273 163.159 334.752 163.29 335.135 163.551C335.521 163.809 335.822 164.17 336.038 164.636H336.129C336.353 164.186 336.688 163.828 337.135 163.562C337.582 163.294 338.118 163.159 338.743 163.159C339.523 163.159 340.161 163.403 340.658 163.892C341.154 164.377 341.402 165.133 341.402 166.159V172H340.061V166.159C340.061 165.515 339.885 165.055 339.533 164.778C339.18 164.502 338.765 164.364 338.288 164.364C337.675 164.364 337.199 164.549 336.862 164.92C336.525 165.288 336.356 165.754 336.356 166.318V172H334.993V166.023C334.993 165.527 334.832 165.127 334.51 164.824C334.188 164.517 333.773 164.364 333.265 164.364C332.917 164.364 332.591 164.456 332.288 164.642C331.989 164.828 331.747 165.085 331.561 165.415C331.379 165.741 331.288 166.117 331.288 166.545V172H329.947ZM346.262 172.205C345.709 172.205 345.207 172.1 344.756 171.892C344.305 171.68 343.947 171.375 343.682 170.977C343.417 170.576 343.284 170.091 343.284 169.523C343.284 169.023 343.383 168.617 343.58 168.307C343.777 167.992 344.04 167.746 344.37 167.568C344.699 167.39 345.063 167.258 345.461 167.17C345.862 167.08 346.265 167.008 346.671 166.955C347.201 166.886 347.631 166.835 347.961 166.801C348.294 166.763 348.536 166.701 348.688 166.614C348.843 166.527 348.921 166.375 348.921 166.159V166.114C348.921 165.553 348.767 165.117 348.461 164.807C348.158 164.496 347.697 164.341 347.08 164.341C346.44 164.341 345.938 164.481 345.574 164.761C345.211 165.042 344.955 165.341 344.807 165.659L343.534 165.205C343.762 164.674 344.065 164.261 344.444 163.966C344.826 163.667 345.243 163.458 345.694 163.341C346.148 163.22 346.595 163.159 347.034 163.159C347.315 163.159 347.637 163.193 348 163.261C348.368 163.326 348.722 163.46 349.063 163.665C349.408 163.869 349.694 164.178 349.921 164.591C350.148 165.004 350.262 165.557 350.262 166.25V172H348.921V170.818H348.853C348.762 171.008 348.61 171.21 348.398 171.426C348.186 171.642 347.904 171.826 347.551 171.977C347.199 172.129 346.769 172.205 346.262 172.205ZM346.466 171C346.997 171 347.444 170.896 347.807 170.688C348.175 170.479 348.451 170.21 348.637 169.881C348.826 169.551 348.921 169.205 348.921 168.841V167.614C348.864 167.682 348.739 167.744 348.546 167.801C348.356 167.854 348.137 167.902 347.887 167.943C347.64 167.981 347.4 168.015 347.165 168.045C346.934 168.072 346.747 168.095 346.603 168.114C346.254 168.159 345.928 168.233 345.625 168.335C345.326 168.434 345.084 168.583 344.898 168.784C344.716 168.981 344.625 169.25 344.625 169.591C344.625 170.057 344.798 170.409 345.142 170.648C345.491 170.883 345.932 171 346.466 171ZM353.89 166.75V172H352.549V163.273H353.845V164.636H353.958C354.163 164.193 354.473 163.837 354.89 163.568C355.307 163.295 355.845 163.159 356.504 163.159C357.095 163.159 357.612 163.28 358.055 163.523C358.498 163.761 358.843 164.125 359.089 164.614C359.335 165.098 359.458 165.712 359.458 166.455V172H358.117V166.545C358.117 165.86 357.939 165.326 357.583 164.943C357.227 164.557 356.739 164.364 356.117 164.364C355.689 164.364 355.307 164.456 354.97 164.642C354.636 164.828 354.373 165.098 354.18 165.455C353.987 165.811 353.89 166.242 353.89 166.75ZM365.544 163.273V164.409H361.021V163.273H365.544ZM362.339 161.182H363.68V169.5C363.68 169.879 363.735 170.163 363.845 170.352C363.959 170.538 364.103 170.663 364.277 170.727C364.455 170.788 364.642 170.818 364.839 170.818C364.987 170.818 365.108 170.811 365.203 170.795C365.298 170.777 365.374 170.761 365.43 170.75L365.703 171.955C365.612 171.989 365.485 172.023 365.322 172.057C365.159 172.095 364.953 172.114 364.703 172.114C364.324 172.114 363.953 172.032 363.589 171.869C363.23 171.706 362.93 171.458 362.692 171.125C362.457 170.792 362.339 170.371 362.339 169.864V161.182ZM367.401 172V163.273H368.742V172H367.401ZM368.083 161.818C367.821 161.818 367.596 161.729 367.407 161.551C367.221 161.373 367.128 161.159 367.128 160.909C367.128 160.659 367.221 160.445 367.407 160.267C367.596 160.089 367.821 160 368.083 160C368.344 160 368.568 160.089 368.753 160.267C368.943 160.445 369.037 160.659 369.037 160.909C369.037 161.159 368.943 161.373 368.753 161.551C368.568 161.729 368.344 161.818 368.083 161.818ZM374.583 172.182C373.765 172.182 373.061 171.989 372.47 171.602C371.879 171.216 371.424 170.684 371.106 170.006C370.788 169.328 370.629 168.553 370.629 167.682C370.629 166.795 370.792 166.013 371.117 165.335C371.447 164.653 371.905 164.121 372.492 163.739C373.083 163.352 373.773 163.159 374.561 163.159C375.174 163.159 375.727 163.273 376.22 163.5C376.712 163.727 377.116 164.045 377.43 164.455C377.744 164.864 377.939 165.341 378.015 165.886H376.674C376.572 165.489 376.345 165.136 375.992 164.83C375.644 164.519 375.174 164.364 374.583 164.364C374.061 164.364 373.602 164.5 373.208 164.773C372.818 165.042 372.513 165.422 372.294 165.915C372.078 166.403 371.97 166.977 371.97 167.636C371.97 168.311 372.076 168.898 372.288 169.398C372.504 169.898 372.807 170.286 373.197 170.562C373.591 170.839 374.053 170.977 374.583 170.977C374.932 170.977 375.248 170.917 375.532 170.795C375.816 170.674 376.057 170.5 376.254 170.273C376.451 170.045 376.591 169.773 376.674 169.455H378.015C377.939 169.97 377.752 170.434 377.453 170.847C377.157 171.256 376.765 171.581 376.277 171.824C375.792 172.062 375.227 172.182 374.583 172.182ZM384.337 172V160.364H385.746V165.545H391.951V160.364H393.36V172H391.951V166.795H385.746V172H384.337ZM395.385 161.614V160.364H404.112V161.614H400.453V172H399.044V161.614H395.385ZM406.127 160.364H407.808L411.763 170.023H411.899L415.854 160.364H417.536V172H416.217V163.159H416.104L412.467 172H411.195L407.558 163.159H407.445V172H406.127V160.364ZM420.201 172V160.364H421.61V170.75H427.019V172H420.201ZM90.8864 196.182C90.0455 196.182 89.3201 195.996 88.7102 195.625C88.1042 195.25 87.6364 194.727 87.3068 194.057C86.9811 193.383 86.8182 192.598 86.8182 191.705C86.8182 190.811 86.9811 190.023 87.3068 189.341C87.6364 188.655 88.0947 188.121 88.6818 187.739C89.2727 187.352 89.9621 187.159 90.75 187.159C91.2045 187.159 91.6534 187.235 92.0966 187.386C92.5398 187.538 92.9432 187.784 93.3068 188.125C93.6705 188.462 93.9602 188.909 94.1761 189.466C94.392 190.023 94.5 190.708 94.5 191.523V192.091H87.7727V190.932H93.1364C93.1364 190.439 93.0379 190 92.8409 189.614C92.6477 189.227 92.3712 188.922 92.0114 188.699C91.6553 188.475 91.2348 188.364 90.75 188.364C90.2159 188.364 89.7538 188.496 89.3636 188.761C88.9773 189.023 88.6799 189.364 88.4716 189.784C88.2633 190.205 88.1591 190.655 88.1591 191.136V191.909C88.1591 192.568 88.2727 193.127 88.5 193.585C88.7311 194.04 89.0511 194.386 89.4602 194.625C89.8693 194.86 90.3447 194.977 90.8864 194.977C91.2386 194.977 91.5568 194.928 91.8409 194.83C92.1288 194.727 92.3769 194.576 92.5852 194.375C92.7936 194.17 92.9545 193.917 93.0682 193.614L94.3636 193.977C94.2273 194.417 93.9981 194.803 93.6761 195.136C93.3542 195.466 92.9564 195.723 92.483 195.909C92.0095 196.091 91.4773 196.182 90.8864 196.182ZM97.7207 184.364V196H96.3798V184.364H97.7207ZM103.676 196.182C102.835 196.182 102.109 195.996 101.5 195.625C100.894 195.25 100.426 194.727 100.096 194.057C99.7704 193.383 99.6076 192.598 99.6076 191.705C99.6076 190.811 99.7704 190.023 100.096 189.341C100.426 188.655 100.884 188.121 101.471 187.739C102.062 187.352 102.751 187.159 103.539 187.159C103.994 187.159 104.443 187.235 104.886 187.386C105.329 187.538 105.733 187.784 106.096 188.125C106.46 188.462 106.75 188.909 106.966 189.466C107.181 190.023 107.289 190.708 107.289 191.523V192.091H100.562V190.932H105.926C105.926 190.439 105.827 190 105.63 189.614C105.437 189.227 105.161 188.922 104.801 188.699C104.445 188.475 104.024 188.364 103.539 188.364C103.005 188.364 102.543 188.496 102.153 188.761C101.767 189.023 101.469 189.364 101.261 189.784C101.053 190.205 100.948 190.655 100.948 191.136V191.909C100.948 192.568 101.062 193.127 101.289 193.585C101.52 194.04 101.841 194.386 102.25 194.625C102.659 194.86 103.134 194.977 103.676 194.977C104.028 194.977 104.346 194.928 104.63 194.83C104.918 194.727 105.166 194.576 105.375 194.375C105.583 194.17 105.744 193.917 105.858 193.614L107.153 193.977C107.017 194.417 106.787 194.803 106.466 195.136C106.144 195.466 105.746 195.723 105.272 195.909C104.799 196.091 104.267 196.182 103.676 196.182ZM109.169 196V187.273H110.465V188.636H110.578C110.76 188.17 111.054 187.809 111.459 187.551C111.864 187.29 112.351 187.159 112.919 187.159C113.495 187.159 113.974 187.29 114.357 187.551C114.743 187.809 115.044 188.17 115.26 188.636H115.351C115.574 188.186 115.91 187.828 116.357 187.562C116.804 187.294 117.34 187.159 117.965 187.159C118.745 187.159 119.383 187.403 119.879 187.892C120.376 188.377 120.624 189.133 120.624 190.159V196H119.283V190.159C119.283 189.515 119.107 189.055 118.754 188.778C118.402 188.502 117.987 188.364 117.51 188.364C116.896 188.364 116.421 188.549 116.084 188.92C115.747 189.288 115.578 189.754 115.578 190.318V196H114.215V190.023C114.215 189.527 114.054 189.127 113.732 188.824C113.41 188.517 112.995 188.364 112.487 188.364C112.139 188.364 111.813 188.456 111.51 188.642C111.211 188.828 110.968 189.085 110.783 189.415C110.601 189.741 110.51 190.117 110.51 190.545V196H109.169ZM126.574 196.182C125.734 196.182 125.008 195.996 124.398 195.625C123.792 195.25 123.324 194.727 122.995 194.057C122.669 193.383 122.506 192.598 122.506 191.705C122.506 190.811 122.669 190.023 122.995 189.341C123.324 188.655 123.783 188.121 124.37 187.739C124.961 187.352 125.65 187.159 126.438 187.159C126.893 187.159 127.342 187.235 127.785 187.386C128.228 187.538 128.631 187.784 128.995 188.125C129.359 188.462 129.648 188.909 129.864 189.466C130.08 190.023 130.188 190.708 130.188 191.523V192.091H123.461V190.932H128.824C128.824 190.439 128.726 190 128.529 189.614C128.336 189.227 128.059 188.922 127.699 188.699C127.343 188.475 126.923 188.364 126.438 188.364C125.904 188.364 125.442 188.496 125.052 188.761C124.665 189.023 124.368 189.364 124.16 189.784C123.951 190.205 123.847 190.655 123.847 191.136V191.909C123.847 192.568 123.961 193.127 124.188 193.585C124.419 194.04 124.739 194.386 125.148 194.625C125.557 194.86 126.033 194.977 126.574 194.977C126.927 194.977 127.245 194.928 127.529 194.83C127.817 194.727 128.065 194.576 128.273 194.375C128.482 194.17 128.643 193.917 128.756 193.614L130.052 193.977C129.915 194.417 129.686 194.803 129.364 195.136C129.042 195.466 128.645 195.723 128.171 195.909C127.698 196.091 127.165 196.182 126.574 196.182ZM133.409 190.75V196H132.068V187.273H133.363V188.636H133.477C133.682 188.193 133.992 187.837 134.409 187.568C134.825 187.295 135.363 187.159 136.022 187.159C136.613 187.159 137.13 187.28 137.574 187.523C138.017 187.761 138.361 188.125 138.608 188.614C138.854 189.098 138.977 189.712 138.977 190.455V196H137.636V190.545C137.636 189.86 137.458 189.326 137.102 188.943C136.746 188.557 136.257 188.364 135.636 188.364C135.208 188.364 134.825 188.456 134.488 188.642C134.155 188.828 133.892 189.098 133.699 189.455C133.505 189.811 133.409 190.242 133.409 190.75ZM145.063 187.273V188.409H140.54V187.273H145.063ZM141.858 185.182H143.199V193.5C143.199 193.879 143.254 194.163 143.364 194.352C143.478 194.538 143.621 194.663 143.796 194.727C143.974 194.788 144.161 194.818 144.358 194.818C144.506 194.818 144.627 194.811 144.722 194.795C144.817 194.777 144.892 194.761 144.949 194.75L145.222 195.955C145.131 195.989 145.004 196.023 144.841 196.057C144.678 196.095 144.472 196.114 144.222 196.114C143.843 196.114 143.472 196.032 143.108 195.869C142.748 195.706 142.449 195.458 142.21 195.125C141.976 194.792 141.858 194.371 141.858 193.864V185.182ZM152.945 189.227L151.741 189.568C151.665 189.367 151.553 189.172 151.406 188.983C151.262 188.79 151.065 188.631 150.815 188.506C150.565 188.381 150.245 188.318 149.854 188.318C149.32 188.318 148.875 188.441 148.519 188.688C148.167 188.93 147.991 189.239 147.991 189.614C147.991 189.947 148.112 190.21 148.354 190.403C148.597 190.597 148.976 190.758 149.491 190.886L150.786 191.205C151.567 191.394 152.148 191.684 152.531 192.074C152.913 192.46 153.104 192.958 153.104 193.568C153.104 194.068 152.96 194.515 152.673 194.909C152.389 195.303 151.991 195.614 151.479 195.841C150.968 196.068 150.373 196.182 149.695 196.182C148.805 196.182 148.068 195.989 147.485 195.602C146.902 195.216 146.532 194.652 146.377 193.909L147.65 193.591C147.771 194.061 148 194.413 148.337 194.648C148.678 194.883 149.123 195 149.673 195C150.298 195 150.794 194.867 151.161 194.602C151.532 194.333 151.718 194.011 151.718 193.636C151.718 193.333 151.612 193.08 151.4 192.875C151.188 192.667 150.862 192.511 150.423 192.409L148.968 192.068C148.169 191.879 147.582 191.585 147.207 191.188C146.835 190.786 146.65 190.284 146.65 189.682C146.65 189.189 146.788 188.754 147.065 188.375C147.345 187.996 147.726 187.699 148.207 187.483C148.692 187.267 149.241 187.159 149.854 187.159C150.718 187.159 151.396 187.348 151.889 187.727C152.385 188.106 152.737 188.606 152.945 189.227ZM163.189 187.273V188.409H158.485V187.273H163.189ZM159.894 196V186.068C159.894 185.568 160.011 185.152 160.246 184.818C160.481 184.485 160.786 184.235 161.161 184.068C161.536 183.902 161.932 183.818 162.348 183.818C162.678 183.818 162.947 183.845 163.155 183.898C163.364 183.951 163.519 184 163.621 184.045L163.235 185.205C163.167 185.182 163.072 185.153 162.951 185.119C162.833 185.085 162.678 185.068 162.485 185.068C162.042 185.068 161.721 185.18 161.524 185.403C161.331 185.627 161.235 185.955 161.235 186.386V196H159.894ZM168.095 196.182C167.307 196.182 166.615 195.994 166.021 195.619C165.43 195.244 164.968 194.72 164.634 194.045C164.305 193.371 164.14 192.583 164.14 191.682C164.14 190.773 164.305 189.979 164.634 189.301C164.968 188.623 165.43 188.097 166.021 187.722C166.615 187.347 167.307 187.159 168.095 187.159C168.882 187.159 169.572 187.347 170.163 187.722C170.757 188.097 171.22 188.623 171.549 189.301C171.882 189.979 172.049 190.773 172.049 191.682C172.049 192.583 171.882 193.371 171.549 194.045C171.22 194.72 170.757 195.244 170.163 195.619C169.572 195.994 168.882 196.182 168.095 196.182ZM168.095 194.977C168.693 194.977 169.186 194.824 169.572 194.517C169.958 194.21 170.244 193.807 170.43 193.307C170.615 192.807 170.708 192.265 170.708 191.682C170.708 191.098 170.615 190.555 170.43 190.051C170.244 189.547 169.958 189.14 169.572 188.83C169.186 188.519 168.693 188.364 168.095 188.364C167.496 188.364 167.004 188.519 166.617 188.83C166.231 189.14 165.945 189.547 165.759 190.051C165.574 190.555 165.481 191.098 165.481 191.682C165.481 192.265 165.574 192.807 165.759 193.307C165.945 193.807 166.231 194.21 166.617 194.517C167.004 194.824 167.496 194.977 168.095 194.977ZM173.936 196V187.273H175.231V188.591H175.322C175.481 188.159 175.769 187.809 176.186 187.54C176.603 187.271 177.072 187.136 177.595 187.136C177.694 187.136 177.817 187.138 177.964 187.142C178.112 187.146 178.224 187.152 178.3 187.159V188.523C178.254 188.511 178.15 188.494 177.987 188.472C177.828 188.445 177.66 188.432 177.481 188.432C177.057 188.432 176.678 188.521 176.345 188.699C176.016 188.873 175.754 189.116 175.561 189.426C175.372 189.733 175.277 190.083 175.277 190.477V196H173.936ZM184.069 196V187.273H185.41V196H184.069ZM184.751 185.818C184.49 185.818 184.264 185.729 184.075 185.551C183.889 185.373 183.796 185.159 183.796 184.909C183.796 184.659 183.889 184.445 184.075 184.267C184.264 184.089 184.49 184 184.751 184C185.012 184 185.236 184.089 185.421 184.267C185.611 184.445 185.706 184.659 185.706 184.909C185.706 185.159 185.611 185.373 185.421 185.551C185.236 185.729 185.012 185.818 184.751 185.818ZM187.706 196V187.273H189.001V188.636H189.115C189.297 188.17 189.59 187.809 189.996 187.551C190.401 187.29 190.888 187.159 191.456 187.159C192.032 187.159 192.511 187.29 192.894 187.551C193.28 187.809 193.581 188.17 193.797 188.636H193.888C194.111 188.186 194.447 187.828 194.894 187.562C195.34 187.294 195.876 187.159 196.501 187.159C197.282 187.159 197.92 187.403 198.416 187.892C198.912 188.377 199.161 189.133 199.161 190.159V196H197.82V190.159C197.82 189.515 197.644 189.055 197.291 188.778C196.939 188.502 196.524 188.364 196.047 188.364C195.433 188.364 194.958 188.549 194.621 188.92C194.284 189.288 194.115 189.754 194.115 190.318V196H192.751V190.023C192.751 189.527 192.59 189.127 192.269 188.824C191.947 188.517 191.532 188.364 191.024 188.364C190.676 188.364 190.35 188.456 190.047 188.642C189.748 188.828 189.505 189.085 189.32 189.415C189.138 189.741 189.047 190.117 189.047 190.545V196H187.706ZM201.452 199.273V187.273H202.748V188.659H202.907C203.005 188.508 203.142 188.314 203.316 188.08C203.494 187.841 203.748 187.629 204.077 187.443C204.411 187.254 204.861 187.159 205.43 187.159C206.164 187.159 206.812 187.343 207.373 187.71C207.933 188.078 208.371 188.598 208.685 189.273C209 189.947 209.157 190.742 209.157 191.659C209.157 192.583 209 193.384 208.685 194.062C208.371 194.737 207.935 195.259 207.378 195.631C206.822 195.998 206.18 196.182 205.452 196.182C204.892 196.182 204.443 196.089 204.106 195.903C203.769 195.714 203.509 195.5 203.327 195.261C203.145 195.019 203.005 194.818 202.907 194.659H202.793V199.273H201.452ZM202.77 191.636C202.77 192.295 202.867 192.877 203.06 193.381C203.253 193.881 203.536 194.273 203.907 194.557C204.278 194.837 204.733 194.977 205.27 194.977C205.831 194.977 206.299 194.83 206.674 194.534C207.053 194.235 207.337 193.833 207.526 193.33C207.719 192.822 207.816 192.258 207.816 191.636C207.816 191.023 207.721 190.47 207.532 189.977C207.346 189.481 207.064 189.089 206.685 188.801C206.31 188.509 205.839 188.364 205.27 188.364C204.725 188.364 204.267 188.502 203.895 188.778C203.524 189.051 203.244 189.434 203.055 189.926C202.865 190.415 202.77 190.985 202.77 191.636ZM211.042 196V187.273H212.338V188.591H212.429C212.588 188.159 212.876 187.809 213.292 187.54C213.709 187.271 214.179 187.136 214.701 187.136C214.8 187.136 214.923 187.138 215.071 187.142C215.218 187.146 215.33 187.152 215.406 187.159V188.523C215.36 188.511 215.256 188.494 215.093 188.472C214.934 188.445 214.766 188.432 214.588 188.432C214.163 188.432 213.785 188.521 213.451 188.699C213.122 188.873 212.86 189.116 212.667 189.426C212.478 189.733 212.383 190.083 212.383 190.477V196H211.042ZM220.115 196.182C219.327 196.182 218.636 195.994 218.041 195.619C217.45 195.244 216.988 194.72 216.655 194.045C216.325 193.371 216.161 192.583 216.161 191.682C216.161 190.773 216.325 189.979 216.655 189.301C216.988 188.623 217.45 188.097 218.041 187.722C218.636 187.347 219.327 187.159 220.115 187.159C220.903 187.159 221.592 187.347 222.183 187.722C222.778 188.097 223.24 188.623 223.57 189.301C223.903 189.979 224.07 190.773 224.07 191.682C224.07 192.583 223.903 193.371 223.57 194.045C223.24 194.72 222.778 195.244 222.183 195.619C221.592 195.994 220.903 196.182 220.115 196.182ZM220.115 194.977C220.714 194.977 221.206 194.824 221.592 194.517C221.979 194.21 222.265 193.807 222.45 193.307C222.636 192.807 222.729 192.265 222.729 191.682C222.729 191.098 222.636 190.555 222.45 190.051C222.265 189.547 221.979 189.14 221.592 188.83C221.206 188.519 220.714 188.364 220.115 188.364C219.517 188.364 219.024 188.519 218.638 188.83C218.252 189.14 217.966 189.547 217.78 190.051C217.594 190.555 217.502 191.098 217.502 191.682C217.502 192.265 217.594 192.807 217.78 193.307C217.966 193.807 218.252 194.21 218.638 194.517C219.024 194.824 219.517 194.977 220.115 194.977ZM232.781 187.273L229.553 196H228.19L224.962 187.273H226.417L228.826 194.227H228.917L231.326 187.273H232.781ZM237.737 196.182C236.896 196.182 236.171 195.996 235.561 195.625C234.955 195.25 234.487 194.727 234.157 194.057C233.832 193.383 233.669 192.598 233.669 191.705C233.669 190.811 233.832 190.023 234.157 189.341C234.487 188.655 234.945 188.121 235.532 187.739C236.123 187.352 236.813 187.159 237.601 187.159C238.055 187.159 238.504 187.235 238.947 187.386C239.39 187.538 239.794 187.784 240.157 188.125C240.521 188.462 240.811 188.909 241.027 189.466C241.243 190.023 241.351 190.708 241.351 191.523V192.091H234.623V190.932H239.987C239.987 190.439 239.889 190 239.692 189.614C239.498 189.227 239.222 188.922 238.862 188.699C238.506 188.475 238.085 188.364 237.601 188.364C237.067 188.364 236.604 188.496 236.214 188.761C235.828 189.023 235.531 189.364 235.322 189.784C235.114 190.205 235.01 190.655 235.01 191.136V191.909C235.01 192.568 235.123 193.127 235.351 193.585C235.582 194.04 235.902 194.386 236.311 194.625C236.72 194.86 237.195 194.977 237.737 194.977C238.089 194.977 238.407 194.928 238.692 194.83C238.979 194.727 239.228 194.576 239.436 194.375C239.644 194.17 239.805 193.917 239.919 193.614L241.214 193.977C241.078 194.417 240.849 194.803 240.527 195.136C240.205 195.466 239.807 195.723 239.334 195.909C238.86 196.091 238.328 196.182 237.737 196.182ZM246.526 196.182C245.799 196.182 245.157 195.998 244.6 195.631C244.043 195.259 243.607 194.737 243.293 194.062C242.979 193.384 242.821 192.583 242.821 191.659C242.821 190.742 242.979 189.947 243.293 189.273C243.607 188.598 244.045 188.078 244.605 187.71C245.166 187.343 245.814 187.159 246.549 187.159C247.117 187.159 247.566 187.254 247.895 187.443C248.229 187.629 248.482 187.841 248.657 188.08C248.835 188.314 248.973 188.508 249.071 188.659H249.185V184.364H250.526V196H249.23V194.659H249.071C248.973 194.818 248.833 195.019 248.651 195.261C248.469 195.5 248.21 195.714 247.872 195.903C247.535 196.089 247.086 196.182 246.526 196.182ZM246.708 194.977C247.246 194.977 247.7 194.837 248.071 194.557C248.443 194.273 248.725 193.881 248.918 193.381C249.111 192.877 249.208 192.295 249.208 191.636C249.208 190.985 249.113 190.415 248.924 189.926C248.734 189.434 248.454 189.051 248.083 188.778C247.711 188.502 247.253 188.364 246.708 188.364C246.139 188.364 245.666 188.509 245.287 188.801C244.912 189.089 244.63 189.481 244.441 189.977C244.255 190.47 244.162 191.023 244.162 191.636C244.162 192.258 244.257 192.822 244.446 193.33C244.639 193.833 244.924 194.235 245.299 194.534C245.677 194.83 246.147 194.977 246.708 194.977ZM264.484 187.273L261.257 196H259.893L256.666 187.273H258.121L260.53 194.227H260.621L263.03 187.273H264.484ZM266.094 196V187.273H267.435V196H266.094ZM266.776 185.818C266.515 185.818 266.289 185.729 266.1 185.551C265.914 185.373 265.821 185.159 265.821 184.909C265.821 184.659 265.914 184.445 266.1 184.267C266.289 184.089 266.515 184 266.776 184C267.037 184 267.261 184.089 267.446 184.267C267.636 184.445 267.731 184.659 267.731 184.909C267.731 185.159 267.636 185.373 267.446 185.551C267.261 185.729 267.037 185.818 266.776 185.818ZM275.913 189.227L274.708 189.568C274.633 189.367 274.521 189.172 274.373 188.983C274.229 188.79 274.032 188.631 273.782 188.506C273.532 188.381 273.212 188.318 272.822 188.318C272.288 188.318 271.843 188.441 271.487 188.688C271.134 188.93 270.958 189.239 270.958 189.614C270.958 189.947 271.08 190.21 271.322 190.403C271.564 190.597 271.943 190.758 272.458 190.886L273.754 191.205C274.534 191.394 275.115 191.684 275.498 192.074C275.881 192.46 276.072 192.958 276.072 193.568C276.072 194.068 275.928 194.515 275.64 194.909C275.356 195.303 274.958 195.614 274.447 195.841C273.936 196.068 273.341 196.182 272.663 196.182C271.773 196.182 271.036 195.989 270.453 195.602C269.869 195.216 269.5 194.652 269.345 193.909L270.617 193.591C270.739 194.061 270.968 194.413 271.305 194.648C271.646 194.883 272.091 195 272.64 195C273.265 195 273.761 194.867 274.129 194.602C274.5 194.333 274.686 194.011 274.686 193.636C274.686 193.333 274.58 193.08 274.367 192.875C274.155 192.667 273.83 192.511 273.39 192.409L271.936 192.068C271.136 191.879 270.549 191.585 270.174 191.188C269.803 190.786 269.617 190.284 269.617 189.682C269.617 189.189 269.756 188.754 270.032 188.375C270.312 187.996 270.693 187.699 271.174 187.483C271.659 187.267 272.208 187.159 272.822 187.159C273.686 187.159 274.364 187.348 274.856 187.727C275.352 188.106 275.705 188.606 275.913 189.227ZM277.93 196V187.273H279.271V196H277.93ZM278.612 185.818C278.351 185.818 278.125 185.729 277.936 185.551C277.75 185.373 277.658 185.159 277.658 184.909C277.658 184.659 277.75 184.445 277.936 184.267C278.125 184.089 278.351 184 278.612 184C278.874 184 279.097 184.089 279.283 184.267C279.472 184.445 279.567 184.659 279.567 184.909C279.567 185.159 279.472 185.373 279.283 185.551C279.097 185.729 278.874 185.818 278.612 185.818ZM281.749 196V184.364H283.09V188.659H283.204C283.302 188.508 283.438 188.314 283.613 188.08C283.791 187.841 284.045 187.629 284.374 187.443C284.707 187.254 285.158 187.159 285.726 187.159C286.461 187.159 287.109 187.343 287.67 187.71C288.23 188.078 288.668 188.598 288.982 189.273C289.296 189.947 289.454 190.742 289.454 191.659C289.454 192.583 289.296 193.384 288.982 194.062C288.668 194.737 288.232 195.259 287.675 195.631C287.118 195.998 286.476 196.182 285.749 196.182C285.188 196.182 284.74 196.089 284.402 195.903C284.065 195.714 283.806 195.5 283.624 195.261C283.442 195.019 283.302 194.818 283.204 194.659H283.045V196H281.749ZM283.067 191.636C283.067 192.295 283.164 192.877 283.357 193.381C283.55 193.881 283.832 194.273 284.204 194.557C284.575 194.837 285.029 194.977 285.567 194.977C286.128 194.977 286.596 194.83 286.971 194.534C287.349 194.235 287.634 193.833 287.823 193.33C288.016 192.822 288.113 192.258 288.113 191.636C288.113 191.023 288.018 190.47 287.829 189.977C287.643 189.481 287.361 189.089 286.982 188.801C286.607 188.509 286.135 188.364 285.567 188.364C285.022 188.364 284.563 188.502 284.192 188.778C283.821 189.051 283.541 189.434 283.351 189.926C283.162 190.415 283.067 190.985 283.067 191.636ZM291.345 196V187.273H292.686V196H291.345ZM292.027 185.818C291.765 185.818 291.54 185.729 291.35 185.551C291.165 185.373 291.072 185.159 291.072 184.909C291.072 184.659 291.165 184.445 291.35 184.267C291.54 184.089 291.765 184 292.027 184C292.288 184 292.511 184.089 292.697 184.267C292.886 184.445 292.981 184.659 292.981 184.909C292.981 185.159 292.886 185.373 292.697 185.551C292.511 185.729 292.288 185.818 292.027 185.818ZM296.323 184.364V196H294.982V184.364H296.323ZM298.619 196V187.273H299.959V196H298.619ZM299.3 185.818C299.039 185.818 298.814 185.729 298.624 185.551C298.439 185.373 298.346 185.159 298.346 184.909C298.346 184.659 298.439 184.445 298.624 184.267C298.814 184.089 299.039 184 299.3 184C299.562 184 299.785 184.089 299.971 184.267C300.16 184.445 300.255 184.659 300.255 184.909C300.255 185.159 300.16 185.373 299.971 185.551C299.785 185.729 299.562 185.818 299.3 185.818ZM306.051 187.273V188.409H301.528V187.273H306.051ZM302.846 185.182H304.187V193.5C304.187 193.879 304.242 194.163 304.352 194.352C304.466 194.538 304.61 194.663 304.784 194.727C304.962 194.788 305.149 194.818 305.346 194.818C305.494 194.818 305.615 194.811 305.71 194.795C305.805 194.777 305.88 194.761 305.937 194.75L306.21 195.955C306.119 195.989 305.992 196.023 305.829 196.057C305.666 196.095 305.46 196.114 305.21 196.114C304.831 196.114 304.46 196.032 304.096 195.869C303.736 195.706 303.437 195.458 303.199 195.125C302.964 194.792 302.846 194.371 302.846 193.864V185.182ZM308.772 199.273C308.544 199.273 308.342 199.254 308.164 199.216C307.986 199.182 307.862 199.148 307.794 199.114L308.135 197.932C308.461 198.015 308.749 198.045 308.999 198.023C309.249 198 309.47 197.888 309.664 197.688C309.861 197.491 310.04 197.17 310.203 196.727L310.453 196.045L307.226 187.273H308.681L311.09 194.227H311.181L313.59 187.273H315.044L311.34 197.273C311.173 197.723 310.967 198.097 310.72 198.392C310.474 198.691 310.188 198.913 309.862 199.057C309.54 199.201 309.177 199.273 308.772 199.273ZM323.562 196.205C323.009 196.205 322.507 196.1 322.057 195.892C321.606 195.68 321.248 195.375 320.983 194.977C320.718 194.576 320.585 194.091 320.585 193.523C320.585 193.023 320.684 192.617 320.881 192.307C321.077 191.992 321.341 191.746 321.67 191.568C322 191.39 322.363 191.258 322.761 191.17C323.163 191.08 323.566 191.008 323.971 190.955C324.502 190.886 324.932 190.835 325.261 190.801C325.595 190.763 325.837 190.701 325.988 190.614C326.144 190.527 326.221 190.375 326.221 190.159V190.114C326.221 189.553 326.068 189.117 325.761 188.807C325.458 188.496 324.998 188.341 324.381 188.341C323.74 188.341 323.238 188.481 322.875 188.761C322.511 189.042 322.256 189.341 322.108 189.659L320.835 189.205C321.062 188.674 321.365 188.261 321.744 187.966C322.127 187.667 322.543 187.458 322.994 187.341C323.449 187.22 323.896 187.159 324.335 187.159C324.615 187.159 324.937 187.193 325.301 187.261C325.668 187.326 326.023 187.46 326.363 187.665C326.708 187.869 326.994 188.178 327.221 188.591C327.449 189.004 327.562 189.557 327.562 190.25V196H326.221V194.818H326.153C326.062 195.008 325.911 195.21 325.699 195.426C325.487 195.642 325.204 195.826 324.852 195.977C324.5 196.129 324.07 196.205 323.562 196.205ZM323.767 195C324.297 195 324.744 194.896 325.108 194.688C325.475 194.479 325.752 194.21 325.937 193.881C326.127 193.551 326.221 193.205 326.221 192.841V191.614C326.165 191.682 326.04 191.744 325.846 191.801C325.657 191.854 325.437 191.902 325.187 191.943C324.941 191.981 324.701 192.015 324.466 192.045C324.235 192.072 324.047 192.095 323.903 192.114C323.555 192.159 323.229 192.233 322.926 192.335C322.627 192.434 322.384 192.583 322.199 192.784C322.017 192.981 321.926 193.25 321.926 193.591C321.926 194.057 322.098 194.409 322.443 194.648C322.791 194.883 323.233 195 323.767 195ZM331.191 190.75V196H329.85V187.273H331.145V188.636H331.259C331.463 188.193 331.774 187.837 332.191 187.568C332.607 187.295 333.145 187.159 333.804 187.159C334.395 187.159 334.912 187.28 335.355 187.523C335.799 187.761 336.143 188.125 336.39 188.614C336.636 189.098 336.759 189.712 336.759 190.455V196H335.418V190.545C335.418 189.86 335.24 189.326 334.884 188.943C334.528 188.557 334.039 188.364 333.418 188.364C332.99 188.364 332.607 188.456 332.27 188.642C331.937 188.828 331.674 189.098 331.48 189.455C331.287 189.811 331.191 190.242 331.191 190.75ZM342.345 196.182C341.617 196.182 340.975 195.998 340.418 195.631C339.862 195.259 339.426 194.737 339.112 194.062C338.797 193.384 338.64 192.583 338.64 191.659C338.64 190.742 338.797 189.947 339.112 189.273C339.426 188.598 339.864 188.078 340.424 187.71C340.985 187.343 341.632 187.159 342.367 187.159C342.936 187.159 343.384 187.254 343.714 187.443C344.047 187.629 344.301 187.841 344.475 188.08C344.653 188.314 344.792 188.508 344.89 188.659H345.004V184.364H346.345V196H345.049V194.659H344.89C344.792 194.818 344.651 195.019 344.47 195.261C344.288 195.5 344.028 195.714 343.691 195.903C343.354 196.089 342.905 196.182 342.345 196.182ZM342.526 194.977C343.064 194.977 343.519 194.837 343.89 194.557C344.261 194.273 344.543 193.881 344.737 193.381C344.93 192.877 345.026 192.295 345.026 191.636C345.026 190.985 344.932 190.415 344.742 189.926C344.553 189.434 344.273 189.051 343.901 188.778C343.53 188.502 343.072 188.364 342.526 188.364C341.958 188.364 341.485 188.509 341.106 188.801C340.731 189.089 340.449 189.481 340.259 189.977C340.074 190.47 339.981 191.023 339.981 191.636C339.981 192.258 340.076 192.822 340.265 193.33C340.458 193.833 340.742 194.235 341.117 194.534C341.496 194.83 341.966 194.977 342.526 194.977ZM353.167 196V187.273H354.508V196H353.167ZM353.848 185.818C353.587 185.818 353.362 185.729 353.172 185.551C352.987 185.373 352.894 185.159 352.894 184.909C352.894 184.659 352.987 184.445 353.172 184.267C353.362 184.089 353.587 184 353.848 184C354.11 184 354.333 184.089 354.519 184.267C354.708 184.445 354.803 184.659 354.803 184.909C354.803 185.159 354.708 185.373 354.519 185.551C354.333 185.729 354.11 185.818 353.848 185.818ZM358.144 190.75V196H356.804V187.273H358.099V188.636H358.213C358.417 188.193 358.728 187.837 359.144 187.568C359.561 187.295 360.099 187.159 360.758 187.159C361.349 187.159 361.866 187.28 362.309 187.523C362.752 187.761 363.097 188.125 363.343 188.614C363.59 189.098 363.713 189.712 363.713 190.455V196H362.372V190.545C362.372 189.86 362.194 189.326 361.838 188.943C361.482 188.557 360.993 188.364 360.372 188.364C359.944 188.364 359.561 188.456 359.224 188.642C358.891 188.828 358.627 189.098 358.434 189.455C358.241 189.811 358.144 190.242 358.144 190.75ZM369.548 196.182C368.73 196.182 368.026 195.989 367.435 195.602C366.844 195.216 366.389 194.684 366.071 194.006C365.753 193.328 365.594 192.553 365.594 191.682C365.594 190.795 365.757 190.013 366.082 189.335C366.412 188.653 366.87 188.121 367.457 187.739C368.048 187.352 368.738 187.159 369.526 187.159C370.139 187.159 370.692 187.273 371.185 187.5C371.677 187.727 372.081 188.045 372.395 188.455C372.709 188.864 372.904 189.341 372.98 189.886H371.639C371.537 189.489 371.31 189.136 370.957 188.83C370.609 188.519 370.139 188.364 369.548 188.364C369.026 188.364 368.567 188.5 368.173 188.773C367.783 189.042 367.478 189.422 367.259 189.915C367.043 190.403 366.935 190.977 366.935 191.636C366.935 192.311 367.041 192.898 367.253 193.398C367.469 193.898 367.772 194.286 368.162 194.562C368.556 194.839 369.018 194.977 369.548 194.977C369.897 194.977 370.213 194.917 370.497 194.795C370.781 194.674 371.022 194.5 371.219 194.273C371.416 194.045 371.556 193.773 371.639 193.455H372.98C372.904 193.97 372.717 194.434 372.418 194.847C372.122 195.256 371.73 195.581 371.242 195.824C370.757 196.062 370.192 196.182 369.548 196.182ZM376.121 184.364V196H374.78V184.364H376.121ZM383.917 192.432V187.273H385.258V196H383.917V194.523H383.826C383.622 194.966 383.304 195.343 382.872 195.653C382.44 195.96 381.895 196.114 381.235 196.114C380.69 196.114 380.205 195.994 379.781 195.756C379.357 195.513 379.023 195.15 378.781 194.665C378.538 194.176 378.417 193.561 378.417 192.818V187.273H379.758V192.727C379.758 193.364 379.936 193.871 380.292 194.25C380.652 194.629 381.11 194.818 381.667 194.818C382.001 194.818 382.34 194.733 382.684 194.562C383.033 194.392 383.324 194.131 383.559 193.778C383.798 193.426 383.917 192.977 383.917 192.432ZM393.736 189.227L392.531 189.568C392.456 189.367 392.344 189.172 392.196 188.983C392.052 188.79 391.855 188.631 391.605 188.506C391.355 188.381 391.035 188.318 390.645 188.318C390.111 188.318 389.666 188.441 389.31 188.688C388.958 188.93 388.781 189.239 388.781 189.614C388.781 189.947 388.903 190.21 389.145 190.403C389.387 190.597 389.766 190.758 390.281 190.886L391.577 191.205C392.357 191.394 392.939 191.684 393.321 192.074C393.704 192.46 393.895 192.958 393.895 193.568C393.895 194.068 393.751 194.515 393.463 194.909C393.179 195.303 392.781 195.614 392.27 195.841C391.759 196.068 391.164 196.182 390.486 196.182C389.596 196.182 388.859 195.989 388.276 195.602C387.692 195.216 387.323 194.652 387.168 193.909L388.441 193.591C388.562 194.061 388.791 194.413 389.128 194.648C389.469 194.883 389.914 195 390.463 195C391.088 195 391.584 194.867 391.952 194.602C392.323 194.333 392.509 194.011 392.509 193.636C392.509 193.333 392.403 193.08 392.191 192.875C391.978 192.667 391.653 192.511 391.213 192.409L389.759 192.068C388.959 191.879 388.372 191.585 387.997 191.188C387.626 190.786 387.441 190.284 387.441 189.682C387.441 189.189 387.579 188.754 387.855 188.375C388.136 187.996 388.516 187.699 388.997 187.483C389.482 187.267 390.031 187.159 390.645 187.159C391.509 187.159 392.187 187.348 392.679 187.727C393.175 188.106 393.528 188.606 393.736 189.227ZM395.754 196V187.273H397.094V196H395.754ZM396.435 185.818C396.174 185.818 395.949 185.729 395.759 185.551C395.574 185.373 395.481 185.159 395.481 184.909C395.481 184.659 395.574 184.445 395.759 184.267C395.949 184.089 396.174 184 396.435 184C396.697 184 396.92 184.089 397.106 184.267C397.295 184.445 397.39 184.659 397.39 184.909C397.39 185.159 397.295 185.373 397.106 185.551C396.92 185.729 396.697 185.818 396.435 185.818ZM406.527 187.273L403.299 196H401.936L398.709 187.273H400.163L402.572 194.227H402.663L405.072 187.273H406.527ZM408.137 196V187.273H409.478V196H408.137ZM408.818 185.818C408.557 185.818 408.332 185.729 408.142 185.551C407.957 185.373 407.864 185.159 407.864 184.909C407.864 184.659 407.957 184.445 408.142 184.267C408.332 184.089 408.557 184 408.818 184C409.08 184 409.303 184.089 409.489 184.267C409.678 184.445 409.773 184.659 409.773 184.909C409.773 185.159 409.678 185.373 409.489 185.551C409.303 185.729 409.08 185.818 408.818 185.818ZM415.569 187.273V188.409H411.046V187.273H415.569ZM412.364 185.182H413.705V193.5C413.705 193.879 413.76 194.163 413.87 194.352C413.984 194.538 414.128 194.663 414.302 194.727C414.48 194.788 414.667 194.818 414.864 194.818C415.012 194.818 415.133 194.811 415.228 194.795C415.323 194.777 415.399 194.761 415.455 194.75L415.728 195.955C415.637 195.989 415.51 196.023 415.347 196.057C415.185 196.095 414.978 196.114 414.728 196.114C414.349 196.114 413.978 196.032 413.614 195.869C413.255 195.706 412.955 195.458 412.717 195.125C412.482 194.792 412.364 194.371 412.364 193.864V185.182ZM418.29 199.273C418.062 199.273 417.86 199.254 417.682 199.216C417.504 199.182 417.381 199.148 417.312 199.114L417.653 197.932C417.979 198.015 418.267 198.045 418.517 198.023C418.767 198 418.989 197.888 419.182 197.688C419.379 197.491 419.559 197.17 419.721 196.727L419.971 196.045L416.744 187.273H418.199L420.608 194.227H420.699L423.108 187.273H424.562L420.858 197.273C420.691 197.723 420.485 198.097 420.239 198.392C419.992 198.691 419.706 198.913 419.381 199.057C419.059 199.201 418.695 199.273 418.29 199.273ZM426.603 196.091C426.322 196.091 426.082 195.991 425.881 195.79C425.68 195.589 425.58 195.348 425.58 195.068C425.58 194.788 425.68 194.547 425.881 194.347C426.082 194.146 426.322 194.045 426.603 194.045C426.883 194.045 427.124 194.146 427.324 194.347C427.525 194.547 427.625 194.788 427.625 195.068C427.625 195.254 427.578 195.424 427.483 195.58C427.392 195.735 427.269 195.86 427.114 195.955C426.963 196.045 426.792 196.091 426.603 196.091Z" fill="#0F1324" fill-opacity="0.6"/>
<path d="M86 238C86 231.373 91.3726 226 98 226H119C125.627 226 131 231.373 131 238V238C131 244.627 125.627 250 119 250H98C91.3726 250 86 244.627 86 238V238Z" fill="#D1FAE4"/>
<path d="M98 226.5H119C125.351 226.5 130.5 231.649 130.5 238C130.5 244.351 125.351 249.5 119 249.5H98C91.6487 249.5 86.5 244.351 86.5 238C86.5 231.649 91.6487 226.5 98 226.5Z" stroke="#0A0F29" stroke-opacity="0.08"/>
<path d="M101.139 235.493C101.086 235.022 100.868 234.658 100.483 234.399C100.099 234.137 99.6147 234.006 99.0314 234.006C98.6138 234.006 98.2525 234.073 97.9476 234.205C97.6427 234.335 97.4057 234.513 97.2366 234.742C97.0709 234.968 96.9881 235.224 96.9881 235.513C96.9881 235.755 97.0444 235.964 97.1571 236.139C97.2731 236.315 97.4239 236.462 97.6095 236.582C97.7984 236.698 98.0006 236.795 98.216 236.875C98.4315 236.951 98.6386 237.014 98.8375 237.064L99.8318 237.322C100.157 237.402 100.49 237.51 100.831 237.646C101.172 237.781 101.489 237.96 101.781 238.183C102.072 238.405 102.308 238.68 102.487 239.008C102.669 239.336 102.76 239.729 102.76 240.186C102.76 240.763 102.611 241.275 102.313 241.722C102.018 242.17 101.588 242.523 101.025 242.781C100.465 243.04 99.7871 243.169 98.9916 243.169C98.2293 243.169 97.5697 243.048 97.0129 242.806C96.4561 242.564 96.0203 242.221 95.7054 241.777C95.3905 241.33 95.2165 240.799 95.1834 240.186H96.7246C96.7544 240.554 96.8737 240.861 97.0825 241.106C97.2946 241.348 97.5648 241.528 97.8929 241.648C98.2243 241.764 98.5873 241.822 98.9817 241.822C99.4159 241.822 99.802 241.754 100.14 241.618C100.481 241.479 100.75 241.286 100.945 241.041C101.141 240.793 101.239 240.503 101.239 240.171C101.239 239.87 101.153 239.623 100.98 239.43C100.811 239.238 100.581 239.079 100.289 238.953C100.001 238.827 99.6744 238.716 99.3098 238.62L98.1067 238.292C97.2913 238.07 96.645 237.743 96.1677 237.312C95.6938 236.882 95.4568 236.312 95.4568 235.602C95.4568 235.016 95.6159 234.504 95.9341 234.066C96.2523 233.629 96.6831 233.289 97.2267 233.047C97.7703 232.802 98.3834 232.679 99.0662 232.679C99.7556 232.679 100.364 232.8 100.891 233.042C101.421 233.284 101.839 233.617 102.144 234.041C102.449 234.462 102.608 234.946 102.621 235.493H101.139ZM104.526 243V232.818H110.909V234.141H106.062V237.243H110.576V238.56H106.062V241.678H110.969V243H104.526ZM121.736 237.909C121.736 238.996 121.537 239.931 121.139 240.713C120.742 241.492 120.196 242.092 119.504 242.513C118.814 242.93 118.03 243.139 117.152 243.139C116.27 243.139 115.483 242.93 114.791 242.513C114.101 242.092 113.558 241.49 113.16 240.708C112.762 239.926 112.563 238.993 112.563 237.909C112.563 236.822 112.762 235.889 113.16 235.11C113.558 234.328 114.101 233.728 114.791 233.31C115.483 232.889 116.27 232.679 117.152 232.679C118.03 232.679 118.814 232.889 119.504 233.31C120.196 233.728 120.742 234.328 121.139 235.11C121.537 235.889 121.736 236.822 121.736 237.909ZM120.215 237.909C120.215 237.08 120.08 236.383 119.812 235.816C119.547 235.246 119.182 234.815 118.718 234.523C118.257 234.228 117.735 234.081 117.152 234.081C116.565 234.081 116.042 234.228 115.581 234.523C115.12 234.815 114.756 235.246 114.487 235.816C114.222 236.383 114.09 237.08 114.09 237.909C114.09 238.738 114.222 239.437 114.487 240.007C114.756 240.574 115.12 241.005 115.581 241.3C116.042 241.591 116.565 241.737 117.152 241.737C117.735 241.737 118.257 241.591 118.718 241.3C119.182 241.005 119.547 240.574 119.812 240.007C120.08 239.437 120.215 238.738 120.215 237.909Z" fill="#166E3F"/>
<path d="M139 238C139 231.373 144.373 226 151 226H227C233.627 226 239 231.373 239 238V238C239 244.627 233.627 250 227 250H151C144.373 250 139 244.627 139 238V238Z" fill="#FDEAD8"/>
<path d="M151 226.5H227C233.351 226.5 238.5 231.649 238.5 238C238.5 244.351 233.351 249.5 227 249.5H151C144.649 249.5 139.5 244.351 139.5 238C139.5 231.649 144.649 226.5 151 226.5Z" stroke="#0A0F29" stroke-opacity="0.08"/>
<path d="M149.077 243H147.447L151.111 232.818H152.886L156.55 243H154.919L152.04 234.668H151.961L149.077 243ZM149.351 239.013H154.641V240.305H149.351V239.013ZM160.924 243.154C160.185 243.154 159.549 242.987 159.015 242.652C158.485 242.314 158.077 241.848 157.792 241.255C157.507 240.662 157.365 239.982 157.365 239.217C157.365 238.441 157.51 237.757 157.802 237.163C158.094 236.567 158.505 236.101 159.035 235.766C159.565 235.432 160.19 235.264 160.909 235.264C161.489 235.264 162.006 235.372 162.461 235.587C162.915 235.799 163.281 236.098 163.559 236.482C163.841 236.867 164.008 237.316 164.061 237.83H162.615C162.535 237.472 162.353 237.163 162.068 236.905C161.786 236.646 161.408 236.517 160.934 236.517C160.52 236.517 160.157 236.626 159.845 236.845C159.537 237.061 159.297 237.369 159.125 237.77C158.952 238.168 158.866 238.638 158.866 239.182C158.866 239.739 158.951 240.219 159.12 240.624C159.289 241.028 159.527 241.341 159.836 241.563C160.147 241.785 160.513 241.896 160.934 241.896C161.216 241.896 161.471 241.845 161.7 241.742C161.932 241.636 162.126 241.485 162.282 241.29C162.441 241.094 162.552 240.859 162.615 240.584H164.061C164.008 241.078 163.848 241.518 163.579 241.906C163.311 242.294 162.951 242.599 162.5 242.821C162.053 243.043 161.528 243.154 160.924 243.154ZM168.798 243.154C168.059 243.154 167.422 242.987 166.889 242.652C166.358 242.314 165.951 241.848 165.666 241.255C165.381 240.662 165.238 239.982 165.238 239.217C165.238 238.441 165.384 237.757 165.676 237.163C165.967 236.567 166.378 236.101 166.908 235.766C167.439 235.432 168.064 235.264 168.783 235.264C169.363 235.264 169.88 235.372 170.334 235.587C170.788 235.799 171.154 236.098 171.433 236.482C171.714 236.867 171.882 237.316 171.935 237.83H170.488C170.408 237.472 170.226 237.163 169.941 236.905C169.659 236.646 169.282 236.517 168.808 236.517C168.393 236.517 168.03 236.626 167.719 236.845C167.411 237.061 167.17 237.369 166.998 237.77C166.826 238.168 166.739 238.638 166.739 239.182C166.739 239.739 166.824 240.219 166.993 240.624C167.162 241.028 167.401 241.341 167.709 241.563C168.02 241.785 168.387 241.896 168.808 241.896C169.089 241.896 169.345 241.845 169.573 241.742C169.805 241.636 169.999 241.485 170.155 241.29C170.314 241.094 170.425 240.859 170.488 240.584H171.935C171.882 241.078 171.721 241.518 171.452 241.906C171.184 242.294 170.824 242.599 170.374 242.821C169.926 243.043 169.401 243.154 168.798 243.154ZM176.746 243.154C175.993 243.154 175.345 242.993 174.802 242.672C174.261 242.347 173.844 241.891 173.549 241.305C173.257 240.715 173.111 240.024 173.111 239.232C173.111 238.449 173.257 237.76 173.549 237.163C173.844 236.567 174.255 236.101 174.782 235.766C175.312 235.432 175.932 235.264 176.641 235.264C177.072 235.264 177.49 235.335 177.894 235.478C178.298 235.621 178.661 235.844 178.983 236.149C179.304 236.454 179.558 236.85 179.743 237.337C179.929 237.821 180.022 238.41 180.022 239.102V239.629H173.952V238.516H178.565C178.565 238.125 178.486 237.778 178.327 237.477C178.167 237.172 177.944 236.931 177.655 236.756C177.37 236.58 177.036 236.492 176.651 236.492C176.234 236.492 175.869 236.595 175.557 236.8C175.249 237.003 175.011 237.268 174.841 237.596C174.676 237.921 174.593 238.274 174.593 238.655V239.525C174.593 240.035 174.682 240.469 174.861 240.827C175.044 241.185 175.297 241.459 175.622 241.648C175.947 241.833 176.326 241.926 176.761 241.926C177.042 241.926 177.299 241.886 177.531 241.807C177.763 241.724 177.964 241.601 178.133 241.439C178.302 241.277 178.431 241.076 178.52 240.837L179.927 241.091C179.815 241.505 179.613 241.868 179.321 242.18C179.033 242.488 178.67 242.728 178.232 242.901C177.798 243.07 177.302 243.154 176.746 243.154ZM187.324 237.228L185.976 237.467C185.92 237.294 185.83 237.13 185.708 236.974C185.588 236.819 185.426 236.691 185.221 236.592C185.015 236.492 184.758 236.442 184.45 236.442C184.029 236.442 183.678 236.537 183.396 236.726C183.114 236.911 182.973 237.152 182.973 237.447C182.973 237.702 183.068 237.907 183.257 238.063C183.446 238.219 183.751 238.347 184.172 238.446L185.385 238.724C186.087 238.887 186.611 239.137 186.956 239.475C187.3 239.813 187.473 240.252 187.473 240.793C187.473 241.25 187.34 241.658 187.075 242.016C186.813 242.37 186.447 242.649 185.976 242.851C185.509 243.053 184.967 243.154 184.35 243.154C183.495 243.154 182.798 242.972 182.257 242.607C181.717 242.239 181.386 241.717 181.263 241.041L182.7 240.822C182.789 241.197 182.973 241.48 183.252 241.673C183.53 241.862 183.893 241.956 184.341 241.956C184.828 241.956 185.217 241.855 185.509 241.653C185.801 241.447 185.946 241.197 185.946 240.902C185.946 240.663 185.857 240.463 185.678 240.3C185.502 240.138 185.232 240.015 184.868 239.933L183.575 239.649C182.862 239.487 182.335 239.228 181.994 238.874C181.656 238.519 181.487 238.07 181.487 237.526C181.487 237.076 181.613 236.681 181.865 236.343C182.117 236.005 182.465 235.741 182.909 235.553C183.353 235.36 183.862 235.264 184.435 235.264C185.26 235.264 185.91 235.443 186.384 235.801C186.858 236.156 187.171 236.631 187.324 237.228ZM194.759 237.228L193.412 237.467C193.356 237.294 193.266 237.13 193.144 236.974C193.024 236.819 192.862 236.691 192.656 236.592C192.451 236.492 192.194 236.442 191.886 236.442C191.465 236.442 191.114 236.537 190.832 236.726C190.55 236.911 190.409 237.152 190.409 237.447C190.409 237.702 190.504 237.907 190.693 238.063C190.882 238.219 191.186 238.347 191.607 238.446L192.82 238.724C193.523 238.887 194.047 239.137 194.391 239.475C194.736 239.813 194.909 240.252 194.909 240.793C194.909 241.25 194.776 241.658 194.511 242.016C194.249 242.37 193.883 242.649 193.412 242.851C192.945 243.053 192.403 243.154 191.786 243.154C190.931 243.154 190.234 242.972 189.693 242.607C189.153 242.239 188.822 241.717 188.699 241.041L190.136 240.822C190.225 241.197 190.409 241.48 190.688 241.673C190.966 241.862 191.329 241.956 191.776 241.956C192.264 241.956 192.653 241.855 192.945 241.653C193.236 241.447 193.382 241.197 193.382 240.902C193.382 240.663 193.293 240.463 193.114 240.3C192.938 240.138 192.668 240.015 192.303 239.933L191.011 239.649C190.298 239.487 189.771 239.228 189.43 238.874C189.092 238.519 188.923 238.07 188.923 237.526C188.923 237.076 189.049 236.681 189.301 236.343C189.552 236.005 189.9 235.741 190.345 235.553C190.789 235.36 191.297 235.264 191.871 235.264C192.696 235.264 193.346 235.443 193.82 235.801C194.294 236.156 194.607 236.631 194.759 237.228ZM196.473 243V235.364H197.959V243H196.473ZM197.224 234.185C196.965 234.185 196.743 234.099 196.557 233.927C196.375 233.751 196.284 233.542 196.284 233.3C196.284 233.055 196.375 232.846 196.557 232.674C196.743 232.498 196.965 232.411 197.224 232.411C197.482 232.411 197.703 232.498 197.885 232.674C198.07 232.846 198.163 233.055 198.163 233.3C198.163 233.542 198.07 233.751 197.885 233.927C197.703 234.099 197.482 234.185 197.224 234.185ZM200.009 243V232.818H201.495V236.602H201.585C201.671 236.442 201.795 236.259 201.957 236.05C202.12 235.841 202.345 235.659 202.634 235.503C202.922 235.344 203.303 235.264 203.777 235.264C204.394 235.264 204.944 235.42 205.428 235.732C205.912 236.043 206.291 236.492 206.566 237.079C206.845 237.665 206.984 238.371 206.984 239.197C206.984 240.022 206.846 240.73 206.571 241.32C206.296 241.906 205.918 242.359 205.438 242.677C204.957 242.992 204.408 243.149 203.792 243.149C203.328 243.149 202.948 243.071 202.653 242.915C202.362 242.76 202.133 242.577 201.967 242.369C201.802 242.16 201.674 241.974 201.585 241.812H201.46V243H200.009ZM201.465 239.182C201.465 239.719 201.543 240.189 201.699 240.594C201.855 240.998 202.08 241.315 202.375 241.543C202.67 241.769 203.031 241.881 203.459 241.881C203.903 241.881 204.274 241.764 204.572 241.528C204.871 241.29 205.096 240.967 205.249 240.559C205.404 240.151 205.482 239.692 205.482 239.182C205.482 238.678 205.406 238.226 205.254 237.825C205.104 237.424 204.879 237.107 204.577 236.875C204.279 236.643 203.906 236.527 203.459 236.527C203.028 236.527 202.663 236.638 202.365 236.86C202.07 237.082 201.846 237.392 201.694 237.79C201.541 238.187 201.465 238.652 201.465 239.182ZM208.583 243V235.364H210.069V243H208.583ZM209.334 234.185C209.075 234.185 208.853 234.099 208.667 233.927C208.485 233.751 208.394 233.542 208.394 233.3C208.394 233.055 208.485 232.846 208.667 232.674C208.853 232.498 209.075 232.411 209.334 232.411C209.592 232.411 209.813 232.498 209.995 232.674C210.18 232.846 210.273 233.055 210.273 233.3C210.273 233.542 210.18 233.751 209.995 233.927C209.813 234.099 209.592 234.185 209.334 234.185ZM213.486 232.818V243H211.999V232.818H213.486ZM215.416 243V235.364H216.902V243H215.416ZM216.166 234.185C215.908 234.185 215.686 234.099 215.5 233.927C215.318 233.751 215.227 233.542 215.227 233.3C215.227 233.055 215.318 232.846 215.5 232.674C215.686 232.498 215.908 232.411 216.166 232.411C216.425 232.411 216.645 232.498 216.828 232.674C217.013 232.846 217.106 233.055 217.106 233.3C217.106 233.542 217.013 233.751 216.828 233.927C216.645 234.099 216.425 234.185 216.166 234.185ZM222.397 235.364V236.557H218.225V235.364H222.397ZM219.344 233.534H220.83V240.758C220.83 241.046 220.874 241.263 220.96 241.409C221.046 241.552 221.157 241.649 221.293 241.702C221.432 241.752 221.583 241.777 221.745 241.777C221.865 241.777 221.969 241.769 222.058 241.752C222.148 241.736 222.218 241.722 222.267 241.712L222.536 242.94C222.45 242.973 222.327 243.007 222.168 243.04C222.009 243.076 221.81 243.096 221.571 243.099C221.18 243.106 220.816 243.036 220.478 242.891C220.139 242.745 219.866 242.519 219.657 242.214C219.448 241.91 219.344 241.527 219.344 241.066V233.534ZM224.911 245.864C224.688 245.864 224.486 245.845 224.304 245.809C224.122 245.776 223.986 245.739 223.896 245.7L224.254 244.482C224.526 244.554 224.768 244.586 224.98 244.576C225.192 244.566 225.38 244.487 225.542 244.337C225.708 244.188 225.853 243.945 225.979 243.607L226.163 243.099L223.369 235.364H224.96L226.894 241.29H226.974L228.908 235.364H230.504L227.357 244.019C227.211 244.417 227.025 244.753 226.8 245.028C226.574 245.307 226.306 245.516 225.994 245.655C225.683 245.794 225.322 245.864 224.911 245.864Z" fill="#AE590A"/>
<path d="M247 238C247 231.373 252.373 226 259 226H271C277.627 226 283 231.373 283 238V238C283 244.627 277.627 250 271 250H259C252.373 250 247 244.627 247 238V238Z" fill="#E3EAFD"/>
<path d="M259 226.5H271C277.351 226.5 282.5 231.649 282.5 238C282.5 244.351 277.351 249.5 271 249.5H259C252.649 249.5 247.5 244.351 247.5 238C247.5 231.649 252.649 226.5 259 226.5Z" stroke="#0A0F29" stroke-opacity="0.08"/>
<path d="M262.878 232.818H264.419V239.515C264.419 240.228 264.252 240.859 263.917 241.409C263.582 241.956 263.112 242.387 262.505 242.702C261.899 243.013 261.188 243.169 260.372 243.169C259.56 243.169 258.851 243.013 258.244 242.702C257.638 242.387 257.167 241.956 256.832 241.409C256.498 240.859 256.33 240.228 256.33 239.515V232.818H257.867V239.391C257.867 239.851 257.968 240.261 258.17 240.619C258.375 240.977 258.665 241.258 259.04 241.464C259.414 241.666 259.859 241.767 260.372 241.767C260.889 241.767 261.335 241.666 261.71 241.464C262.087 241.258 262.376 240.977 262.575 240.619C262.777 240.261 262.878 239.851 262.878 239.391V232.818ZM267.652 232.818L270.088 236.8H270.167L272.603 232.818H274.383L271.211 237.909L274.403 243H272.613L270.167 239.072H270.088L267.642 243H265.852L269.098 237.909L265.872 232.818H267.652Z" fill="#133A9A"/>
</g>
<defs>
<filter id="filter0_dd_202_14911" x="49" y="93" width="426" height="204" filterUnits="userSpaceOnUse" color-interpolation-filters="sRGB">
<feFlood flood-opacity="0" result="BackgroundImageFix"/>
<feColorMatrix in="SourceAlpha" type="matrix" values="0 0 0 0 0 0 0 0 0 0 0 0 0 0 0 0 0 0 127 0" result="hardAlpha"/>
<feMorphology radius="2" operator="erode" in="SourceAlpha" result="effect1_dropShadow_202_14911"/>
<feOffset dy="3"/>
<feGaussianBlur stdDeviation="3"/>
<feColorMatrix type="matrix" values="0 0 0 0 0.0784314 0 0 0 0 0.0823529 0 0 0 0 0.101961 0 0 0 0.05 0"/>
<feBlend mode="normal" in2="BackgroundImageFix" result="effect1_dropShadow_202_14911"/>
<feColorMatrix in="SourceAlpha" type="matrix" values="0 0 0 0 0 0 0 0 0 0 0 0 0 0 0 0 0 0 127 0" result="hardAlpha"/>
<feMorphology radius="3" operator="erode" in="SourceAlpha" result="effect2_dropShadow_202_14911"/>
<feOffset dy="10"/>
<feGaussianBlur stdDeviation="8"/>
<feColorMatrix type="matrix" values="0 0 0 0 0.0784314 0 0 0 0 0.0823529 0 0 0 0 0.101961 0 0 0 0.08 0"/>
<feBlend mode="normal" in2="effect1_dropShadow_202_14911" result="effect2_dropShadow_202_14911"/>
<feBlend mode="normal" in="SourceGraphic" in2="effect2_dropShadow_202_14911" result="shape"/>
</filter>
<linearGradient id="paint0_linear_202_14911" x1="262" y1="0" x2="262" y2="370.293" gradientUnits="userSpaceOnUse">
<stop stop-color="#6199FF"/>
<stop offset="1" stop-color="#045CFB"/>
</linearGradient>
</defs>
</svg>
