<svg width="524" height="371" viewBox="0 0 524 371" fill="none" xmlns="http://www.w3.org/2000/svg">
<rect width="524" height="370.293" fill="url(#paint0_linear_202_14911)"/>
<rect x="0.5" y="0.5" width="523" height="369.293" stroke="#0A0F29" stroke-opacity="0.08"/>
<g filter="url(#filter0_d_202_14911)">
<path d="M62 163C62 156.373 67.3726 151 74 151H450C456.627 151 462 156.373 462 163V227C462 233.627 456.627 239 450 239H74C67.3726 239 62 233.627 62 227V163Z" fill="white" shape-rendering="crispEdges"/>
<path d="M74 151.5H450C456.351 151.5 461.5 156.649 461.5 163V227C461.5 233.351 456.351 238.5 450 238.5H74C67.6487 238.5 62.5 233.351 62.5 227V163C62.5 156.649 67.6487 151.5 74 151.5Z" stroke="#DEE0E3" shape-rendering="crispEdges"/>
<path d="M81.1049 178.21C81.7586 178.469 82.3005 178.95 82.6361 179.567C82.9717 180.185 83.0798 180.901 82.9413 181.591C82.8028 182.28 82.4267 182.899 81.8786 183.339C81.3304 183.78 80.645 184.014 79.942 184C79.239 183.987 78.563 183.727 78.032 183.266C77.501 182.805 77.1486 182.173 77.0365 181.479C76.9243 180.784 77.0595 180.073 77.4183 179.468C77.7771 178.864 78.3369 178.404 78.9999 178.17V171.83C78.3325 171.594 77.7699 171.13 77.4116 170.519C77.0533 169.909 76.9225 169.191 77.0421 168.493C77.1618 167.795 77.5243 167.162 78.0656 166.706C78.6068 166.25 79.292 166 79.9999 166C80.7079 166 81.3931 166.25 81.9343 166.706C82.4756 167.162 82.8381 167.795 82.9578 168.493C83.0774 169.191 82.9466 169.909 82.5883 170.519C82.23 171.13 81.6674 171.594 80.9999 171.83V175C81.8359 174.372 82.8739 174 83.9999 174H87.9999C88.6581 174 89.2979 173.784 89.821 173.384C90.3441 172.985 90.7215 172.425 90.8949 171.79C90.2381 171.53 89.6941 171.046 89.3587 170.425C89.0233 169.803 88.9179 169.083 89.0612 168.391C89.2045 167.699 89.5873 167.08 90.1421 166.643C90.6969 166.206 91.3882 165.978 92.0943 166C92.8004 166.023 93.476 166.293 94.0022 166.765C94.5284 167.236 94.8714 167.878 94.9709 168.577C95.0704 169.277 94.92 169.989 94.5461 170.588C94.1722 171.187 93.5988 171.636 92.9269 171.854C92.7255 173.015 92.1209 174.067 91.2195 174.825C90.3182 175.584 89.178 176 87.9999 176H83.9999C83.3418 176 82.702 176.216 82.1789 176.616C81.6557 177.015 81.2784 177.575 81.1049 178.21V178.21ZM79.9999 180C79.7347 180 79.4804 180.105 79.2928 180.293C79.1053 180.48 78.9999 180.735 78.9999 181C78.9999 181.265 79.1053 181.52 79.2928 181.707C79.4804 181.895 79.7347 182 79.9999 182C80.2652 182 80.5195 181.895 80.7071 181.707C80.8946 181.52 80.9999 181.265 80.9999 181C80.9999 180.735 80.8946 180.48 80.7071 180.293C80.5195 180.105 80.2652 180 79.9999 180ZM79.9999 168C79.7347 168 79.4804 168.105 79.2928 168.293C79.1053 168.48 78.9999 168.735 78.9999 169C78.9999 169.265 79.1053 169.52 79.2928 169.707C79.4804 169.895 79.7347 170 79.9999 170C80.2652 170 80.5195 169.895 80.7071 169.707C80.8946 169.52 80.9999 169.265 80.9999 169C80.9999 168.735 80.8946 168.48 80.7071 168.293C80.5195 168.105 80.2652 168 79.9999 168ZM91.9999 168C91.7347 168 91.4804 168.105 91.2928 168.293C91.1053 168.48 90.9999 168.735 90.9999 169C90.9999 169.265 91.1053 169.52 91.2928 169.707C91.4804 169.895 91.7347 170 91.9999 170C92.2652 170 92.5195 169.895 92.7071 169.707C92.8946 169.52 92.9999 169.265 92.9999 169C92.9999 168.735 92.8946 168.48 92.7071 168.293C92.5195 168.105 92.2652 168 91.9999 168Z" fill="#E6483D"/>
<path d="M115.119 178V167.818H118.748C119.537 167.818 120.191 167.954 120.712 168.226C121.235 168.498 121.626 168.874 121.885 169.354C122.143 169.832 122.273 170.384 122.273 171.01C122.273 171.633 122.142 172.182 121.88 172.656C121.621 173.126 121.23 173.492 120.707 173.754C120.186 174.016 119.532 174.147 118.743 174.147H115.994V172.825H118.604C119.101 172.825 119.505 172.753 119.817 172.611C120.132 172.468 120.362 172.261 120.508 171.989C120.654 171.718 120.727 171.391 120.727 171.01C120.727 170.625 120.652 170.292 120.503 170.011C120.357 169.729 120.127 169.513 119.812 169.364C119.5 169.212 119.091 169.136 118.584 169.136H116.655V178H115.119ZM120.145 173.406L122.661 178H120.911L118.445 173.406H120.145ZM127.148 178.154C126.396 178.154 125.748 177.993 125.204 177.672C124.664 177.347 124.246 176.891 123.951 176.305C123.66 175.715 123.514 175.024 123.514 174.232C123.514 173.449 123.66 172.76 123.951 172.163C124.246 171.567 124.657 171.101 125.184 170.766C125.715 170.432 126.335 170.264 127.044 170.264C127.475 170.264 127.892 170.335 128.297 170.478C128.701 170.621 129.064 170.844 129.385 171.149C129.707 171.454 129.96 171.85 130.146 172.337C130.332 172.821 130.424 173.41 130.424 174.102V174.629H124.354V173.516H128.968C128.968 173.125 128.888 172.778 128.729 172.477C128.57 172.172 128.346 171.931 128.058 171.756C127.773 171.58 127.438 171.492 127.054 171.492C126.636 171.492 126.272 171.595 125.96 171.8C125.652 172.003 125.413 172.268 125.244 172.596C125.078 172.921 124.996 173.274 124.996 173.655V174.525C124.996 175.035 125.085 175.469 125.264 175.827C125.446 176.185 125.7 176.459 126.025 176.648C126.349 176.833 126.729 176.926 127.163 176.926C127.445 176.926 127.702 176.886 127.934 176.807C128.166 176.724 128.366 176.601 128.535 176.439C128.704 176.277 128.834 176.076 128.923 175.837L130.33 176.091C130.217 176.505 130.015 176.868 129.724 177.18C129.435 177.488 129.072 177.728 128.635 177.901C128.201 178.07 127.705 178.154 127.148 178.154ZM132.004 178V170.364H133.431V171.607H133.525C133.684 171.186 133.944 170.857 134.306 170.622C134.667 170.384 135.099 170.264 135.603 170.264C136.114 170.264 136.541 170.384 136.886 170.622C137.234 170.861 137.491 171.189 137.657 171.607H137.736C137.918 171.199 138.208 170.874 138.606 170.632C139.004 170.387 139.478 170.264 140.028 170.264C140.721 170.264 141.286 170.481 141.723 170.915C142.164 171.35 142.385 172.004 142.385 172.879V178H140.898V173.018C140.898 172.501 140.757 172.127 140.475 171.895C140.194 171.663 139.857 171.547 139.466 171.547C138.982 171.547 138.606 171.696 138.338 171.994C138.069 172.289 137.935 172.669 137.935 173.133V178H136.453V172.924C136.453 172.51 136.324 172.177 136.066 171.925C135.807 171.673 135.471 171.547 135.056 171.547C134.775 171.547 134.514 171.621 134.276 171.771C134.041 171.916 133.85 172.12 133.704 172.382C133.562 172.644 133.49 172.947 133.49 173.292V178H132.004ZM147.523 178.154C146.808 178.154 146.183 177.99 145.649 177.662C145.116 177.334 144.701 176.875 144.406 176.285C144.111 175.695 143.964 175.005 143.964 174.217C143.964 173.424 144.111 172.732 144.406 172.138C144.701 171.545 145.116 171.085 145.649 170.756C146.183 170.428 146.808 170.264 147.523 170.264C148.239 170.264 148.864 170.428 149.398 170.756C149.931 171.085 150.346 171.545 150.641 172.138C150.936 172.732 151.083 173.424 151.083 174.217C151.083 175.005 150.936 175.695 150.641 176.285C150.346 176.875 149.931 177.334 149.398 177.662C148.864 177.99 148.239 178.154 147.523 178.154ZM147.528 176.906C147.992 176.906 148.377 176.784 148.682 176.538C148.987 176.293 149.212 175.967 149.358 175.559C149.507 175.151 149.582 174.702 149.582 174.212C149.582 173.724 149.507 173.277 149.358 172.869C149.212 172.458 148.987 172.129 148.682 171.88C148.377 171.631 147.992 171.507 147.528 171.507C147.061 171.507 146.673 171.631 146.365 171.88C146.06 172.129 145.833 172.458 145.684 172.869C145.538 173.277 145.465 173.724 145.465 174.212C145.465 174.702 145.538 175.151 145.684 175.559C145.833 175.967 146.06 176.293 146.365 176.538C146.673 176.784 147.061 176.906 147.528 176.906ZM158.945 170.364L156.176 178H154.585L151.811 170.364H153.407L155.341 176.24H155.42L157.349 170.364H158.945ZM160.272 178V170.364H161.759V178H160.272ZM161.023 169.185C160.765 169.185 160.542 169.099 160.357 168.927C160.175 168.751 160.083 168.542 160.083 168.3C160.083 168.055 160.175 167.846 160.357 167.674C160.542 167.498 160.765 167.411 161.023 167.411C161.282 167.411 161.502 167.498 161.684 167.674C161.87 167.846 161.963 168.055 161.963 168.3C161.963 168.542 161.87 168.751 161.684 168.927C161.502 169.099 161.282 169.185 161.023 169.185ZM165.175 173.466V178H163.689V170.364H165.116V171.607H165.21C165.386 171.202 165.661 170.877 166.035 170.632C166.413 170.387 166.889 170.264 167.462 170.264C167.982 170.264 168.438 170.374 168.829 170.592C169.22 170.808 169.524 171.129 169.739 171.557C169.955 171.984 170.062 172.513 170.062 173.143V178H168.576V173.322C168.576 172.768 168.432 172.336 168.143 172.024C167.855 171.709 167.459 171.552 166.955 171.552C166.61 171.552 166.304 171.626 166.035 171.776C165.77 171.925 165.56 172.143 165.404 172.432C165.251 172.717 165.175 173.062 165.175 173.466ZM175.188 181.023C174.581 181.023 174.059 180.943 173.622 180.784C173.187 180.625 172.833 180.415 172.558 180.153C172.282 179.891 172.077 179.604 171.941 179.293L173.219 178.766C173.308 178.911 173.428 179.066 173.577 179.228C173.729 179.394 173.935 179.535 174.193 179.651C174.455 179.767 174.791 179.825 175.202 179.825C175.766 179.825 176.232 179.687 176.599 179.412C176.967 179.14 177.151 178.706 177.151 178.109V176.608H177.057C176.967 176.77 176.838 176.951 176.669 177.15C176.503 177.349 176.275 177.521 175.983 177.667C175.691 177.813 175.312 177.886 174.845 177.886C174.241 177.886 173.698 177.745 173.214 177.463C172.733 177.178 172.352 176.759 172.07 176.205C171.792 175.648 171.653 174.964 171.653 174.152C171.653 173.34 171.79 172.644 172.065 172.064C172.344 171.484 172.725 171.04 173.209 170.732C173.693 170.42 174.241 170.264 174.854 170.264C175.328 170.264 175.711 170.344 176.003 170.503C176.295 170.659 176.522 170.841 176.684 171.05C176.85 171.259 176.977 171.442 177.067 171.602H177.176V170.364H178.633V178.169C178.633 178.825 178.48 179.364 178.175 179.785C177.871 180.206 177.458 180.517 176.938 180.719C176.421 180.922 175.837 181.023 175.188 181.023ZM175.173 176.653C175.6 176.653 175.961 176.553 176.256 176.354C176.555 176.152 176.78 175.864 176.933 175.489C177.088 175.112 177.166 174.659 177.166 174.132C177.166 173.618 177.09 173.166 176.938 172.775C176.785 172.384 176.561 172.079 176.266 171.86C175.971 171.638 175.607 171.527 175.173 171.527C174.725 171.527 174.352 171.643 174.054 171.875C173.756 172.104 173.53 172.415 173.378 172.81C173.229 173.204 173.154 173.645 173.154 174.132C173.154 174.633 173.23 175.072 173.383 175.45C173.535 175.827 173.761 176.122 174.059 176.335C174.361 176.547 174.732 176.653 175.173 176.653ZM184.311 178V167.818H188.04C188.762 167.818 189.36 167.937 189.834 168.176C190.308 168.411 190.663 168.731 190.898 169.136C191.134 169.537 191.251 169.989 191.251 170.493C191.251 170.917 191.173 171.275 191.018 171.567C190.862 171.855 190.653 172.087 190.391 172.263C190.133 172.435 189.848 172.561 189.536 172.641V172.74C189.874 172.757 190.204 172.866 190.525 173.068C190.85 173.267 191.119 173.55 191.331 173.918C191.543 174.286 191.649 174.734 191.649 175.261C191.649 175.781 191.526 176.248 191.281 176.663C191.039 177.074 190.665 177.4 190.157 177.642C189.65 177.881 189.002 178 188.214 178H184.311ZM185.847 176.683H188.064C188.8 176.683 189.327 176.54 189.645 176.255C189.964 175.97 190.123 175.614 190.123 175.186C190.123 174.865 190.041 174.57 189.879 174.301C189.717 174.033 189.485 173.819 189.183 173.66C188.885 173.501 188.53 173.421 188.119 173.421H185.847V176.683ZM185.847 172.223H187.905C188.25 172.223 188.56 172.157 188.835 172.024C189.113 171.892 189.334 171.706 189.496 171.467C189.662 171.225 189.745 170.94 189.745 170.612C189.745 170.191 189.597 169.838 189.302 169.553C189.007 169.268 188.555 169.126 187.945 169.126H185.847V172.223ZM193.282 178V170.364H194.719V171.577H194.798C194.937 171.166 195.183 170.843 195.534 170.607C195.888 170.369 196.29 170.249 196.737 170.249C196.83 170.249 196.939 170.253 197.065 170.259C197.194 170.266 197.295 170.274 197.368 170.284V171.706C197.309 171.689 197.203 171.671 197.05 171.651C196.898 171.628 196.745 171.616 196.593 171.616C196.241 171.616 195.928 171.691 195.653 171.84C195.381 171.986 195.166 172.19 195.007 172.452C194.848 172.71 194.768 173.005 194.768 173.337V178H193.282ZM200.739 178.169C200.255 178.169 199.817 178.08 199.426 177.901C199.035 177.718 198.725 177.455 198.497 177.11C198.271 176.765 198.158 176.343 198.158 175.842C198.158 175.411 198.241 175.057 198.407 174.778C198.573 174.5 198.796 174.28 199.078 174.117C199.36 173.955 199.675 173.832 200.023 173.749C200.371 173.666 200.725 173.603 201.087 173.56C201.544 173.507 201.915 173.464 202.2 173.431C202.485 173.395 202.693 173.337 202.822 173.257C202.951 173.178 203.016 173.048 203.016 172.869V172.835C203.016 172.4 202.893 172.064 202.648 171.825C202.406 171.587 202.045 171.467 201.564 171.467C201.064 171.467 200.669 171.578 200.381 171.8C200.096 172.019 199.899 172.263 199.789 172.531L198.392 172.213C198.558 171.749 198.8 171.375 199.118 171.089C199.439 170.801 199.809 170.592 200.227 170.463C200.644 170.33 201.083 170.264 201.544 170.264C201.849 170.264 202.172 170.301 202.514 170.374C202.858 170.443 203.18 170.572 203.478 170.761C203.78 170.95 204.027 171.22 204.219 171.572C204.411 171.92 204.507 172.372 204.507 172.929V178H203.055V176.956H202.996C202.9 177.148 202.756 177.337 202.563 177.523C202.371 177.708 202.124 177.862 201.823 177.985C201.521 178.108 201.16 178.169 200.739 178.169ZM201.062 176.976C201.473 176.976 201.824 176.895 202.116 176.732C202.411 176.57 202.635 176.358 202.787 176.096C202.943 175.831 203.021 175.547 203.021 175.246V174.261C202.968 174.314 202.865 174.364 202.712 174.411C202.563 174.454 202.393 174.492 202.2 174.525C202.008 174.555 201.821 174.583 201.639 174.609C201.456 174.633 201.304 174.652 201.181 174.669C200.893 174.705 200.629 174.767 200.391 174.853C200.155 174.939 199.966 175.063 199.824 175.226C199.685 175.385 199.615 175.597 199.615 175.862C199.615 176.23 199.751 176.509 200.023 176.697C200.295 176.883 200.641 176.976 201.062 176.976ZM207.904 173.466V178H206.417V170.364H207.844V171.607H207.938C208.114 171.202 208.389 170.877 208.764 170.632C209.142 170.387 209.617 170.264 210.191 170.264C210.711 170.264 211.167 170.374 211.558 170.592C211.949 170.808 212.252 171.129 212.468 171.557C212.683 171.984 212.791 172.513 212.791 173.143V178H211.304V173.322C211.304 172.768 211.16 172.336 210.872 172.024C210.583 171.709 210.187 171.552 209.683 171.552C209.339 171.552 209.032 171.626 208.764 171.776C208.499 171.925 208.288 172.143 208.132 172.432C207.98 172.717 207.904 173.062 207.904 173.466ZM217.931 178.154C217.192 178.154 216.555 177.987 216.022 177.652C215.492 177.314 215.084 176.848 214.799 176.255C214.514 175.662 214.371 174.982 214.371 174.217C214.371 173.441 214.517 172.757 214.809 172.163C215.1 171.567 215.511 171.101 216.042 170.766C216.572 170.432 217.197 170.264 217.916 170.264C218.496 170.264 219.013 170.372 219.467 170.587C219.921 170.799 220.287 171.098 220.566 171.482C220.848 171.867 221.015 172.316 221.068 172.83H219.621C219.542 172.472 219.359 172.163 219.074 171.905C218.793 171.646 218.415 171.517 217.941 171.517C217.527 171.517 217.164 171.626 216.852 171.845C216.544 172.061 216.304 172.369 216.131 172.77C215.959 173.168 215.873 173.638 215.873 174.182C215.873 174.739 215.957 175.219 216.126 175.624C216.295 176.028 216.534 176.341 216.842 176.563C217.154 176.785 217.52 176.896 217.941 176.896C218.223 176.896 218.478 176.845 218.706 176.742C218.938 176.636 219.132 176.485 219.288 176.29C219.447 176.094 219.558 175.859 219.621 175.584H221.068C221.015 176.078 220.854 176.518 220.586 176.906C220.317 177.294 219.958 177.599 219.507 177.821C219.059 178.043 218.534 178.154 217.931 178.154ZM224.074 173.466V178H222.588V167.818H224.054V171.607H224.149C224.328 171.196 224.601 170.869 224.969 170.627C225.337 170.385 225.818 170.264 226.411 170.264C226.934 170.264 227.392 170.372 227.783 170.587C228.177 170.803 228.482 171.124 228.698 171.552C228.916 171.976 229.026 172.506 229.026 173.143V178H227.539V173.322C227.539 172.762 227.395 172.327 227.107 172.019C226.818 171.708 226.417 171.552 225.904 171.552C225.552 171.552 225.238 171.626 224.959 171.776C224.684 171.925 224.467 172.143 224.308 172.432C224.152 172.717 224.074 173.062 224.074 173.466ZM234.231 178.154C233.478 178.154 232.83 177.993 232.287 177.672C231.747 177.347 231.329 176.891 231.034 176.305C230.742 175.715 230.596 175.024 230.596 174.232C230.596 173.449 230.742 172.76 231.034 172.163C231.329 171.567 231.74 171.101 232.267 170.766C232.797 170.432 233.417 170.264 234.126 170.264C234.557 170.264 234.975 170.335 235.379 170.478C235.784 170.621 236.146 170.844 236.468 171.149C236.789 171.454 237.043 171.85 237.229 172.337C237.414 172.821 237.507 173.41 237.507 174.102V174.629H231.437V173.516H236.05C236.05 173.125 235.971 172.778 235.812 172.477C235.653 172.172 235.429 171.931 235.141 171.756C234.855 171.58 234.521 171.492 234.136 171.492C233.719 171.492 233.354 171.595 233.043 171.8C232.734 172.003 232.496 172.268 232.327 172.596C232.161 172.921 232.078 173.274 232.078 173.655V174.525C232.078 175.035 232.168 175.469 232.346 175.827C232.529 176.185 232.782 176.459 233.107 176.648C233.432 176.833 233.811 176.926 234.246 176.926C234.527 176.926 234.784 176.886 235.016 176.807C235.248 176.724 235.449 176.601 235.618 176.439C235.787 176.277 235.916 176.076 236.006 175.837L237.413 176.091C237.3 176.505 237.098 176.868 236.806 177.18C236.518 177.488 236.155 177.728 235.717 177.901C235.283 178.07 234.788 178.154 234.231 178.154ZM244.809 172.228L243.461 172.467C243.405 172.294 243.315 172.13 243.193 171.974C243.074 171.819 242.911 171.691 242.706 171.592C242.5 171.492 242.243 171.442 241.935 171.442C241.514 171.442 241.163 171.537 240.881 171.726C240.599 171.911 240.458 172.152 240.458 172.447C240.458 172.702 240.553 172.907 240.742 173.063C240.931 173.219 241.236 173.347 241.657 173.446L242.87 173.724C243.572 173.887 244.096 174.137 244.441 174.475C244.785 174.813 244.958 175.252 244.958 175.793C244.958 176.25 244.825 176.658 244.56 177.016C244.298 177.37 243.932 177.649 243.461 177.851C242.994 178.053 242.452 178.154 241.836 178.154C240.98 178.154 240.283 177.972 239.743 177.607C239.202 177.239 238.871 176.717 238.748 176.041L240.185 175.822C240.275 176.197 240.458 176.48 240.737 176.673C241.015 176.862 241.378 176.956 241.826 176.956C242.313 176.956 242.702 176.855 242.994 176.653C243.286 176.447 243.431 176.197 243.431 175.902C243.431 175.663 243.342 175.463 243.163 175.3C242.987 175.138 242.717 175.015 242.353 174.933L241.06 174.649C240.347 174.487 239.82 174.228 239.479 173.874C239.141 173.519 238.972 173.07 238.972 172.526C238.972 172.076 239.098 171.681 239.35 171.343C239.602 171.005 239.95 170.741 240.394 170.553C240.838 170.36 241.347 170.264 241.92 170.264C242.745 170.264 243.395 170.443 243.869 170.801C244.343 171.156 244.656 171.631 244.809 172.228ZM250.157 178V170.364H251.644V178H250.157ZM250.908 169.185C250.649 169.185 250.427 169.099 250.242 168.927C250.059 168.751 249.968 168.542 249.968 168.3C249.968 168.055 250.059 167.846 250.242 167.674C250.427 167.498 250.649 167.411 250.908 167.411C251.166 167.411 251.387 167.498 251.569 167.674C251.755 167.846 251.848 168.055 251.848 168.3C251.848 168.542 251.755 168.751 251.569 168.927C251.387 169.099 251.166 169.185 250.908 169.185ZM255.06 173.466V178H253.574V170.364H255V171.607H255.095C255.271 171.202 255.546 170.877 255.92 170.632C256.298 170.387 256.774 170.264 257.347 170.264C257.867 170.264 258.323 170.374 258.714 170.592C259.105 170.808 259.409 171.129 259.624 171.557C259.839 171.984 259.947 172.513 259.947 173.143V178H258.461V173.322C258.461 172.768 258.316 172.336 258.028 172.024C257.74 171.709 257.344 171.552 256.84 171.552C256.495 171.552 256.189 171.626 255.92 171.776C255.655 171.925 255.445 172.143 255.289 172.432C255.136 172.717 255.06 173.062 255.06 173.466ZM272.516 171.035C272.42 170.733 272.29 170.463 272.128 170.224C271.969 169.982 271.778 169.777 271.556 169.608C271.334 169.436 271.081 169.305 270.796 169.215C270.514 169.126 270.204 169.081 269.866 169.081C269.293 169.081 268.776 169.228 268.315 169.523C267.854 169.818 267.49 170.251 267.221 170.821C266.956 171.388 266.823 172.082 266.823 172.904C266.823 173.729 266.958 174.427 267.226 174.997C267.494 175.567 267.862 176 268.33 176.295C268.797 176.59 269.329 176.737 269.926 176.737C270.479 176.737 270.961 176.625 271.372 176.399C271.787 176.174 272.106 175.856 272.332 175.445C272.561 175.03 272.675 174.543 272.675 173.983L273.073 174.058H270.159V172.79H274.161V173.948C274.161 174.803 273.979 175.546 273.615 176.175C273.253 176.802 272.753 177.286 272.113 177.627C271.477 177.969 270.748 178.139 269.926 178.139C269.004 178.139 268.195 177.927 267.499 177.503C266.807 177.079 266.267 176.477 265.879 175.698C265.491 174.916 265.297 173.988 265.297 172.914C265.297 172.102 265.41 171.373 265.635 170.727C265.86 170.08 266.177 169.532 266.585 169.081C266.996 168.627 267.478 168.281 268.031 168.042C268.588 167.8 269.196 167.679 269.856 167.679C270.406 167.679 270.918 167.76 271.392 167.923C271.869 168.085 272.294 168.315 272.665 168.614C273.039 168.912 273.349 169.267 273.595 169.678C273.84 170.085 274.006 170.538 274.092 171.035H272.516ZM276.401 178V170.364H277.887V178H276.401ZM277.151 169.185C276.893 169.185 276.671 169.099 276.485 168.927C276.303 168.751 276.212 168.542 276.212 168.3C276.212 168.055 276.303 167.846 276.485 167.674C276.671 167.498 276.893 167.411 277.151 167.411C277.41 167.411 277.63 167.498 277.813 167.674C277.998 167.846 278.091 168.055 278.091 168.3C278.091 168.542 277.998 168.751 277.813 168.927C277.63 169.099 277.41 169.185 277.151 169.185ZM283.382 170.364V171.557H279.21V170.364H283.382ZM280.329 168.534H281.816V175.758C281.816 176.046 281.859 176.263 281.945 176.409C282.031 176.552 282.142 176.649 282.278 176.702C282.417 176.752 282.568 176.777 282.73 176.777C282.85 176.777 282.954 176.769 283.044 176.752C283.133 176.736 283.203 176.722 283.252 176.712L283.521 177.94C283.435 177.973 283.312 178.007 283.153 178.04C282.994 178.076 282.795 178.096 282.556 178.099C282.165 178.106 281.801 178.036 281.463 177.891C281.125 177.745 280.851 177.519 280.642 177.214C280.434 176.91 280.329 176.527 280.329 176.066V168.534Z" fill="#14151A"/>
<path d="M115.233 202V191.818H121.378V192.912H116.466V196.352H121.06V197.446H116.466V200.906H121.457V202H115.233ZM125.618 202.179C125.134 202.179 124.695 202.088 124.301 201.906C123.906 201.72 123.593 201.453 123.361 201.105C123.129 200.754 123.013 200.33 123.013 199.832C123.013 199.395 123.099 199.04 123.272 198.768C123.444 198.493 123.674 198.278 123.963 198.122C124.251 197.966 124.569 197.85 124.917 197.774C125.269 197.695 125.622 197.632 125.976 197.585C126.44 197.526 126.816 197.481 127.105 197.451C127.396 197.418 127.609 197.363 127.741 197.287C127.877 197.211 127.945 197.078 127.945 196.889V196.849C127.945 196.359 127.811 195.978 127.542 195.706C127.277 195.434 126.874 195.298 126.334 195.298C125.774 195.298 125.335 195.421 125.017 195.666C124.698 195.911 124.475 196.173 124.345 196.452L123.232 196.054C123.431 195.59 123.696 195.229 124.027 194.97C124.362 194.708 124.727 194.526 125.121 194.423C125.519 194.317 125.91 194.264 126.294 194.264C126.54 194.264 126.821 194.294 127.14 194.354C127.461 194.41 127.771 194.528 128.069 194.707C128.371 194.886 128.621 195.156 128.82 195.517C129.019 195.878 129.118 196.362 129.118 196.969V202H127.945V200.966H127.885C127.806 201.132 127.673 201.309 127.488 201.498C127.302 201.687 127.055 201.848 126.747 201.98C126.439 202.113 126.062 202.179 125.618 202.179ZM125.797 201.125C126.261 201.125 126.652 201.034 126.97 200.852C127.292 200.669 127.534 200.434 127.696 200.146C127.862 199.857 127.945 199.554 127.945 199.236V198.162C127.895 198.222 127.786 198.276 127.617 198.326C127.451 198.372 127.259 198.414 127.04 198.45C126.825 198.483 126.614 198.513 126.409 198.54C126.207 198.563 126.042 198.583 125.917 198.599C125.612 198.639 125.327 198.704 125.061 198.793C124.8 198.879 124.587 199.01 124.425 199.186C124.266 199.358 124.186 199.594 124.186 199.892C124.186 200.3 124.337 200.608 124.639 200.817C124.944 201.022 125.33 201.125 125.797 201.125ZM136.599 196.074L135.545 196.372C135.479 196.196 135.381 196.026 135.252 195.86C135.126 195.691 134.953 195.552 134.734 195.442C134.516 195.333 134.236 195.278 133.894 195.278C133.427 195.278 133.037 195.386 132.726 195.602C132.418 195.814 132.264 196.084 132.264 196.412C132.264 196.704 132.37 196.934 132.582 197.103C132.794 197.272 133.125 197.413 133.576 197.526L134.71 197.804C135.392 197.97 135.901 198.223 136.236 198.565C136.571 198.903 136.738 199.339 136.738 199.872C136.738 200.31 136.612 200.701 136.36 201.045C136.112 201.39 135.764 201.662 135.316 201.861C134.869 202.06 134.348 202.159 133.755 202.159C132.976 202.159 132.332 201.99 131.821 201.652C131.311 201.314 130.988 200.82 130.852 200.17L131.965 199.892C132.071 200.303 132.272 200.611 132.567 200.817C132.865 201.022 133.255 201.125 133.735 201.125C134.282 201.125 134.716 201.009 135.038 200.777C135.363 200.542 135.525 200.26 135.525 199.932C135.525 199.667 135.432 199.445 135.247 199.266C135.061 199.083 134.776 198.947 134.391 198.858L133.119 198.56C132.419 198.394 131.906 198.137 131.578 197.789C131.253 197.438 131.09 196.999 131.09 196.472C131.09 196.041 131.211 195.66 131.453 195.328C131.698 194.997 132.032 194.737 132.453 194.548C132.877 194.359 133.357 194.264 133.894 194.264C134.65 194.264 135.243 194.43 135.674 194.761C136.108 195.093 136.417 195.53 136.599 196.074ZM139.19 204.864C138.991 204.864 138.814 204.847 138.658 204.814C138.502 204.784 138.394 204.754 138.335 204.724L138.633 203.69C138.918 203.763 139.17 203.79 139.389 203.77C139.607 203.75 139.801 203.652 139.97 203.477C140.143 203.304 140.3 203.024 140.443 202.636L140.661 202.04L137.838 194.364H139.11L141.218 200.449H141.298L143.406 194.364H144.678L141.437 203.114C141.291 203.508 141.111 203.835 140.895 204.093C140.68 204.355 140.429 204.549 140.144 204.675C139.863 204.801 139.544 204.864 139.19 204.864ZM150.532 197.088V198.182H146.078V197.088H150.532ZM155.848 194.364V195.358H151.89V194.364H155.848ZM153.044 192.534H154.217V199.812C154.217 200.144 154.265 200.393 154.361 200.558C154.461 200.721 154.586 200.83 154.739 200.886C154.895 200.939 155.059 200.966 155.231 200.966C155.36 200.966 155.466 200.959 155.549 200.946C155.632 200.929 155.698 200.916 155.748 200.906L155.987 201.96C155.907 201.99 155.796 202.02 155.654 202.05C155.511 202.083 155.331 202.099 155.112 202.099C154.78 202.099 154.456 202.028 154.137 201.886C153.823 201.743 153.561 201.526 153.352 201.234C153.146 200.943 153.044 200.575 153.044 200.131V192.534ZM160.563 202.159C159.873 202.159 159.269 201.995 158.748 201.667C158.231 201.339 157.827 200.88 157.535 200.29C157.247 199.7 157.103 199.01 157.103 198.222C157.103 197.426 157.247 196.732 157.535 196.138C157.827 195.545 158.231 195.085 158.748 194.756C159.269 194.428 159.873 194.264 160.563 194.264C161.252 194.264 161.855 194.428 162.372 194.756C162.893 195.085 163.297 195.545 163.586 196.138C163.877 196.732 164.023 197.426 164.023 198.222C164.023 199.01 163.877 199.7 163.586 200.29C163.297 200.88 162.893 201.339 162.372 201.667C161.855 201.995 161.252 202.159 160.563 202.159ZM160.563 201.105C161.086 201.105 161.517 200.971 161.855 200.702C162.193 200.434 162.444 200.081 162.606 199.643C162.769 199.206 162.85 198.732 162.85 198.222C162.85 197.711 162.769 197.236 162.606 196.795C162.444 196.354 162.193 195.998 161.855 195.726C161.517 195.454 161.086 195.318 160.563 195.318C160.039 195.318 159.608 195.454 159.27 195.726C158.932 195.998 158.682 196.354 158.519 196.795C158.357 197.236 158.276 197.711 158.276 198.222C158.276 198.732 158.357 199.206 158.519 199.643C158.682 200.081 158.932 200.434 159.27 200.702C159.608 200.971 160.039 201.105 160.563 201.105ZM170.119 197.088V198.182H165.664V197.088H170.119ZM175.514 194.364V195.358H171.398V194.364H175.514ZM172.631 202V193.31C172.631 192.872 172.733 192.508 172.939 192.216C173.144 191.924 173.411 191.705 173.739 191.56C174.067 191.414 174.414 191.341 174.778 191.341C175.067 191.341 175.302 191.364 175.484 191.411C175.667 191.457 175.802 191.5 175.892 191.54L175.554 192.554C175.494 192.534 175.411 192.509 175.305 192.479C175.202 192.45 175.067 192.435 174.898 192.435C174.51 192.435 174.23 192.532 174.057 192.728C173.888 192.924 173.804 193.21 173.804 193.588V202H172.631ZM179.876 202.159C179.187 202.159 178.582 201.995 178.062 201.667C177.545 201.339 177.14 200.88 176.849 200.29C176.56 199.7 176.416 199.01 176.416 198.222C176.416 197.426 176.56 196.732 176.849 196.138C177.14 195.545 177.545 195.085 178.062 194.756C178.582 194.428 179.187 194.264 179.876 194.264C180.566 194.264 181.169 194.428 181.686 194.756C182.206 195.085 182.611 195.545 182.899 196.138C183.191 196.732 183.336 197.426 183.336 198.222C183.336 199.01 183.191 199.7 182.899 200.29C182.611 200.88 182.206 201.339 181.686 201.667C181.169 201.995 180.566 202.159 179.876 202.159ZM179.876 201.105C180.4 201.105 180.831 200.971 181.169 200.702C181.507 200.434 181.757 200.081 181.92 199.643C182.082 199.206 182.163 198.732 182.163 198.222C182.163 197.711 182.082 197.236 181.92 196.795C181.757 196.354 181.507 195.998 181.169 195.726C180.831 195.454 180.4 195.318 179.876 195.318C179.353 195.318 178.922 195.454 178.584 195.726C178.246 195.998 177.995 196.354 177.833 196.795C177.67 197.236 177.589 197.711 177.589 198.222C177.589 198.732 177.67 199.206 177.833 199.643C177.995 200.081 178.246 200.434 178.584 200.702C178.922 200.971 179.353 201.105 179.876 201.105ZM186.231 191.818V202H185.057V191.818H186.231ZM189.483 191.818V202H188.31V191.818H189.483ZM194.664 202.159C193.975 202.159 193.37 201.995 192.85 201.667C192.333 201.339 191.928 200.88 191.637 200.29C191.348 199.7 191.204 199.01 191.204 198.222C191.204 197.426 191.348 196.732 191.637 196.138C191.928 195.545 192.333 195.085 192.85 194.756C193.37 194.428 193.975 194.264 194.664 194.264C195.354 194.264 195.957 194.428 196.474 194.756C196.994 195.085 197.399 195.545 197.687 196.138C197.979 196.732 198.124 197.426 198.124 198.222C198.124 199.01 197.979 199.7 197.687 200.29C197.399 200.88 196.994 201.339 196.474 201.667C195.957 201.995 195.354 202.159 194.664 202.159ZM194.664 201.105C195.188 201.105 195.619 200.971 195.957 200.702C196.295 200.434 196.545 200.081 196.708 199.643C196.87 199.206 196.951 198.732 196.951 198.222C196.951 197.711 196.87 197.236 196.708 196.795C196.545 196.354 196.295 195.998 195.957 195.726C195.619 195.454 195.188 195.318 194.664 195.318C194.141 195.318 193.71 195.454 193.372 195.726C193.034 195.998 192.783 196.354 192.621 196.795C192.459 197.236 192.377 197.711 192.377 198.222C192.377 198.732 192.459 199.206 192.621 199.643C192.783 200.081 193.034 200.434 193.372 200.702C193.71 200.971 194.141 201.105 194.664 201.105ZM201.316 202L198.989 194.364H200.222L201.873 200.21H201.952L203.583 194.364H204.836L206.447 200.19H206.526L208.177 194.364H209.41L207.083 202H205.929L204.259 196.134H204.14L202.469 202H201.316ZM220.167 196.074L219.113 196.372C219.047 196.196 218.949 196.026 218.82 195.86C218.694 195.691 218.522 195.552 218.303 195.442C218.084 195.333 217.804 195.278 217.463 195.278C216.995 195.278 216.606 195.386 216.294 195.602C215.986 195.814 215.832 196.084 215.832 196.412C215.832 196.704 215.938 196.934 216.15 197.103C216.362 197.272 216.694 197.413 217.145 197.526L218.278 197.804C218.961 197.97 219.47 198.223 219.804 198.565C220.139 198.903 220.307 199.339 220.307 199.872C220.307 200.31 220.181 200.701 219.929 201.045C219.68 201.39 219.332 201.662 218.885 201.861C218.437 202.06 217.917 202.159 217.324 202.159C216.545 202.159 215.9 201.99 215.39 201.652C214.879 201.314 214.556 200.82 214.42 200.17L215.534 199.892C215.64 200.303 215.84 200.611 216.135 200.817C216.434 201.022 216.823 201.125 217.304 201.125C217.851 201.125 218.285 201.009 218.606 200.777C218.931 200.542 219.093 200.26 219.093 199.932C219.093 199.667 219.001 199.445 218.815 199.266C218.629 199.083 218.344 198.947 217.96 198.858L216.687 198.56C215.988 198.394 215.474 198.137 215.146 197.789C214.821 197.438 214.659 196.999 214.659 196.472C214.659 196.041 214.78 195.66 215.022 195.328C215.267 194.997 215.6 194.737 216.021 194.548C216.445 194.359 216.926 194.264 217.463 194.264C218.218 194.264 218.812 194.43 219.243 194.761C219.677 195.093 219.985 195.53 220.167 196.074ZM225.324 194.364V195.358H221.366V194.364H225.324ZM222.52 192.534H223.693V199.812C223.693 200.144 223.741 200.393 223.837 200.558C223.937 200.721 224.063 200.83 224.215 200.886C224.371 200.939 224.535 200.966 224.707 200.966C224.836 200.966 224.943 200.959 225.025 200.946C225.108 200.929 225.175 200.916 225.224 200.906L225.463 201.96C225.383 201.99 225.272 202.02 225.13 202.05C224.987 202.083 224.807 202.099 224.588 202.099C224.256 202.099 223.932 202.028 223.613 201.886C223.299 201.743 223.037 201.526 222.828 201.234C222.622 200.943 222.52 200.575 222.52 200.131V192.534ZM230.138 202.159C229.403 202.159 228.768 201.997 228.234 201.672C227.704 201.344 227.295 200.886 227.006 200.3C226.721 199.71 226.579 199.024 226.579 198.241C226.579 197.459 226.721 196.77 227.006 196.173C227.295 195.573 227.696 195.106 228.209 194.771C228.726 194.433 229.33 194.264 230.019 194.264C230.417 194.264 230.809 194.33 231.197 194.463C231.585 194.596 231.938 194.811 232.256 195.109C232.574 195.404 232.828 195.795 233.017 196.283C233.206 196.77 233.3 197.37 233.3 198.082V198.58H227.414V197.565H232.107C232.107 197.134 232.021 196.75 231.849 196.412C231.679 196.074 231.438 195.807 231.123 195.612C230.811 195.416 230.443 195.318 230.019 195.318C229.552 195.318 229.147 195.434 228.806 195.666C228.468 195.895 228.208 196.193 228.025 196.561C227.843 196.929 227.752 197.323 227.752 197.744V198.42C227.752 198.997 227.851 199.486 228.05 199.887C228.252 200.285 228.532 200.588 228.89 200.797C229.248 201.002 229.664 201.105 230.138 201.105C230.447 201.105 230.725 201.062 230.974 200.976C231.225 200.886 231.443 200.754 231.625 200.578C231.807 200.399 231.948 200.177 232.047 199.912L233.181 200.23C233.062 200.615 232.861 200.953 232.579 201.244C232.298 201.533 231.95 201.758 231.535 201.92C231.121 202.08 230.655 202.159 230.138 202.159ZM235.015 204.864V194.364H236.149V195.577H236.288C236.374 195.444 236.493 195.275 236.646 195.07C236.801 194.861 237.024 194.675 237.312 194.513C237.604 194.347 237.998 194.264 238.495 194.264C239.138 194.264 239.705 194.425 240.195 194.746C240.686 195.068 241.069 195.524 241.344 196.114C241.619 196.704 241.757 197.4 241.757 198.202C241.757 199.01 241.619 199.711 241.344 200.305C241.069 200.895 240.688 201.352 240.2 201.677C239.713 201.998 239.151 202.159 238.515 202.159C238.025 202.159 237.632 202.078 237.337 201.915C237.042 201.75 236.815 201.562 236.656 201.354C236.497 201.142 236.374 200.966 236.288 200.827H236.188V204.864H235.015ZM236.168 198.182C236.168 198.759 236.253 199.267 236.422 199.708C236.591 200.146 236.838 200.489 237.163 200.737C237.488 200.982 237.885 201.105 238.356 201.105C238.846 201.105 239.256 200.976 239.584 200.717C239.915 200.455 240.164 200.104 240.33 199.663C240.499 199.219 240.583 198.725 240.583 198.182C240.583 197.645 240.5 197.161 240.335 196.73C240.172 196.296 239.925 195.953 239.594 195.701C239.266 195.446 238.853 195.318 238.356 195.318C237.879 195.318 237.478 195.439 237.153 195.681C236.828 195.92 236.583 196.254 236.417 196.685C236.251 197.113 236.168 197.612 236.168 198.182ZM248.885 196.074L247.831 196.372C247.765 196.196 247.667 196.026 247.538 195.86C247.412 195.691 247.24 195.552 247.021 195.442C246.802 195.333 246.522 195.278 246.181 195.278C245.713 195.278 245.324 195.386 245.013 195.602C244.704 195.814 244.55 196.084 244.55 196.412C244.55 196.704 244.656 196.934 244.868 197.103C245.08 197.272 245.412 197.413 245.863 197.526L246.996 197.804C247.679 197.97 248.188 198.223 248.522 198.565C248.857 198.903 249.025 199.339 249.025 199.872C249.025 200.31 248.899 200.701 248.647 201.045C248.398 201.39 248.05 201.662 247.603 201.861C247.155 202.06 246.635 202.159 246.042 202.159C245.263 202.159 244.618 201.99 244.108 201.652C243.597 201.314 243.274 200.82 243.138 200.17L244.252 199.892C244.358 200.303 244.558 200.611 244.853 200.817C245.152 201.022 245.541 201.125 246.022 201.125C246.569 201.125 247.003 201.009 247.324 200.777C247.649 200.542 247.812 200.26 247.812 199.932C247.812 199.667 247.719 199.445 247.533 199.266C247.347 199.083 247.062 198.947 246.678 198.858L245.405 198.56C244.706 198.394 244.192 198.137 243.864 197.789C243.539 197.438 243.377 196.999 243.377 196.472C243.377 196.041 243.498 195.66 243.74 195.328C243.985 194.997 244.318 194.737 244.739 194.548C245.163 194.359 245.644 194.264 246.181 194.264C246.937 194.264 247.53 194.43 247.961 194.761C248.395 195.093 248.703 195.53 248.885 196.074ZM257.989 194.364V195.358H253.872V194.364H257.989ZM255.105 202V193.31C255.105 192.872 255.208 192.508 255.414 192.216C255.619 191.924 255.886 191.705 256.214 191.56C256.542 191.414 256.888 191.341 257.253 191.341C257.541 191.341 257.777 191.364 257.959 191.411C258.141 191.457 258.277 191.5 258.367 191.54L258.029 192.554C257.969 192.534 257.886 192.509 257.78 192.479C257.677 192.45 257.541 192.435 257.372 192.435C256.985 192.435 256.704 192.532 256.532 192.728C256.363 192.924 256.279 193.21 256.279 193.588V202H255.105ZM262.351 202.159C261.662 202.159 261.057 201.995 260.536 201.667C260.019 201.339 259.615 200.88 259.323 200.29C259.035 199.7 258.891 199.01 258.891 198.222C258.891 197.426 259.035 196.732 259.323 196.138C259.615 195.545 260.019 195.085 260.536 194.756C261.057 194.428 261.662 194.264 262.351 194.264C263.04 194.264 263.644 194.428 264.161 194.756C264.681 195.085 265.085 195.545 265.374 196.138C265.665 196.732 265.811 197.426 265.811 198.222C265.811 199.01 265.665 199.7 265.374 200.29C265.085 200.88 264.681 201.339 264.161 201.667C263.644 201.995 263.04 202.159 262.351 202.159ZM262.351 201.105C262.875 201.105 263.306 200.971 263.644 200.702C263.982 200.434 264.232 200.081 264.394 199.643C264.557 199.206 264.638 198.732 264.638 198.222C264.638 197.711 264.557 197.236 264.394 196.795C264.232 196.354 263.982 195.998 263.644 195.726C263.306 195.454 262.875 195.318 262.351 195.318C261.827 195.318 261.396 195.454 261.058 195.726C260.72 195.998 260.47 196.354 260.308 196.795C260.145 197.236 260.064 197.711 260.064 198.222C260.064 198.732 260.145 199.206 260.308 199.643C260.47 200.081 260.72 200.434 261.058 200.702C261.396 200.971 261.827 201.105 262.351 201.105ZM267.532 202V194.364H268.666V195.517H268.745C268.884 195.139 269.136 194.833 269.501 194.597C269.866 194.362 270.277 194.244 270.734 194.244C270.82 194.244 270.928 194.246 271.057 194.249C271.186 194.253 271.284 194.258 271.35 194.264V195.457C271.311 195.447 271.219 195.433 271.077 195.413C270.938 195.389 270.79 195.378 270.634 195.378C270.263 195.378 269.932 195.456 269.64 195.612C269.352 195.764 269.123 195.976 268.954 196.248C268.788 196.516 268.706 196.823 268.706 197.168V202H267.532ZM279.422 202.159C278.786 202.159 278.224 201.998 277.737 201.677C277.25 201.352 276.868 200.895 276.593 200.305C276.318 199.711 276.181 199.01 276.181 198.202C276.181 197.4 276.318 196.704 276.593 196.114C276.868 195.524 277.251 195.068 277.742 194.746C278.232 194.425 278.799 194.264 279.442 194.264C279.939 194.264 280.332 194.347 280.62 194.513C280.912 194.675 281.134 194.861 281.287 195.07C281.442 195.275 281.563 195.444 281.65 195.577H281.749V191.818H282.922V202H281.789V200.827H281.65C281.563 200.966 281.441 201.142 281.282 201.354C281.123 201.562 280.895 201.75 280.6 201.915C280.306 202.078 279.913 202.159 279.422 202.159ZM279.581 201.105C280.052 201.105 280.45 200.982 280.775 200.737C281.099 200.489 281.346 200.146 281.515 199.708C281.684 199.267 281.769 198.759 281.769 198.182C281.769 197.612 281.686 197.113 281.52 196.685C281.355 196.254 281.109 195.92 280.784 195.681C280.46 195.439 280.059 195.318 279.581 195.318C279.084 195.318 278.67 195.446 278.338 195.701C278.01 195.953 277.763 196.296 277.598 196.73C277.435 197.161 277.354 197.645 277.354 198.182C277.354 198.725 277.437 199.219 277.603 199.663C277.772 200.104 278.02 200.455 278.348 200.717C278.68 200.976 279.091 201.105 279.581 201.105ZM288.366 202.159C287.63 202.159 286.995 201.997 286.462 201.672C285.931 201.344 285.522 200.886 285.234 200.3C284.949 199.71 284.806 199.024 284.806 198.241C284.806 197.459 284.949 196.77 285.234 196.173C285.522 195.573 285.923 195.106 286.437 194.771C286.954 194.433 287.557 194.264 288.246 194.264C288.644 194.264 289.037 194.33 289.425 194.463C289.812 194.596 290.165 194.811 290.484 195.109C290.802 195.404 291.055 195.795 291.244 196.283C291.433 196.77 291.528 197.37 291.528 198.082V198.58H285.641V197.565H290.334C290.334 197.134 290.248 196.75 290.076 196.412C289.907 196.074 289.665 195.807 289.35 195.612C289.039 195.416 288.671 195.318 288.246 195.318C287.779 195.318 287.375 195.434 287.033 195.666C286.695 195.895 286.435 196.193 286.253 196.561C286.07 196.929 285.979 197.323 285.979 197.744V198.42C285.979 198.997 286.079 199.486 286.278 199.887C286.48 200.285 286.76 200.588 287.118 200.797C287.476 201.002 287.892 201.105 288.366 201.105C288.674 201.105 288.952 201.062 289.201 200.976C289.453 200.886 289.67 200.754 289.852 200.578C290.035 200.399 290.175 200.177 290.275 199.912L291.408 200.23C291.289 200.615 291.088 200.953 290.807 201.244C290.525 201.533 290.177 201.758 289.763 201.92C289.348 202.08 288.883 202.159 288.366 202.159ZM294.416 191.818V202H293.242V191.818H294.416ZM299.696 202.159C298.961 202.159 298.326 201.997 297.792 201.672C297.262 201.344 296.853 200.886 296.564 200.3C296.279 199.71 296.137 199.024 296.137 198.241C296.137 197.459 296.279 196.77 296.564 196.173C296.853 195.573 297.254 195.106 297.767 194.771C298.284 194.433 298.888 194.264 299.577 194.264C299.975 194.264 300.368 194.33 300.755 194.463C301.143 194.596 301.496 194.811 301.814 195.109C302.133 195.404 302.386 195.795 302.575 196.283C302.764 196.77 302.858 197.37 302.858 198.082V198.58H296.972V197.565H301.665C301.665 197.134 301.579 196.75 301.407 196.412C301.238 196.074 300.996 195.807 300.681 195.612C300.369 195.416 300.001 195.318 299.577 195.318C299.11 195.318 298.705 195.434 298.364 195.666C298.026 195.895 297.766 196.193 297.583 196.561C297.401 196.929 297.31 197.323 297.31 197.744V198.42C297.31 198.997 297.409 199.486 297.608 199.887C297.811 200.285 298.091 200.588 298.449 200.797C298.807 201.002 299.222 201.105 299.696 201.105C300.005 201.105 300.283 201.062 300.532 200.976C300.784 200.886 301.001 200.754 301.183 200.578C301.365 200.399 301.506 200.177 301.606 199.912L302.739 200.23C302.62 200.615 302.419 200.953 302.137 201.244C301.856 201.533 301.508 201.758 301.093 201.92C300.679 202.08 300.213 202.159 299.696 202.159ZM307.894 194.364V195.358H303.937V194.364H307.894ZM305.09 192.534H306.264V199.812C306.264 200.144 306.312 200.393 306.408 200.558C306.507 200.721 306.633 200.83 306.786 200.886C306.941 200.939 307.105 200.966 307.278 200.966C307.407 200.966 307.513 200.959 307.596 200.946C307.679 200.929 307.745 200.916 307.795 200.906L308.033 201.96C307.954 201.99 307.843 202.02 307.7 202.05C307.558 202.083 307.377 202.099 307.158 202.099C306.827 202.099 306.502 202.028 306.184 201.886C305.869 201.743 305.607 201.526 305.398 201.234C305.193 200.943 305.09 200.575 305.09 200.131V192.534ZM309.589 202V194.364H310.762V202H309.589ZM310.186 193.091C309.957 193.091 309.76 193.013 309.594 192.857C309.432 192.701 309.35 192.514 309.35 192.295C309.35 192.077 309.432 191.889 309.594 191.734C309.76 191.578 309.957 191.5 310.186 191.5C310.414 191.5 310.61 191.578 310.772 191.734C310.938 191.889 311.021 192.077 311.021 192.295C311.021 192.514 310.938 192.701 310.772 192.857C310.61 193.013 310.414 193.091 310.186 193.091ZM314.015 197.406V202H312.841V194.364H313.975V195.557H314.074C314.253 195.169 314.525 194.857 314.89 194.622C315.254 194.384 315.725 194.264 316.302 194.264C316.819 194.264 317.271 194.37 317.659 194.582C318.047 194.791 318.348 195.109 318.564 195.537C318.779 195.961 318.887 196.498 318.887 197.148V202H317.714V197.227C317.714 196.627 317.558 196.16 317.246 195.825C316.935 195.487 316.507 195.318 315.964 195.318C315.589 195.318 315.254 195.399 314.959 195.562C314.668 195.724 314.437 195.961 314.268 196.273C314.099 196.584 314.015 196.962 314.015 197.406ZM324.043 205.023C323.476 205.023 322.989 204.95 322.582 204.804C322.174 204.661 321.834 204.473 321.562 204.237C321.294 204.005 321.08 203.757 320.921 203.491L321.856 202.835C321.962 202.974 322.096 203.134 322.258 203.312C322.421 203.495 322.643 203.652 322.925 203.785C323.21 203.921 323.582 203.989 324.043 203.989C324.66 203.989 325.168 203.839 325.569 203.541C325.971 203.243 326.171 202.776 326.171 202.139V200.588H326.072C325.985 200.727 325.863 200.9 325.704 201.105C325.548 201.307 325.323 201.488 325.028 201.647C324.736 201.803 324.341 201.881 323.844 201.881C323.228 201.881 322.674 201.735 322.184 201.443C321.697 201.152 321.31 200.727 321.025 200.17C320.744 199.614 320.603 198.937 320.603 198.142C320.603 197.36 320.74 196.679 321.015 196.099C321.291 195.515 321.673 195.065 322.164 194.746C322.654 194.425 323.221 194.264 323.864 194.264C324.361 194.264 324.756 194.347 325.047 194.513C325.342 194.675 325.568 194.861 325.724 195.07C325.883 195.275 326.005 195.444 326.091 195.577H326.211V194.364H327.344V202.219C327.344 202.875 327.195 203.409 326.897 203.82C326.602 204.234 326.204 204.537 325.704 204.729C325.207 204.925 324.653 205.023 324.043 205.023ZM324.003 200.827C324.474 200.827 324.872 200.719 325.197 200.504C325.521 200.288 325.768 199.978 325.937 199.574C326.106 199.17 326.191 198.686 326.191 198.122C326.191 197.572 326.108 197.086 325.942 196.665C325.777 196.245 325.531 195.915 325.207 195.676C324.882 195.437 324.481 195.318 324.003 195.318C323.506 195.318 323.092 195.444 322.761 195.696C322.432 195.948 322.185 196.286 322.02 196.71C321.857 197.134 321.776 197.605 321.776 198.122C321.776 198.652 321.859 199.121 322.025 199.529C322.194 199.933 322.442 200.252 322.77 200.484C323.102 200.712 323.513 200.827 324.003 200.827ZM340.409 195C340.3 194.665 340.155 194.365 339.976 194.1C339.801 193.832 339.59 193.603 339.345 193.414C339.103 193.225 338.828 193.081 338.52 192.982C338.211 192.882 337.873 192.832 337.505 192.832C336.902 192.832 336.354 192.988 335.86 193.3C335.366 193.611 334.973 194.07 334.682 194.677C334.39 195.283 334.244 196.027 334.244 196.909C334.244 197.791 334.392 198.535 334.687 199.141C334.982 199.748 335.381 200.207 335.885 200.518C336.389 200.83 336.955 200.986 337.585 200.986C338.168 200.986 338.682 200.862 339.126 200.613C339.574 200.361 339.922 200.006 340.17 199.549C340.422 199.088 340.548 198.546 340.548 197.923L340.926 198.003H337.863V196.909H341.741V198.003C341.741 198.841 341.562 199.571 341.204 200.19C340.85 200.81 340.359 201.291 339.733 201.632C339.11 201.97 338.394 202.139 337.585 202.139C336.684 202.139 335.891 201.927 335.209 201.503C334.529 201.079 333.999 200.475 333.618 199.693C333.24 198.911 333.051 197.983 333.051 196.909C333.051 196.104 333.159 195.379 333.374 194.737C333.593 194.09 333.901 193.54 334.299 193.086C334.697 192.632 335.167 192.284 335.711 192.042C336.254 191.8 336.853 191.679 337.505 191.679C338.042 191.679 338.543 191.76 339.007 191.923C339.474 192.082 339.89 192.309 340.255 192.604C340.623 192.895 340.929 193.245 341.175 193.653C341.42 194.057 341.589 194.506 341.682 195H340.409ZM344.102 202V194.364H345.276V202H344.102ZM344.699 193.091C344.47 193.091 344.273 193.013 344.107 192.857C343.945 192.701 343.864 192.514 343.864 192.295C343.864 192.077 343.945 191.889 344.107 191.734C344.273 191.578 344.47 191.5 344.699 191.5C344.928 191.5 345.123 191.578 345.286 191.734C345.451 191.889 345.534 192.077 345.534 192.295C345.534 192.514 345.451 192.701 345.286 192.857C345.123 193.013 344.928 193.091 344.699 193.091ZM350.676 194.364V195.358H346.718V194.364H350.676ZM347.872 192.534H349.045V199.812C349.045 200.144 349.093 200.393 349.189 200.558C349.289 200.721 349.415 200.83 349.567 200.886C349.723 200.939 349.887 200.966 350.059 200.966C350.188 200.966 350.295 200.959 350.377 200.946C350.46 200.929 350.527 200.916 350.576 200.906L350.815 201.96C350.735 201.99 350.624 202.02 350.482 202.05C350.339 202.083 350.159 202.099 349.94 202.099C349.608 202.099 349.284 202.028 348.965 201.886C348.651 201.743 348.389 201.526 348.18 201.234C347.974 200.943 347.872 200.575 347.872 200.131V192.534ZM356.397 202V191.818H357.57V195.577H357.67C357.756 195.444 357.875 195.275 358.028 195.07C358.184 194.861 358.406 194.675 358.694 194.513C358.986 194.347 359.38 194.264 359.877 194.264C360.52 194.264 361.087 194.425 361.578 194.746C362.068 195.068 362.451 195.524 362.726 196.114C363.001 196.704 363.139 197.4 363.139 198.202C363.139 199.01 363.001 199.711 362.726 200.305C362.451 200.895 362.07 201.352 361.583 201.677C361.095 201.998 360.534 202.159 359.897 202.159C359.407 202.159 359.014 202.078 358.719 201.915C358.424 201.75 358.197 201.562 358.038 201.354C357.879 201.142 357.756 200.966 357.67 200.827H357.531V202H356.397ZM357.551 198.182C357.551 198.759 357.635 199.267 357.804 199.708C357.973 200.146 358.22 200.489 358.545 200.737C358.87 200.982 359.267 201.105 359.738 201.105C360.229 201.105 360.638 200.976 360.966 200.717C361.298 200.455 361.546 200.104 361.712 199.663C361.881 199.219 361.965 198.725 361.965 198.182C361.965 197.645 361.882 197.161 361.717 196.73C361.554 196.296 361.307 195.953 360.976 195.701C360.648 195.446 360.235 195.318 359.738 195.318C359.261 195.318 358.86 195.439 358.535 195.681C358.21 195.92 357.965 196.254 357.799 196.685C357.633 197.113 357.551 197.612 357.551 198.182ZM364.863 202V194.364H365.997V195.517H366.076C366.216 195.139 366.468 194.833 366.832 194.597C367.197 194.362 367.608 194.244 368.065 194.244C368.151 194.244 368.259 194.246 368.388 194.249C368.518 194.253 368.615 194.258 368.682 194.264V195.457C368.642 195.447 368.551 195.433 368.408 195.413C368.269 195.389 368.121 195.378 367.966 195.378C367.594 195.378 367.263 195.456 366.971 195.612C366.683 195.764 366.454 195.976 366.285 196.248C366.12 196.516 366.037 196.823 366.037 197.168V202H364.863ZM372.25 202.179C371.766 202.179 371.326 202.088 370.932 201.906C370.538 201.72 370.224 201.453 369.992 201.105C369.76 200.754 369.644 200.33 369.644 199.832C369.644 199.395 369.731 199.04 369.903 198.768C370.075 198.493 370.306 198.278 370.594 198.122C370.882 197.966 371.201 197.85 371.549 197.774C371.9 197.695 372.253 197.632 372.607 197.585C373.072 197.526 373.448 197.481 373.736 197.451C374.028 197.418 374.24 197.363 374.372 197.287C374.508 197.211 374.576 197.078 374.576 196.889V196.849C374.576 196.359 374.442 195.978 374.174 195.706C373.908 195.434 373.506 195.298 372.965 195.298C372.405 195.298 371.966 195.421 371.648 195.666C371.33 195.911 371.106 196.173 370.977 196.452L369.863 196.054C370.062 195.59 370.327 195.229 370.659 194.97C370.993 194.708 371.358 194.526 371.752 194.423C372.15 194.317 372.541 194.264 372.926 194.264C373.171 194.264 373.453 194.294 373.771 194.354C374.092 194.41 374.402 194.528 374.701 194.707C375.002 194.886 375.252 195.156 375.451 195.517C375.65 195.878 375.75 196.362 375.75 196.969V202H374.576V200.966H374.517C374.437 201.132 374.304 201.309 374.119 201.498C373.933 201.687 373.686 201.848 373.378 201.98C373.07 202.113 372.694 202.179 372.25 202.179ZM372.429 201.125C372.893 201.125 373.284 201.034 373.602 200.852C373.923 200.669 374.165 200.434 374.328 200.146C374.493 199.857 374.576 199.554 374.576 199.236V198.162C374.527 198.222 374.417 198.276 374.248 198.326C374.082 198.372 373.89 198.414 373.671 198.45C373.456 198.483 373.246 198.513 373.04 198.54C372.838 198.563 372.674 198.583 372.548 198.599C372.243 198.639 371.958 198.704 371.693 198.793C371.431 198.879 371.219 199.01 371.056 199.186C370.897 199.358 370.818 199.594 370.818 199.892C370.818 200.3 370.969 200.608 371.27 200.817C371.575 201.022 371.961 201.125 372.429 201.125ZM378.994 197.406V202H377.821V194.364H378.955V195.557H379.054C379.233 195.169 379.505 194.857 379.869 194.622C380.234 194.384 380.705 194.264 381.281 194.264C381.798 194.264 382.251 194.37 382.639 194.582C383.026 194.791 383.328 195.109 383.543 195.537C383.759 195.961 383.867 196.498 383.867 197.148V202H382.693V197.227C382.693 196.627 382.537 196.16 382.226 195.825C381.914 195.487 381.487 195.318 380.943 195.318C380.569 195.318 380.234 195.399 379.939 195.562C379.647 195.724 379.417 195.961 379.248 196.273C379.079 196.584 378.994 196.962 378.994 197.406ZM389.043 202.159C388.327 202.159 387.71 201.99 387.193 201.652C386.676 201.314 386.279 200.848 386 200.255C385.722 199.662 385.583 198.984 385.583 198.222C385.583 197.446 385.725 196.762 386.01 196.168C386.298 195.572 386.699 195.106 387.213 194.771C387.73 194.433 388.333 194.264 389.023 194.264C389.56 194.264 390.044 194.364 390.475 194.562C390.905 194.761 391.258 195.04 391.534 195.398C391.809 195.756 391.979 196.173 392.046 196.651H390.872C390.783 196.303 390.584 195.994 390.276 195.726C389.971 195.454 389.56 195.318 389.043 195.318C388.585 195.318 388.184 195.437 387.84 195.676C387.498 195.911 387.231 196.245 387.039 196.675C386.85 197.103 386.756 197.605 386.756 198.182C386.756 198.772 386.849 199.286 387.034 199.723C387.223 200.161 387.488 200.5 387.83 200.742C388.174 200.984 388.579 201.105 389.043 201.105C389.348 201.105 389.624 201.052 389.873 200.946C390.122 200.84 390.332 200.688 390.504 200.489C390.677 200.29 390.799 200.051 390.872 199.773H392.046C391.979 200.223 391.815 200.629 391.553 200.991C391.295 201.349 390.952 201.634 390.524 201.846C390.1 202.055 389.606 202.159 389.043 202.159ZM394.864 197.406V202H393.691V191.818H394.864V195.557H394.964C395.143 195.162 395.411 194.849 395.769 194.617C396.13 194.382 396.611 194.264 397.211 194.264C397.731 194.264 398.187 194.369 398.578 194.577C398.969 194.783 399.272 195.099 399.488 195.527C399.706 195.951 399.816 196.491 399.816 197.148V202H398.643V197.227C398.643 196.621 398.485 196.152 398.17 195.82C397.859 195.486 397.426 195.318 396.873 195.318C396.488 195.318 396.143 195.399 395.839 195.562C395.537 195.724 395.298 195.961 395.123 196.273C394.95 196.584 394.864 196.962 394.864 197.406ZM405.094 202.159C404.358 202.159 403.724 201.997 403.19 201.672C402.66 201.344 402.25 200.886 401.962 200.3C401.677 199.71 401.534 199.024 401.534 198.241C401.534 197.459 401.677 196.77 401.962 196.173C402.25 195.573 402.651 195.106 403.165 194.771C403.682 194.433 404.285 194.264 404.975 194.264C405.372 194.264 405.765 194.33 406.153 194.463C406.541 194.596 406.894 194.811 407.212 195.109C407.53 195.404 407.784 195.795 407.973 196.283C408.161 196.77 408.256 197.37 408.256 198.082V198.58H402.37V197.565H407.063C407.063 197.134 406.977 196.75 406.804 196.412C406.635 196.074 406.393 195.807 406.078 195.612C405.767 195.416 405.399 195.318 404.975 195.318C404.507 195.318 404.103 195.434 403.762 195.666C403.424 195.895 403.163 196.193 402.981 196.561C402.799 196.929 402.708 197.323 402.708 197.744V198.42C402.708 198.997 402.807 199.486 403.006 199.887C403.208 200.285 403.488 200.588 403.846 200.797C404.204 201.002 404.62 201.105 405.094 201.105C405.402 201.105 405.681 201.062 405.929 200.976C406.181 200.886 406.398 200.754 406.581 200.578C406.763 200.399 406.904 200.177 407.003 199.912L408.137 200.23C408.017 200.615 407.817 200.953 407.535 201.244C407.253 201.533 406.905 201.758 406.491 201.92C406.077 202.08 405.611 202.159 405.094 202.159ZM415.38 196.074L414.326 196.372C414.26 196.196 414.162 196.026 414.033 195.86C413.907 195.691 413.734 195.552 413.515 195.442C413.297 195.333 413.017 195.278 412.675 195.278C412.208 195.278 411.819 195.386 411.507 195.602C411.199 195.814 411.045 196.084 411.045 196.412C411.045 196.704 411.151 196.934 411.363 197.103C411.575 197.272 411.906 197.413 412.357 197.526L413.491 197.804C414.173 197.97 414.682 198.223 415.017 198.565C415.352 198.903 415.519 199.339 415.519 199.872C415.519 200.31 415.393 200.701 415.141 201.045C414.893 201.39 414.545 201.662 414.097 201.861C413.65 202.06 413.129 202.159 412.536 202.159C411.757 202.159 411.113 201.99 410.602 201.652C410.092 201.314 409.769 200.82 409.633 200.17L410.746 199.892C410.852 200.303 411.053 200.611 411.348 200.817C411.646 201.022 412.036 201.125 412.516 201.125C413.063 201.125 413.497 201.009 413.819 200.777C414.144 200.542 414.306 200.26 414.306 199.932C414.306 199.667 414.213 199.445 414.028 199.266C413.842 199.083 413.557 198.947 413.172 198.858L411.9 198.56C411.2 198.394 410.687 198.137 410.359 197.789C410.034 197.438 409.871 196.999 409.871 196.472C409.871 196.041 409.992 195.66 410.234 195.328C410.48 194.997 410.813 194.737 411.234 194.548C411.658 194.359 412.138 194.264 412.675 194.264C413.431 194.264 414.024 194.43 414.455 194.761C414.889 195.093 415.198 195.53 415.38 196.074ZM423.33 202.179C422.846 202.179 422.407 202.088 422.012 201.906C421.618 201.72 421.305 201.453 421.073 201.105C420.841 200.754 420.725 200.33 420.725 199.832C420.725 199.395 420.811 199.04 420.983 198.768C421.156 198.493 421.386 198.278 421.674 198.122C421.963 197.966 422.281 197.85 422.629 197.774C422.98 197.695 423.333 197.632 423.688 197.585C424.152 197.526 424.528 197.481 424.816 197.451C425.108 197.418 425.32 197.363 425.453 197.287C425.589 197.211 425.657 197.078 425.657 196.889V196.849C425.657 196.359 425.522 195.978 425.254 195.706C424.989 195.434 424.586 195.298 424.046 195.298C423.486 195.298 423.046 195.421 422.728 195.666C422.41 195.911 422.186 196.173 422.057 196.452L420.943 196.054C421.142 195.59 421.407 195.229 421.739 194.97C422.074 194.708 422.438 194.526 422.833 194.423C423.23 194.317 423.622 194.264 424.006 194.264C424.251 194.264 424.533 194.294 424.851 194.354C425.173 194.41 425.483 194.528 425.781 194.707C426.082 194.886 426.333 195.156 426.532 195.517C426.73 195.878 426.83 196.362 426.83 196.969V202H425.657V200.966H425.597C425.517 201.132 425.385 201.309 425.199 201.498C425.014 201.687 424.767 201.848 424.458 201.98C424.15 202.113 423.774 202.179 423.33 202.179ZM423.509 201.125C423.973 201.125 424.364 201.034 424.682 200.852C425.004 200.669 425.246 200.434 425.408 200.146C425.574 199.857 425.657 199.554 425.657 199.236V198.162C425.607 198.222 425.497 198.276 425.328 198.326C425.163 198.372 424.97 198.414 424.752 198.45C424.536 198.483 424.326 198.513 424.12 198.54C423.918 198.563 423.754 198.583 423.628 198.599C423.323 198.639 423.038 198.704 422.773 198.793C422.511 198.879 422.299 199.01 422.137 199.186C421.978 199.358 421.898 199.594 421.898 199.892C421.898 200.3 422.049 200.608 422.35 200.817C422.655 201.022 423.041 201.125 423.509 201.125ZM430.075 197.406V202H428.901V194.364H430.035V195.557H430.134C430.313 195.169 430.585 194.857 430.95 194.622C431.314 194.384 431.785 194.264 432.362 194.264C432.879 194.264 433.331 194.37 433.719 194.582C434.107 194.791 434.408 195.109 434.624 195.537C434.839 195.961 434.947 196.498 434.947 197.148V202H433.774V197.227C433.774 196.627 433.618 196.16 433.306 195.825C432.995 195.487 432.567 195.318 432.024 195.318C431.649 195.318 431.314 195.399 431.019 195.562C430.728 195.724 430.497 195.961 430.328 196.273C430.159 196.584 430.075 196.962 430.075 197.406ZM439.904 202.159C439.268 202.159 438.706 201.998 438.219 201.677C437.732 201.352 437.351 200.895 437.076 200.305C436.8 199.711 436.663 199.01 436.663 198.202C436.663 197.4 436.8 196.704 437.076 196.114C437.351 195.524 437.733 195.068 438.224 194.746C438.714 194.425 439.281 194.264 439.924 194.264C440.421 194.264 440.814 194.347 441.103 194.513C441.394 194.675 441.616 194.861 441.769 195.07C441.924 195.275 442.045 195.444 442.132 195.577H442.231V191.818H443.404V202H442.271V200.827H442.132C442.045 200.966 441.923 201.142 441.764 201.354C441.605 201.562 441.378 201.75 441.083 201.915C440.788 202.078 440.395 202.159 439.904 202.159ZM440.063 201.105C440.534 201.105 440.932 200.982 441.257 200.737C441.581 200.489 441.828 200.146 441.997 199.708C442.166 199.267 442.251 198.759 442.251 198.182C442.251 197.612 442.168 197.113 442.002 196.685C441.837 196.254 441.591 195.92 441.267 195.681C440.942 195.439 440.541 195.318 440.063 195.318C439.566 195.318 439.152 195.446 438.821 195.701C438.492 195.953 438.245 196.296 438.08 196.73C437.917 197.161 437.836 197.645 437.836 198.182C437.836 198.725 437.919 199.219 438.085 199.663C438.254 200.104 438.502 200.455 438.83 200.717C439.162 200.976 439.573 201.105 440.063 201.105ZM115.074 222V214.364H116.207V215.557H116.307C116.466 215.149 116.723 214.833 117.077 214.607C117.432 214.379 117.858 214.264 118.355 214.264C118.859 214.264 119.278 214.379 119.613 214.607C119.951 214.833 120.214 215.149 120.403 215.557H120.483C120.679 215.162 120.972 214.849 121.363 214.617C121.754 214.382 122.223 214.264 122.77 214.264C123.453 214.264 124.011 214.478 124.445 214.906C124.879 215.33 125.097 215.991 125.097 216.889V222H123.923V216.889C123.923 216.326 123.769 215.923 123.461 215.681C123.153 215.439 122.79 215.318 122.372 215.318C121.835 215.318 121.419 215.481 121.124 215.805C120.829 216.127 120.682 216.535 120.682 217.028V222H119.489V216.77C119.489 216.336 119.348 215.986 119.066 215.721C118.784 215.452 118.421 215.318 117.977 215.318C117.672 215.318 117.387 215.399 117.122 215.562C116.86 215.724 116.648 215.95 116.486 216.238C116.327 216.523 116.247 216.853 116.247 217.227V222H115.074ZM129.419 222.179C128.935 222.179 128.496 222.088 128.102 221.906C127.707 221.72 127.394 221.453 127.162 221.105C126.93 220.754 126.814 220.33 126.814 219.832C126.814 219.395 126.9 219.04 127.072 218.768C127.245 218.493 127.475 218.278 127.763 218.122C128.052 217.966 128.37 217.85 128.718 217.774C129.069 217.695 129.422 217.632 129.777 217.585C130.241 217.526 130.617 217.481 130.905 217.451C131.197 217.418 131.409 217.363 131.542 217.287C131.678 217.211 131.746 217.078 131.746 216.889V216.849C131.746 216.359 131.611 215.978 131.343 215.706C131.078 215.434 130.675 215.298 130.135 215.298C129.575 215.298 129.136 215.421 128.817 215.666C128.499 215.911 128.276 216.173 128.146 216.452L127.033 216.054C127.231 215.59 127.497 215.229 127.828 214.97C128.163 214.708 128.527 214.526 128.922 214.423C129.32 214.317 129.711 214.264 130.095 214.264C130.34 214.264 130.622 214.294 130.94 214.354C131.262 214.41 131.572 214.528 131.87 214.707C132.172 214.886 132.422 215.156 132.621 215.517C132.82 215.878 132.919 216.362 132.919 216.969V222H131.746V220.966H131.686C131.606 221.132 131.474 221.309 131.288 221.498C131.103 221.687 130.856 221.848 130.548 221.98C130.239 222.113 129.863 222.179 129.419 222.179ZM129.598 221.125C130.062 221.125 130.453 221.034 130.771 220.852C131.093 220.669 131.335 220.434 131.497 220.146C131.663 219.857 131.746 219.554 131.746 219.236V218.162C131.696 218.222 131.587 218.276 131.418 218.326C131.252 218.372 131.06 218.414 130.841 218.45C130.625 218.483 130.415 218.513 130.209 218.54C130.007 218.563 129.843 218.583 129.717 218.599C129.412 218.639 129.127 218.704 128.862 218.793C128.6 218.879 128.388 219.01 128.226 219.186C128.067 219.358 127.987 219.594 127.987 219.892C127.987 220.3 128.138 220.608 128.44 220.817C128.745 221.022 129.131 221.125 129.598 221.125ZM134.991 222V214.364H136.164V222H134.991ZM135.587 213.091C135.358 213.091 135.161 213.013 134.995 212.857C134.833 212.701 134.752 212.514 134.752 212.295C134.752 212.077 134.833 211.889 134.995 211.734C135.161 211.578 135.358 211.5 135.587 211.5C135.816 211.5 136.011 211.578 136.174 211.734C136.339 211.889 136.422 212.077 136.422 212.295C136.422 212.514 136.339 212.701 136.174 212.857C136.011 213.013 135.816 213.091 135.587 213.091ZM139.416 217.406V222H138.243V214.364H139.376V215.557H139.476C139.655 215.169 139.926 214.857 140.291 214.622C140.656 214.384 141.126 214.264 141.703 214.264C142.22 214.264 142.672 214.37 143.06 214.582C143.448 214.791 143.75 215.109 143.965 215.537C144.181 215.961 144.288 216.498 144.288 217.148V222H143.115V217.227C143.115 216.627 142.959 216.16 142.648 215.825C142.336 215.487 141.908 215.318 141.365 215.318C140.99 215.318 140.656 215.399 140.361 215.562C140.069 215.724 139.839 215.961 139.67 216.273C139.501 216.584 139.416 216.962 139.416 217.406ZM149.683 214.364V215.358H145.726V214.364H149.683ZM146.879 212.534H148.053V219.812C148.053 220.144 148.101 220.393 148.197 220.558C148.296 220.721 148.422 220.83 148.575 220.886C148.73 220.939 148.894 220.966 149.067 220.966C149.196 220.966 149.302 220.959 149.385 220.946C149.468 220.929 149.534 220.916 149.584 220.906L149.822 221.96C149.743 221.99 149.632 222.02 149.489 222.05C149.347 222.083 149.166 222.099 148.947 222.099C148.616 222.099 148.291 222.028 147.973 221.886C147.658 221.743 147.396 221.526 147.188 221.234C146.982 220.943 146.879 220.575 146.879 220.131V212.534ZM153.625 222.179C153.141 222.179 152.702 222.088 152.308 221.906C151.913 221.72 151.6 221.453 151.368 221.105C151.136 220.754 151.02 220.33 151.02 219.832C151.02 219.395 151.106 219.04 151.279 218.768C151.451 218.493 151.681 218.278 151.97 218.122C152.258 217.966 152.576 217.85 152.924 217.774C153.276 217.695 153.629 217.632 153.983 217.585C154.447 217.526 154.823 217.481 155.112 217.451C155.403 217.418 155.616 217.363 155.748 217.287C155.884 217.211 155.952 217.078 155.952 216.889V216.849C155.952 216.359 155.818 215.978 155.549 215.706C155.284 215.434 154.881 215.298 154.341 215.298C153.781 215.298 153.342 215.421 153.024 215.666C152.706 215.911 152.482 216.173 152.353 216.452L151.239 216.054C151.438 215.59 151.703 215.229 152.034 214.97C152.369 214.708 152.734 214.526 153.128 214.423C153.526 214.317 153.917 214.264 154.301 214.264C154.547 214.264 154.828 214.294 155.147 214.354C155.468 214.41 155.778 214.528 156.076 214.707C156.378 214.886 156.628 215.156 156.827 215.517C157.026 215.878 157.125 216.362 157.125 216.969V222H155.952V220.966H155.892C155.813 221.132 155.68 221.309 155.495 221.498C155.309 221.687 155.062 221.848 154.754 221.98C154.446 222.113 154.069 222.179 153.625 222.179ZM153.804 221.125C154.268 221.125 154.659 221.034 154.978 220.852C155.299 220.669 155.541 220.434 155.703 220.146C155.869 219.857 155.952 219.554 155.952 219.236V218.162C155.902 218.222 155.793 218.276 155.624 218.326C155.458 218.372 155.266 218.414 155.047 218.45C154.832 218.483 154.621 218.513 154.416 218.54C154.214 218.563 154.05 218.583 153.924 218.599C153.619 218.639 153.334 218.704 153.069 218.793C152.807 218.879 152.595 219.01 152.432 219.186C152.273 219.358 152.194 219.594 152.194 219.892C152.194 220.3 152.344 220.608 152.646 220.817C152.951 221.022 153.337 221.125 153.804 221.125ZM159.197 222V214.364H160.37V222H159.197ZM159.793 213.091C159.565 213.091 159.368 213.013 159.202 212.857C159.039 212.701 158.958 212.514 158.958 212.295C158.958 212.077 159.039 211.889 159.202 211.734C159.368 211.578 159.565 211.5 159.793 211.5C160.022 211.5 160.218 211.578 160.38 211.734C160.546 211.889 160.629 212.077 160.629 212.295C160.629 212.514 160.546 212.701 160.38 212.857C160.218 213.013 160.022 213.091 159.793 213.091ZM163.622 217.406V222H162.449V214.364H163.583V215.557H163.682C163.861 215.169 164.133 214.857 164.497 214.622C164.862 214.384 165.333 214.264 165.909 214.264C166.426 214.264 166.879 214.37 167.267 214.582C167.654 214.791 167.956 215.109 168.171 215.537C168.387 215.961 168.495 216.498 168.495 217.148V222H167.321V217.227C167.321 216.627 167.165 216.16 166.854 215.825C166.542 215.487 166.115 215.318 165.571 215.318C165.197 215.318 164.862 215.399 164.567 215.562C164.275 215.724 164.045 215.961 163.876 216.273C163.707 216.584 163.622 216.962 163.622 217.406ZM170.569 222V214.364H171.742V222H170.569ZM171.165 213.091C170.936 213.091 170.739 213.013 170.574 212.857C170.411 212.701 170.33 212.514 170.33 212.295C170.33 212.077 170.411 211.889 170.574 211.734C170.739 211.578 170.936 211.5 171.165 211.5C171.394 211.5 171.589 211.578 171.752 211.734C171.918 211.889 172 212.077 172 212.295C172 212.514 171.918 212.701 171.752 212.857C171.589 213.013 171.394 213.091 171.165 213.091ZM174.994 217.406V222H173.821V214.364H174.954V215.557H175.054C175.233 215.169 175.505 214.857 175.869 214.622C176.234 214.384 176.704 214.264 177.281 214.264C177.798 214.264 178.251 214.37 178.638 214.582C179.026 214.791 179.328 215.109 179.543 215.537C179.759 215.961 179.866 216.498 179.866 217.148V222H178.693V217.227C178.693 216.627 178.537 216.16 178.226 215.825C177.914 215.487 177.487 215.318 176.943 215.318C176.568 215.318 176.234 215.399 175.939 215.562C175.647 215.724 175.417 215.961 175.248 216.273C175.079 216.584 174.994 216.962 174.994 217.406ZM185.023 225.023C184.456 225.023 183.969 224.95 183.561 224.804C183.153 224.661 182.814 224.473 182.542 224.237C182.273 224.005 182.06 223.757 181.901 223.491L182.835 222.835C182.941 222.974 183.075 223.134 183.238 223.312C183.4 223.495 183.622 223.652 183.904 223.785C184.189 223.921 184.562 223.989 185.023 223.989C185.639 223.989 186.148 223.839 186.549 223.541C186.95 223.243 187.151 222.776 187.151 222.139V220.588H187.051C186.965 220.727 186.842 220.9 186.683 221.105C186.527 221.307 186.302 221.488 186.007 221.647C185.715 221.803 185.321 221.881 184.824 221.881C184.207 221.881 183.654 221.735 183.163 221.443C182.676 221.152 182.29 220.727 182.005 220.17C181.723 219.614 181.582 218.937 181.582 218.142C181.582 217.36 181.72 216.679 181.995 216.099C182.27 215.515 182.653 215.065 183.143 214.746C183.634 214.425 184.201 214.264 184.844 214.264C185.341 214.264 185.735 214.347 186.027 214.513C186.322 214.675 186.547 214.861 186.703 215.07C186.862 215.275 186.985 215.444 187.071 215.577H187.19V214.364H188.324V222.219C188.324 222.875 188.175 223.409 187.876 223.82C187.581 224.234 187.184 224.537 186.683 224.729C186.186 224.925 185.633 225.023 185.023 225.023ZM184.983 220.827C185.454 220.827 185.851 220.719 186.176 220.504C186.501 220.288 186.748 219.978 186.917 219.574C187.086 219.17 187.17 218.686 187.17 218.122C187.17 217.572 187.088 217.086 186.922 216.665C186.756 216.245 186.511 215.915 186.186 215.676C185.861 215.437 185.46 215.318 184.983 215.318C184.486 215.318 184.071 215.444 183.74 215.696C183.412 215.948 183.165 216.286 182.999 216.71C182.837 217.134 182.756 217.605 182.756 218.122C182.756 218.652 182.838 219.121 183.004 219.529C183.173 219.933 183.422 220.252 183.75 220.484C184.081 220.712 184.492 220.827 184.983 220.827ZM196.516 222.179C196.032 222.179 195.593 222.088 195.199 221.906C194.804 221.72 194.491 221.453 194.259 221.105C194.027 220.754 193.911 220.33 193.911 219.832C193.911 219.395 193.997 219.04 194.17 218.768C194.342 218.493 194.572 218.278 194.861 218.122C195.149 217.966 195.467 217.85 195.815 217.774C196.167 217.695 196.519 217.632 196.874 217.585C197.338 217.526 197.714 217.481 198.003 217.451C198.294 217.418 198.506 217.363 198.639 217.287C198.775 217.211 198.843 217.078 198.843 216.889V216.849C198.843 216.359 198.709 215.978 198.44 215.706C198.175 215.434 197.772 215.298 197.232 215.298C196.672 215.298 196.233 215.421 195.915 215.666C195.596 215.911 195.373 216.173 195.243 216.452L194.13 216.054C194.329 215.59 194.594 215.229 194.925 214.97C195.26 214.708 195.625 214.526 196.019 214.423C196.417 214.317 196.808 214.264 197.192 214.264C197.438 214.264 197.719 214.294 198.037 214.354C198.359 214.41 198.669 214.528 198.967 214.707C199.269 214.886 199.519 215.156 199.718 215.517C199.917 215.878 200.016 216.362 200.016 216.969V222H198.843V220.966H198.783C198.704 221.132 198.571 221.309 198.386 221.498C198.2 221.687 197.953 221.848 197.645 221.98C197.336 222.113 196.96 222.179 196.516 222.179ZM196.695 221.125C197.159 221.125 197.55 221.034 197.868 220.852C198.19 220.669 198.432 220.434 198.594 220.146C198.76 219.857 198.843 219.554 198.843 219.236V218.162C198.793 218.222 198.684 218.276 198.515 218.326C198.349 218.372 198.157 218.414 197.938 218.45C197.723 218.483 197.512 218.513 197.307 218.54C197.104 218.563 196.94 218.583 196.814 218.599C196.51 218.639 196.225 218.704 195.959 218.793C195.698 218.879 195.485 219.01 195.323 219.186C195.164 219.358 195.084 219.594 195.084 219.892C195.084 220.3 195.235 220.608 195.537 220.817C195.842 221.022 196.228 221.125 196.695 221.125ZM203.261 217.406V222H202.088V214.364H203.221V215.557H203.321C203.5 215.169 203.771 214.857 204.136 214.622C204.501 214.384 204.971 214.264 205.548 214.264C206.065 214.264 206.517 214.37 206.905 214.582C207.293 214.791 207.595 215.109 207.81 215.537C208.025 215.961 208.133 216.498 208.133 217.148V222H206.96V217.227C206.96 216.627 206.804 216.16 206.493 215.825C206.181 215.487 205.753 215.318 205.21 215.318C204.835 215.318 204.501 215.399 204.206 215.562C203.914 215.724 203.684 215.961 203.515 216.273C203.346 216.584 203.261 216.962 203.261 217.406ZM217.177 222.159C216.488 222.159 215.883 221.995 215.362 221.667C214.845 221.339 214.441 220.88 214.149 220.29C213.861 219.7 213.717 219.01 213.717 218.222C213.717 217.426 213.861 216.732 214.149 216.138C214.441 215.545 214.845 215.085 215.362 214.756C215.883 214.428 216.488 214.264 217.177 214.264C217.866 214.264 218.47 214.428 218.987 214.756C219.507 215.085 219.911 215.545 220.2 216.138C220.491 216.732 220.637 217.426 220.637 218.222C220.637 219.01 220.491 219.7 220.2 220.29C219.911 220.88 219.507 221.339 218.987 221.667C218.47 221.995 217.866 222.159 217.177 222.159ZM217.177 221.105C217.701 221.105 218.131 220.971 218.47 220.702C218.808 220.434 219.058 220.081 219.22 219.643C219.383 219.206 219.464 218.732 219.464 218.222C219.464 217.711 219.383 217.236 219.22 216.795C219.058 216.354 218.808 215.998 218.47 215.726C218.131 215.454 217.701 215.318 217.177 215.318C216.653 215.318 216.222 215.454 215.884 215.726C215.546 215.998 215.296 216.354 215.134 216.795C214.971 217.236 214.89 217.711 214.89 218.222C214.89 218.732 214.971 219.206 215.134 219.643C215.296 220.081 215.546 220.434 215.884 220.702C216.222 220.971 216.653 221.105 217.177 221.105ZM222.358 222V214.364H223.492V215.517H223.571C223.71 215.139 223.962 214.833 224.327 214.597C224.691 214.362 225.102 214.244 225.56 214.244C225.646 214.244 225.754 214.246 225.883 214.249C226.012 214.253 226.11 214.258 226.176 214.264V215.457C226.137 215.447 226.045 215.433 225.903 215.413C225.764 215.389 225.616 215.378 225.46 215.378C225.089 215.378 224.758 215.456 224.466 215.612C224.178 215.764 223.949 215.976 223.78 216.248C223.614 216.516 223.531 216.823 223.531 217.168V222H222.358ZM230.347 225.023C229.78 225.023 229.293 224.95 228.885 224.804C228.478 224.661 228.138 224.473 227.866 224.237C227.598 224.005 227.384 223.757 227.225 223.491L228.16 222.835C228.266 222.974 228.4 223.134 228.562 223.312C228.725 223.495 228.947 223.652 229.228 223.785C229.514 223.921 229.886 223.989 230.347 223.989C230.964 223.989 231.472 223.839 231.873 223.541C232.274 223.243 232.475 222.776 232.475 222.139V220.588H232.376C232.289 220.727 232.167 220.9 232.008 221.105C231.852 221.307 231.626 221.488 231.331 221.647C231.04 221.803 230.645 221.881 230.148 221.881C229.532 221.881 228.978 221.735 228.488 221.443C228.001 221.152 227.614 220.727 227.329 220.17C227.048 219.614 226.907 218.937 226.907 218.142C226.907 217.36 227.044 216.679 227.319 216.099C227.595 215.515 227.977 215.065 228.468 214.746C228.958 214.425 229.525 214.264 230.168 214.264C230.665 214.264 231.06 214.347 231.351 214.513C231.646 214.675 231.872 214.861 232.028 215.07C232.187 215.275 232.309 215.444 232.395 215.577H232.515V214.364H233.648V222.219C233.648 222.875 233.499 223.409 233.201 223.82C232.906 224.234 232.508 224.537 232.008 224.729C231.51 224.925 230.957 225.023 230.347 225.023ZM230.307 220.827C230.778 220.827 231.176 220.719 231.501 220.504C231.825 220.288 232.072 219.978 232.241 219.574C232.41 219.17 232.495 218.686 232.495 218.122C232.495 217.572 232.412 217.086 232.246 216.665C232.081 216.245 231.835 215.915 231.51 215.676C231.186 215.437 230.785 215.318 230.307 215.318C229.81 215.318 229.396 215.444 229.064 215.696C228.736 215.948 228.489 216.286 228.324 216.71C228.161 217.134 228.08 217.605 228.08 218.122C228.08 218.652 228.163 219.121 228.329 219.529C228.498 219.933 228.746 220.252 229.074 220.484C229.406 220.712 229.817 220.827 230.307 220.827ZM237.973 222.179C237.489 222.179 237.05 222.088 236.656 221.906C236.261 221.72 235.948 221.453 235.716 221.105C235.484 220.754 235.368 220.33 235.368 219.832C235.368 219.395 235.454 219.04 235.627 218.768C235.799 218.493 236.029 218.278 236.318 218.122C236.606 217.966 236.924 217.85 237.272 217.774C237.623 217.695 237.976 217.632 238.331 217.585C238.795 217.526 239.171 217.481 239.46 217.451C239.751 217.418 239.963 217.363 240.096 217.287C240.232 217.211 240.3 217.078 240.3 216.889V216.849C240.3 216.359 240.166 215.978 239.897 215.706C239.632 215.434 239.229 215.298 238.689 215.298C238.129 215.298 237.69 215.421 237.372 215.666C237.053 215.911 236.83 216.173 236.7 216.452L235.587 216.054C235.786 215.59 236.051 215.229 236.382 214.97C236.717 214.708 237.082 214.526 237.476 214.423C237.874 214.317 238.265 214.264 238.649 214.264C238.895 214.264 239.176 214.294 239.494 214.354C239.816 214.41 240.126 214.528 240.424 214.707C240.726 214.886 240.976 215.156 241.175 215.517C241.374 215.878 241.473 216.362 241.473 216.969V222H240.3V220.966H240.24C240.161 221.132 240.028 221.309 239.842 221.498C239.657 221.687 239.41 221.848 239.102 221.98C238.793 222.113 238.417 222.179 237.973 222.179ZM238.152 221.125C238.616 221.125 239.007 221.034 239.325 220.852C239.647 220.669 239.889 220.434 240.051 220.146C240.217 219.857 240.3 219.554 240.3 219.236V218.162C240.25 218.222 240.141 218.276 239.972 218.326C239.806 218.372 239.614 218.414 239.395 218.45C239.18 218.483 238.969 218.513 238.764 218.54C238.561 218.563 238.397 218.583 238.271 218.599C237.967 218.639 237.681 218.704 237.416 218.793C237.154 218.879 236.942 219.01 236.78 219.186C236.621 219.358 236.541 219.594 236.541 219.892C236.541 220.3 236.692 220.608 236.994 220.817C237.299 221.022 237.685 221.125 238.152 221.125ZM244.718 217.406V222H243.545V214.364H244.678V215.557H244.778C244.957 215.169 245.228 214.857 245.593 214.622C245.958 214.384 246.428 214.264 247.005 214.264C247.522 214.264 247.974 214.37 248.362 214.582C248.75 214.791 249.052 215.109 249.267 215.537C249.482 215.961 249.59 216.498 249.59 217.148V222H248.417V217.227C248.417 216.627 248.261 216.16 247.949 215.825C247.638 215.487 247.21 215.318 246.667 215.318C246.292 215.318 245.958 215.399 245.663 215.562C245.371 215.724 245.141 215.961 244.971 216.273C244.802 216.584 244.718 216.962 244.718 217.406ZM251.664 222V214.364H252.837V222H251.664ZM252.261 213.091C252.032 213.091 251.835 213.013 251.669 212.857C251.507 212.701 251.425 212.514 251.425 212.295C251.425 212.077 251.507 211.889 251.669 211.734C251.835 211.578 252.032 211.5 252.261 211.5C252.489 211.5 252.685 211.578 252.847 211.734C253.013 211.889 253.096 212.077 253.096 212.295C253.096 212.514 253.013 212.701 252.847 212.857C252.685 213.013 252.489 213.091 252.261 213.091ZM254.698 222V221.105L259.033 215.537V215.457H254.837V214.364H260.544V215.298L256.328 220.827V220.906H260.683V222H254.698ZM265.404 222.159C264.668 222.159 264.033 221.997 263.499 221.672C262.969 221.344 262.56 220.886 262.271 220.3C261.986 219.71 261.844 219.024 261.844 218.241C261.844 217.459 261.986 216.77 262.271 216.173C262.56 215.573 262.961 215.106 263.475 214.771C263.992 214.433 264.595 214.264 265.284 214.264C265.682 214.264 266.075 214.33 266.462 214.463C266.85 214.596 267.203 214.811 267.521 215.109C267.84 215.404 268.093 215.795 268.282 216.283C268.471 216.77 268.565 217.37 268.565 218.082V218.58H262.679V217.565H267.372C267.372 217.134 267.286 216.75 267.114 216.412C266.945 216.074 266.703 215.807 266.388 215.612C266.076 215.416 265.708 215.318 265.284 215.318C264.817 215.318 264.413 215.434 264.071 215.666C263.733 215.895 263.473 216.193 263.291 216.561C263.108 216.929 263.017 217.323 263.017 217.744V218.42C263.017 218.997 263.117 219.486 263.315 219.887C263.518 220.285 263.798 220.588 264.156 220.797C264.514 221.002 264.93 221.105 265.404 221.105C265.712 221.105 265.99 221.062 266.239 220.976C266.491 220.886 266.708 220.754 266.89 220.578C267.072 220.399 267.213 220.177 267.313 219.912L268.446 220.23C268.327 220.615 268.126 220.953 267.845 221.244C267.563 221.533 267.215 221.758 266.801 221.92C266.386 222.08 265.921 222.159 265.404 222.159ZM273.164 222.159C272.527 222.159 271.966 221.998 271.478 221.677C270.991 221.352 270.61 220.895 270.335 220.305C270.06 219.711 269.922 219.01 269.922 218.202C269.922 217.4 270.06 216.704 270.335 216.114C270.61 215.524 270.993 215.068 271.483 214.746C271.974 214.425 272.541 214.264 273.184 214.264C273.681 214.264 274.074 214.347 274.362 214.513C274.654 214.675 274.876 214.861 275.028 215.07C275.184 215.275 275.305 215.444 275.391 215.577H275.49V211.818H276.664V222H275.53V220.827H275.391C275.305 220.966 275.182 221.142 275.023 221.354C274.864 221.562 274.637 221.75 274.342 221.915C274.047 222.078 273.654 222.159 273.164 222.159ZM273.323 221.105C273.794 221.105 274.191 220.982 274.516 220.737C274.841 220.489 275.088 220.146 275.257 219.708C275.426 219.267 275.51 218.759 275.51 218.182C275.51 217.612 275.428 217.113 275.262 216.685C275.096 216.254 274.851 215.92 274.526 215.681C274.201 215.439 273.8 215.318 273.323 215.318C272.826 215.318 272.411 215.446 272.08 215.701C271.752 215.953 271.505 216.296 271.339 216.73C271.177 217.161 271.096 217.645 271.096 218.182C271.096 218.725 271.178 219.219 271.344 219.663C271.513 220.104 271.762 220.455 272.09 220.717C272.421 220.976 272.832 221.105 273.323 221.105ZM282.773 222V214.364H283.907V215.517H283.986C284.125 215.139 284.377 214.833 284.742 214.597C285.106 214.362 285.517 214.244 285.975 214.244C286.061 214.244 286.169 214.246 286.298 214.249C286.427 214.253 286.525 214.258 286.591 214.264V215.457C286.551 215.447 286.46 215.433 286.318 215.413C286.179 215.389 286.031 215.378 285.875 215.378C285.504 215.378 285.173 215.456 284.881 215.612C284.593 215.764 284.364 215.976 284.195 216.248C284.029 216.516 283.946 216.823 283.946 217.168V222H282.773ZM290.881 222.159C290.146 222.159 289.511 221.997 288.977 221.672C288.447 221.344 288.038 220.886 287.749 220.3C287.464 219.71 287.322 219.024 287.322 218.241C287.322 217.459 287.464 216.77 287.749 216.173C288.038 215.573 288.439 215.106 288.952 214.771C289.469 214.433 290.073 214.264 290.762 214.264C291.16 214.264 291.553 214.33 291.94 214.463C292.328 214.596 292.681 214.811 292.999 215.109C293.317 215.404 293.571 215.795 293.76 216.283C293.949 216.77 294.043 217.37 294.043 218.082V218.58H288.157V217.565H292.85C292.85 217.134 292.764 216.75 292.592 216.412C292.423 216.074 292.181 215.807 291.866 215.612C291.554 215.416 291.186 215.318 290.762 215.318C290.295 215.318 289.89 215.434 289.549 215.666C289.211 215.895 288.951 216.193 288.768 216.561C288.586 216.929 288.495 217.323 288.495 217.744V218.42C288.495 218.997 288.594 219.486 288.793 219.887C288.995 220.285 289.276 220.588 289.633 220.797C289.991 221.002 290.407 221.105 290.881 221.105C291.19 221.105 291.468 221.062 291.717 220.976C291.968 220.886 292.186 220.754 292.368 220.578C292.55 220.399 292.691 220.177 292.79 219.912L293.924 220.23C293.805 220.615 293.604 220.953 293.322 221.244C293.041 221.533 292.693 221.758 292.278 221.92C291.864 222.08 291.398 222.159 290.881 222.159ZM295.758 224.864V214.364H296.892V215.577H297.031C297.117 215.444 297.236 215.275 297.389 215.07C297.545 214.861 297.767 214.675 298.055 214.513C298.347 214.347 298.741 214.264 299.238 214.264C299.881 214.264 300.448 214.425 300.938 214.746C301.429 215.068 301.812 215.524 302.087 216.114C302.362 216.704 302.5 217.4 302.5 218.202C302.5 219.01 302.362 219.711 302.087 220.305C301.812 220.895 301.431 221.352 300.943 221.677C300.456 221.998 299.894 222.159 299.258 222.159C298.768 222.159 298.375 222.078 298.08 221.915C297.785 221.75 297.558 221.562 297.399 221.354C297.24 221.142 297.117 220.966 297.031 220.827H296.931V224.864H295.758ZM296.911 218.182C296.911 218.759 296.996 219.267 297.165 219.708C297.334 220.146 297.581 220.489 297.906 220.737C298.231 220.982 298.628 221.105 299.099 221.105C299.59 221.105 299.999 220.976 300.327 220.717C300.658 220.455 300.907 220.104 301.073 219.663C301.242 219.219 301.326 218.725 301.326 218.182C301.326 217.645 301.243 217.161 301.078 216.73C300.915 216.296 300.668 215.953 300.337 215.701C300.009 215.446 299.596 215.318 299.099 215.318C298.622 215.318 298.221 215.439 297.896 215.681C297.571 215.92 297.326 216.254 297.16 216.685C296.994 217.113 296.911 217.612 296.911 218.182ZM307.322 222.159C306.632 222.159 306.027 221.995 305.507 221.667C304.99 221.339 304.586 220.88 304.294 220.29C304.006 219.7 303.861 219.01 303.861 218.222C303.861 217.426 304.006 216.732 304.294 216.138C304.586 215.545 304.99 215.085 305.507 214.756C306.027 214.428 306.632 214.264 307.322 214.264C308.011 214.264 308.614 214.428 309.131 214.756C309.652 215.085 310.056 215.545 310.344 216.138C310.636 216.732 310.782 217.426 310.782 218.222C310.782 219.01 310.636 219.7 310.344 220.29C310.056 220.88 309.652 221.339 309.131 221.667C308.614 221.995 308.011 222.159 307.322 222.159ZM307.322 221.105C307.845 221.105 308.276 220.971 308.614 220.702C308.952 220.434 309.203 220.081 309.365 219.643C309.527 219.206 309.609 218.732 309.609 218.222C309.609 217.711 309.527 217.236 309.365 216.795C309.203 216.354 308.952 215.998 308.614 215.726C308.276 215.454 307.845 215.318 307.322 215.318C306.798 215.318 306.367 215.454 306.029 215.726C305.691 215.998 305.441 216.354 305.278 216.795C305.116 217.236 305.035 217.711 305.035 218.222C305.035 218.732 305.116 219.206 305.278 219.643C305.441 220.081 305.691 220.434 306.029 220.702C306.367 220.971 306.798 221.105 307.322 221.105ZM317.912 216.074L316.858 216.372C316.792 216.196 316.694 216.026 316.565 215.86C316.439 215.691 316.266 215.552 316.048 215.442C315.829 215.333 315.549 215.278 315.207 215.278C314.74 215.278 314.351 215.386 314.039 215.602C313.731 215.814 313.577 216.084 313.577 216.412C313.577 216.704 313.683 216.934 313.895 217.103C314.107 217.272 314.438 217.413 314.889 217.526L316.023 217.804C316.706 217.97 317.214 218.223 317.549 218.565C317.884 218.903 318.051 219.339 318.051 219.872C318.051 220.31 317.925 220.701 317.673 221.045C317.425 221.39 317.077 221.662 316.629 221.861C316.182 222.06 315.661 222.159 315.068 222.159C314.289 222.159 313.645 221.99 313.134 221.652C312.624 221.314 312.301 220.82 312.165 220.17L313.278 219.892C313.384 220.303 313.585 220.611 313.88 220.817C314.178 221.022 314.568 221.125 315.048 221.125C315.595 221.125 316.029 221.009 316.351 220.777C316.676 220.542 316.838 220.26 316.838 219.932C316.838 219.667 316.745 219.445 316.56 219.266C316.374 219.083 316.089 218.947 315.705 218.858L314.432 218.56C313.732 218.394 313.219 218.137 312.891 217.789C312.566 217.438 312.403 216.999 312.403 216.472C312.403 216.041 312.524 215.66 312.766 215.328C313.012 214.997 313.345 214.737 313.766 214.548C314.19 214.359 314.67 214.264 315.207 214.264C315.963 214.264 316.556 214.43 316.987 214.761C317.421 215.093 317.73 215.53 317.912 216.074ZM319.747 222V214.364H320.921V222H319.747ZM320.344 213.091C320.115 213.091 319.918 213.013 319.752 212.857C319.59 212.701 319.509 212.514 319.509 212.295C319.509 212.077 319.59 211.889 319.752 211.734C319.918 211.578 320.115 211.5 320.344 211.5C320.573 211.5 320.768 211.578 320.931 211.734C321.096 211.889 321.179 212.077 321.179 212.295C321.179 212.514 321.096 212.701 320.931 212.857C320.768 213.013 320.573 213.091 320.344 213.091ZM326.321 214.364V215.358H322.363V214.364H326.321ZM323.517 212.534H324.69V219.812C324.69 220.144 324.738 220.393 324.834 220.558C324.934 220.721 325.059 220.83 325.212 220.886C325.368 220.939 325.532 220.966 325.704 220.966C325.833 220.966 325.939 220.959 326.022 220.946C326.105 220.929 326.171 220.916 326.221 220.906L326.46 221.96C326.38 221.99 326.269 222.02 326.127 222.05C325.984 222.083 325.804 222.099 325.585 222.099C325.253 222.099 324.929 222.028 324.61 221.886C324.295 221.743 324.034 221.526 323.825 221.234C323.619 220.943 323.517 220.575 323.517 220.131V212.534ZM331.036 222.159C330.346 222.159 329.741 221.995 329.221 221.667C328.704 221.339 328.3 220.88 328.008 220.29C327.72 219.7 327.576 219.01 327.576 218.222C327.576 217.426 327.72 216.732 328.008 216.138C328.3 215.545 328.704 215.085 329.221 214.756C329.741 214.428 330.346 214.264 331.036 214.264C331.725 214.264 332.328 214.428 332.845 214.756C333.366 215.085 333.77 215.545 334.058 216.138C334.35 216.732 334.496 217.426 334.496 218.222C334.496 219.01 334.35 219.7 334.058 220.29C333.77 220.88 333.366 221.339 332.845 221.667C332.328 221.995 331.725 222.159 331.036 222.159ZM331.036 221.105C331.559 221.105 331.99 220.971 332.328 220.702C332.666 220.434 332.917 220.081 333.079 219.643C333.241 219.206 333.323 218.732 333.323 218.222C333.323 217.711 333.241 217.236 333.079 216.795C332.917 216.354 332.666 215.998 332.328 215.726C331.99 215.454 331.559 215.318 331.036 215.318C330.512 215.318 330.081 215.454 329.743 215.726C329.405 215.998 329.155 216.354 328.992 216.795C328.83 217.236 328.749 217.711 328.749 218.222C328.749 218.732 328.83 219.206 328.992 219.643C329.155 220.081 329.405 220.434 329.743 220.702C330.081 220.971 330.512 221.105 331.036 221.105ZM336.217 222V214.364H337.351V215.517H337.43C337.569 215.139 337.821 214.833 338.186 214.597C338.55 214.362 338.961 214.244 339.419 214.244C339.505 214.244 339.613 214.246 339.742 214.249C339.871 214.253 339.969 214.258 340.035 214.264V215.457C339.995 215.447 339.904 215.433 339.762 215.413C339.623 215.389 339.475 215.378 339.319 215.378C338.948 215.378 338.617 215.456 338.325 215.612C338.037 215.764 337.808 215.976 337.639 216.248C337.473 216.516 337.39 216.823 337.39 217.168V222H336.217ZM342.344 224.864C342.145 224.864 341.968 224.847 341.812 224.814C341.656 224.784 341.549 224.754 341.489 224.724L341.787 223.69C342.072 223.763 342.324 223.79 342.543 223.77C342.762 223.75 342.956 223.652 343.125 223.477C343.297 223.304 343.454 223.024 343.597 222.636L343.816 222.04L340.992 214.364H342.265L344.372 220.449H344.452L346.56 214.364H347.833L344.591 223.114C344.445 223.508 344.265 223.835 344.049 224.093C343.834 224.355 343.584 224.549 343.299 224.675C343.017 224.801 342.699 224.864 342.344 224.864Z" fill="#0F1324" fill-opacity="0.6"/>
</g>
<defs>
<filter id="filter0_d_202_14911" x="60" y="150" width="404" height="92" filterUnits="userSpaceOnUse" color-interpolation-filters="sRGB">
<feFlood flood-opacity="0" result="BackgroundImageFix"/>
<feColorMatrix in="SourceAlpha" type="matrix" values="0 0 0 0 0 0 0 0 0 0 0 0 0 0 0 0 0 0 127 0" result="hardAlpha"/>
<feOffset dy="1"/>
<feGaussianBlur stdDeviation="1"/>
<feComposite in2="hardAlpha" operator="out"/>
<feColorMatrix type="matrix" values="0 0 0 0 0.0784314 0 0 0 0 0.0823529 0 0 0 0 0.101961 0 0 0 0.05 0"/>
<feBlend mode="normal" in2="BackgroundImageFix" result="effect1_dropShadow_202_14911"/>
<feBlend mode="normal" in="SourceGraphic" in2="effect1_dropShadow_202_14911" result="shape"/>
</filter>
<linearGradient id="paint0_linear_202_14911" x1="524" y1="185.147" x2="0" y2="185.147" gradientUnits="userSpaceOnUse">
<stop stop-color="#FF91ED"/>
<stop offset="1" stop-color="#F56060" stop-opacity="0.64"/>
</linearGradient>
</defs>
</svg>
