<svg width="859" height="641" viewBox="0 0 859 641" fill="none" xmlns="http://www.w3.org/2000/svg">
<path d="M0 16C0 7.16344 7.16344 0 16 0H843C851.837 0 859 7.16344 859 16V624.064C859 632.901 851.837 640.064 843 640.064H16C7.16346 640.064 0 632.901 0 624.064V16Z" fill="url(#paint0_linear_174_69361)"/>
<path d="M333.347 294.405C328.481 292.449 328.538 289.539 333.671 287.831L515.784 227.127C520.831 225.448 523.722 228.272 522.31 233.215L470.27 415.327C468.839 420.374 465.737 420.604 463.428 415.995L419.957 329.042L333.347 294.405ZM380.006 292.497L433.782 314.014L462.789 372.046L496.624 253.634L379.996 292.497H380.006Z" fill="white"/>
<defs>
<linearGradient id="paint0_linear_174_69361" x1="429.5" y1="0" x2="429.5" y2="640.064" gradientUnits="userSpaceOnUse">
<stop stop-color="#FF39DF"/>
<stop offset="1" stop-color="#FAA0A0"/>
</linearGradient>
</defs>
</svg>
